{"glyphs":{"0":{"ha":1031,"x_min":60,"x_max":972,"o":"m 515 -14 q 272 45 374 -14 q 115 222 169 103 q 60 514 60 340 q 115 806 60 688 q 272 983 169 924 q 515 1042 374 1042 q 760 983 658 1042 q 917 806 862 924 q 972 514 972 688 q 917 222 972 340 q 760 45 862 103 q 515 -14 658 -14 m 516 239 q 597 265 565 239 q 647 351 630 291 q 664 514 664 412 q 647 676 664 616 q 597 763 630 737 q 516 789 565 789 q 434 763 467 789 q 384 676 401 737 q 367 514 367 616 q 384 351 367 411 q 433 265 401 290 q 516 239 466 239 z "},"1":{"ha":684,"x_min":27,"x_max":594,"o":"m 385 1032 l 594 1032 l 594 0 l 278 0 l 278 667 l 27 491 l 27 781 l 385 1032 z "},"2":{"ha":838,"x_min":18,"x_max":803,"o":"m 803 251 l 803 0 l 31 0 l 31 164 l 335 499 q 421 611 397 567 q 446 695 446 656 q 406 772 446 747 q 271 797 367 797 q 137 784 206 797 q 18 753 69 772 l 18 1001 q 151 1030 69 1018 q 300 1042 232 1042 q 644 965 533 1042 q 756 729 756 889 q 721 572 756 649 q 605 410 686 496 l 452 251 l 803 251 z "},"3":{"ha":842,"x_min":32,"x_max":800,"o":"m 599 530 q 748 450 695 510 q 800 292 800 391 q 686 66 800 147 q 337 -14 572 -14 q 32 22 178 -14 l 32 246 q 175 220 98 230 q 321 210 251 210 q 463 235 419 210 q 507 312 507 261 q 490 367 507 346 q 432 400 473 389 q 322 411 392 411 l 133 411 l 133 638 l 297 638 q 427 660 390 638 q 465 725 465 682 q 426 794 465 771 q 302 818 388 818 q 172 807 240 818 q 48 777 103 796 l 48 1002 q 182 1031 102 1019 q 334 1042 263 1042 q 657 967 549 1042 q 765 752 765 892 q 720 612 765 671 q 599 530 676 553 z "},"4":{"ha":981,"x_min":22,"x_max":960,"o":"m 960 422 l 960 183 l 830 183 l 830 0 l 548 0 l 548 183 l 22 183 l 22 351 l 369 1028 l 669 1028 l 363 422 l 548 422 l 576 681 l 830 681 l 830 422 l 960 422 z "},"5":{"ha":851,"x_min":49,"x_max":817,"o":"m 386 643 q 635 591 540 631 q 774 484 730 551 q 817 321 817 417 q 702 72 817 158 q 355 -14 588 -14 q 49 26 201 -14 l 49 251 q 193 224 117 235 q 338 214 269 214 q 480 239 436 214 q 524 313 524 264 q 501 370 524 348 q 416 406 478 392 q 235 426 354 419 l 80 433 l 118 1028 l 774 1028 l 774 797 l 397 797 l 386 643 z "},"6":{"ha":968,"x_min":67,"x_max":930,"o":"m 576 638 q 761 603 682 638 q 885 498 840 569 q 930 319 930 427 q 882 144 930 219 q 742 27 834 69 q 522 -14 650 -14 q 281 40 383 -14 q 123 205 179 94 q 67 477 67 315 q 131 786 67 660 q 320 977 195 912 q 626 1042 446 1042 q 759 1033 699 1042 q 871 1006 819 1025 l 871 776 q 762 803 819 794 q 647 813 704 813 q 446 756 514 813 q 372 592 378 699 q 467 625 413 613 q 576 638 521 638 m 522 202 q 615 230 581 202 q 648 311 648 258 q 612 395 648 367 q 511 422 576 422 q 372 390 435 422 q 415 244 378 285 q 522 202 453 202 z "},"7":{"ha":799,"x_min":8,"x_max":759,"o":"m 8 1028 l 759 1028 l 759 864 l 441 0 l 120 0 l 428 777 l 8 777 l 8 1028 z "},"8":{"ha":1031,"x_min":52,"x_max":976,"o":"m 794 556 q 935 446 894 508 q 976 297 976 383 q 926 139 976 208 q 774 27 877 69 q 517 -14 671 -14 q 251 20 355 -14 q 100 115 147 55 q 52 252 52 174 q 100 392 52 331 q 238 488 147 453 q 117 599 153 535 q 80 742 80 662 q 130 898 80 831 q 283 1003 180 965 q 539 1042 385 1042 q 762 1011 669 1042 q 902 922 854 980 q 949 783 949 863 q 794 556 949 631 m 532 835 q 412 813 450 835 q 374 754 374 790 q 390 706 374 725 q 452 667 406 686 q 594 623 499 647 q 659 681 639 651 q 679 747 679 712 q 643 813 679 790 q 532 835 607 835 m 517 192 q 686 278 686 192 q 667 330 686 308 q 598 371 648 351 q 451 412 547 390 l 433 416 q 366 360 388 392 q 344 293 344 328 q 517 192 344 192 z "},"9":{"ha":968,"x_min":38,"x_max":901,"o":"m 447 1042 q 687 988 585 1042 q 845 823 789 933 q 901 551 901 713 q 837 242 901 368 q 648 51 773 116 q 342 -14 522 -14 q 209 -6 269 -14 q 97 22 149 3 l 97 251 q 206 225 149 234 q 322 215 264 215 q 522 272 454 215 q 597 436 590 329 q 501 402 555 415 q 392 390 447 390 q 207 424 286 390 q 83 530 128 458 q 38 709 38 601 q 86 884 38 808 q 226 1000 134 959 q 447 1042 318 1042 m 320 717 q 356 633 320 660 q 457 606 392 606 q 596 638 533 606 q 553 784 590 742 q 446 826 515 826 q 353 798 387 826 q 320 717 320 770 z "},"\u0000":{"ha":0,"x_min":0,"x_max":0,"o":""},"\r":{"ha":381,"x_min":0,"x_max":0,"o":""}," ":{"ha":381,"x_min":0,"x_max":0,"o":""},"A":{"ha":1142,"x_min":7,"x_max":1135,"o":"m 827 0 l 756 234 l 383 234 l 313 0 l 7 0 l 341 1028 l 801 1028 l 1135 0 l 827 0 m 455 473 l 684 473 l 569 851 l 455 473 z "},"Á":{"ha":1142,"x_min":7,"x_max":1135,"o":"m 827 0 l 756 234 l 383 234 l 313 0 l 7 0 l 341 1028 l 801 1028 l 1135 0 l 827 0 m 455 473 l 684 473 l 569 851 l 455 473 m 429 1101 l 563 1321 l 887 1321 l 707 1101 l 429 1101 z "},"Ă":{"ha":1142,"x_min":7,"x_max":1135,"o":"m 827 0 l 756 234 l 383 234 l 313 0 l 7 0 l 341 1028 l 801 1028 l 1135 0 l 827 0 m 455 473 l 684 473 l 569 851 l 455 473 m 570 1101 q 348 1161 427 1101 q 255 1321 269 1220 l 438 1321 q 570 1242 458 1242 q 703 1321 683 1242 l 885 1321 q 792 1161 871 1220 q 570 1101 713 1101 z "},"Ắ":{"ha":1142,"x_min":7,"x_max":1135,"o":"m 827 0 l 756 234 l 383 234 l 313 0 l 7 0 l 341 1028 l 801 1028 l 1135 0 l 827 0 m 455 473 l 684 473 l 569 851 l 455 473 m 487 1269 l 557 1433 l 763 1433 l 653 1269 l 487 1269 m 570 1101 q 369 1152 440 1101 q 282 1290 299 1202 l 436 1290 q 457 1250 443 1266 q 497 1226 470 1235 q 570 1217 524 1217 q 643 1226 615 1217 q 685 1250 670 1234 q 711 1290 700 1265 l 858 1290 q 771 1152 842 1202 q 570 1101 700 1101 z "},"Ặ":{"ha":1142,"x_min":7,"x_max":1135,"o":"m 827 0 l 756 234 l 383 234 l 313 0 l 7 0 l 341 1028 l 801 1028 l 1135 0 l 827 0 m 455 473 l 684 473 l 569 851 l 455 473 m 571 -322 q 435 -289 480 -322 q 390 -197 390 -256 q 435 -105 390 -138 q 571 -72 480 -72 q 707 -105 662 -72 q 751 -197 751 -138 q 707 -289 751 -256 q 571 -322 662 -322 m 570 1101 q 348 1161 427 1101 q 255 1321 269 1220 l 438 1321 q 570 1242 458 1242 q 703 1321 683 1242 l 885 1321 q 792 1161 871 1220 q 570 1101 713 1101 z "},"Ằ":{"ha":1142,"x_min":7,"x_max":1135,"o":"m 827 0 l 756 234 l 383 234 l 313 0 l 7 0 l 341 1028 l 801 1028 l 1135 0 l 827 0 m 455 473 l 684 473 l 569 851 l 455 473 m 487 1269 l 378 1433 l 583 1433 l 653 1269 l 487 1269 m 570 1101 q 369 1152 440 1101 q 282 1290 299 1202 l 429 1290 q 455 1250 440 1265 q 498 1226 470 1234 q 570 1217 525 1217 q 643 1226 616 1217 q 684 1250 670 1235 q 704 1290 697 1266 l 858 1290 q 771 1152 842 1202 q 570 1101 700 1101 z "},"Ẳ":{"ha":1142,"x_min":7,"x_max":1135,"o":"m 827 0 l 756 234 l 383 234 l 313 0 l 7 0 l 341 1028 l 801 1028 l 1135 0 l 827 0 m 455 473 l 684 473 l 569 851 l 455 473 m 498 1269 q 521 1311 500 1296 q 578 1340 542 1326 q 610 1355 600 1349 q 619 1368 619 1360 q 542 1385 619 1385 q 405 1374 472 1385 l 405 1461 q 483 1471 438 1467 q 566 1475 528 1475 q 722 1453 672 1475 q 772 1387 772 1431 q 760 1353 772 1367 q 734 1330 749 1339 q 692 1307 719 1320 q 656 1288 668 1295 q 642 1269 644 1280 l 498 1269 m 570 1101 q 369 1152 440 1101 q 282 1290 299 1202 l 436 1290 q 457 1250 443 1266 q 497 1226 470 1235 q 570 1217 524 1217 q 643 1226 615 1217 q 685 1250 670 1234 q 711 1290 700 1265 l 858 1290 q 771 1152 842 1202 q 570 1101 700 1101 z "},"Ẵ":{"ha":1142,"x_min":7,"x_max":1135,"o":"m 827 0 l 756 234 l 383 234 l 313 0 l 7 0 l 341 1028 l 801 1028 l 1135 0 l 827 0 m 455 473 l 684 473 l 569 851 l 455 473 m 685 1319 q 627 1324 654 1319 q 555 1340 599 1329 q 499 1354 522 1349 q 452 1358 475 1358 q 375 1348 412 1358 q 282 1313 338 1338 l 282 1431 q 368 1466 330 1457 q 455 1475 406 1475 q 517 1469 487 1475 q 585 1453 547 1464 q 644 1439 623 1443 q 688 1435 666 1435 q 765 1445 728 1435 q 858 1481 802 1455 l 858 1363 q 773 1328 811 1336 q 685 1319 735 1319 m 570 1101 q 369 1152 440 1101 q 282 1290 299 1202 l 436 1290 q 457 1250 443 1266 q 497 1226 470 1235 q 570 1217 524 1217 q 643 1226 616 1217 q 684 1250 670 1235 q 704 1290 697 1266 l 858 1290 q 771 1152 842 1202 q 570 1101 700 1101 z "},"Â":{"ha":1142,"x_min":7,"x_max":1135,"o":"m 827 0 l 756 234 l 383 234 l 313 0 l 7 0 l 341 1028 l 801 1028 l 1135 0 l 827 0 m 455 473 l 684 473 l 569 851 l 455 473 m 904 1101 l 671 1101 l 570 1213 l 469 1101 l 236 1101 l 442 1321 l 698 1321 l 904 1101 z "},"Ấ":{"ha":1142,"x_min":7,"x_max":1135,"o":"m 827 0 l 756 234 l 383 234 l 313 0 l 7 0 l 341 1028 l 801 1028 l 1135 0 l 827 0 m 455 473 l 684 473 l 569 851 l 455 473 m 833 1433 l 1038 1433 l 929 1269 l 763 1269 l 833 1433 m 442 1290 l 698 1290 l 904 1101 l 671 1101 l 570 1198 l 469 1101 l 236 1101 l 442 1290 z "},"Ậ":{"ha":1142,"x_min":7,"x_max":1135,"o":"m 827 0 l 756 234 l 383 234 l 313 0 l 7 0 l 341 1028 l 801 1028 l 1135 0 l 827 0 m 455 473 l 684 473 l 569 851 l 455 473 m 571 -322 q 435 -289 480 -322 q 390 -197 390 -256 q 435 -105 390 -138 q 571 -72 480 -72 q 707 -105 662 -72 q 751 -197 751 -138 q 707 -289 751 -256 q 571 -322 662 -322 m 904 1101 l 671 1101 l 570 1213 l 469 1101 l 236 1101 l 442 1321 l 698 1321 l 904 1101 z "},"Ầ":{"ha":1142,"x_min":7,"x_max":1135,"o":"m 827 0 l 756 234 l 383 234 l 313 0 l 7 0 l 341 1028 l 801 1028 l 1135 0 l 827 0 m 455 473 l 684 473 l 569 851 l 455 473 m 957 1269 l 790 1269 l 681 1433 l 887 1433 l 957 1269 m 442 1290 l 698 1290 l 904 1101 l 671 1101 l 570 1198 l 469 1101 l 236 1101 l 442 1290 z "},"Ẩ":{"ha":1142,"x_min":7,"x_max":1135,"o":"m 827 0 l 756 234 l 383 234 l 313 0 l 7 0 l 341 1028 l 801 1028 l 1135 0 l 827 0 m 455 473 l 684 473 l 569 851 l 455 473 m 830 1475 q 985 1453 935 1475 q 1035 1386 1035 1431 q 1024 1353 1035 1367 q 998 1329 1013 1338 q 956 1307 982 1319 q 920 1288 932 1295 q 906 1269 908 1280 l 761 1269 q 784 1310 763 1295 q 841 1340 804 1325 q 873 1355 863 1349 q 883 1368 883 1360 q 806 1385 883 1385 q 668 1373 735 1385 l 668 1461 q 747 1471 701 1467 q 830 1475 792 1475 m 442 1290 l 698 1290 l 904 1101 l 671 1101 l 570 1198 l 469 1101 l 236 1101 l 442 1290 z "},"Ẫ":{"ha":1142,"x_min":7,"x_max":1135,"o":"m 827 0 l 756 234 l 383 234 l 313 0 l 7 0 l 341 1028 l 801 1028 l 1135 0 l 827 0 m 455 473 l 684 473 l 569 851 l 455 473 m 717 1435 q 806 1445 765 1435 q 904 1481 847 1455 l 904 1363 q 814 1328 856 1336 q 715 1319 772 1319 q 640 1325 674 1319 q 552 1340 606 1330 q 483 1354 513 1349 q 423 1358 453 1358 q 335 1348 376 1358 q 236 1313 294 1338 l 236 1431 q 327 1466 285 1457 q 426 1475 370 1475 q 502 1469 466 1475 q 588 1453 538 1464 q 659 1439 631 1444 q 717 1435 688 1435 m 442 1290 l 698 1290 l 904 1101 l 671 1101 l 570 1198 l 469 1101 l 236 1101 l 442 1290 z "},"Ȁ":{"ha":1142,"x_min":7,"x_max":1135,"o":"m 827 0 l 756 234 l 383 234 l 313 0 l 7 0 l 341 1028 l 801 1028 l 1135 0 l 827 0 m 455 473 l 684 473 l 569 851 l 455 473 m 300 1101 l 178 1321 l 413 1321 l 519 1101 l 300 1101 m 621 1101 l 499 1321 l 734 1321 l 840 1101 l 621 1101 z "},"Ä":{"ha":1142,"x_min":7,"x_max":1135,"o":"m 827 0 l 756 234 l 383 234 l 313 0 l 7 0 l 341 1028 l 801 1028 l 1135 0 l 827 0 m 455 473 l 684 473 l 569 851 l 455 473 m 373 1090 q 257 1123 295 1090 q 218 1215 218 1155 q 257 1308 218 1276 q 373 1340 295 1340 q 489 1308 451 1340 q 527 1215 527 1276 q 489 1123 527 1155 q 373 1090 451 1090 m 767 1090 q 651 1123 690 1090 q 613 1215 613 1155 q 651 1308 613 1276 q 767 1340 690 1340 q 884 1308 845 1340 q 922 1215 922 1276 q 884 1123 922 1155 q 767 1090 845 1090 z "},"Ạ":{"ha":1142,"x_min":7,"x_max":1135,"o":"m 827 0 l 756 234 l 383 234 l 313 0 l 7 0 l 341 1028 l 801 1028 l 1135 0 l 827 0 m 455 473 l 684 473 l 569 851 l 455 473 m 571 -322 q 435 -289 480 -322 q 390 -197 390 -256 q 435 -105 390 -138 q 571 -72 480 -72 q 707 -105 662 -72 q 751 -197 751 -138 q 707 -289 751 -256 q 571 -322 662 -322 z "},"À":{"ha":1142,"x_min":7,"x_max":1135,"o":"m 827 0 l 756 234 l 383 234 l 313 0 l 7 0 l 341 1028 l 801 1028 l 1135 0 l 827 0 m 455 473 l 684 473 l 569 851 l 455 473 m 431 1101 l 251 1321 l 575 1321 l 709 1101 l 431 1101 z "},"Ả":{"ha":1142,"x_min":7,"x_max":1135,"o":"m 827 0 l 756 234 l 383 234 l 313 0 l 7 0 l 341 1028 l 801 1028 l 1135 0 l 827 0 m 455 473 l 684 473 l 569 851 l 455 473 m 498 1101 q 521 1149 500 1132 q 578 1183 542 1166 q 609 1200 599 1193 q 619 1215 619 1207 q 542 1236 619 1236 q 405 1222 474 1236 l 405 1325 q 482 1336 437 1332 q 566 1340 527 1340 q 722 1315 672 1340 q 772 1238 772 1289 q 751 1186 772 1206 q 692 1146 731 1167 q 656 1122 667 1131 q 642 1101 644 1113 l 498 1101 z "},"Ȃ":{"ha":1142,"x_min":7,"x_max":1135,"o":"m 827 0 l 756 234 l 383 234 l 313 0 l 7 0 l 341 1028 l 801 1028 l 1135 0 l 827 0 m 455 473 l 684 473 l 569 851 l 455 473 m 255 1101 q 348 1261 269 1202 q 570 1321 427 1321 q 792 1261 713 1321 q 885 1101 871 1202 l 703 1101 q 570 1181 683 1181 q 438 1101 458 1181 l 255 1101 z "},"Ā":{"ha":1142,"x_min":7,"x_max":1135,"o":"m 827 0 l 756 234 l 383 234 l 313 0 l 7 0 l 341 1028 l 801 1028 l 1135 0 l 827 0 m 455 473 l 684 473 l 569 851 l 455 473 m 274 1126 l 274 1298 l 867 1298 l 867 1126 l 274 1126 z "},"Ą":{"ha":1142,"x_min":7,"x_max":1156,"o":"m 1064 -206 q 1156 -190 1106 -206 l 1156 -299 q 1017 -319 1090 -319 q 850 -278 906 -319 q 794 -163 794 -236 q 906 0 794 -61 l 827 0 l 756 234 l 383 234 l 313 0 l 7 0 l 341 1028 l 801 1028 l 1135 0 q 1003 -65 1042 -31 q 965 -140 965 -99 q 1064 -206 965 -206 m 455 473 l 684 473 l 569 851 l 455 473 z "},"Å":{"ha":1142,"x_min":7,"x_max":1135,"o":"m 827 0 l 756 234 l 383 234 l 313 0 l 7 0 l 341 1028 l 801 1028 l 1135 0 l 827 0 m 455 473 l 684 473 l 569 851 l 455 473 m 570 1090 q 489 1110 525 1090 q 432 1165 453 1130 q 412 1243 412 1199 q 432 1322 412 1287 q 489 1376 453 1356 q 570 1396 525 1396 q 651 1376 615 1396 q 708 1322 688 1356 q 728 1243 728 1287 q 708 1165 728 1199 q 651 1110 688 1130 q 570 1090 615 1090 m 570 1186 q 609 1202 594 1186 q 624 1243 624 1217 q 609 1284 624 1269 q 570 1300 594 1300 q 531 1284 546 1300 q 516 1243 516 1269 q 531 1202 516 1217 q 570 1186 546 1186 z "},"Ǻ":{"ha":1142,"x_min":7,"x_max":1135,"o":"m 827 0 l 756 234 l 383 234 l 313 0 l 7 0 l 341 1028 l 801 1028 l 1135 0 l 827 0 m 455 473 l 684 473 l 569 851 l 455 473 m 712 1315 q 728 1243 728 1283 q 708 1165 728 1199 q 651 1110 688 1130 q 570 1090 615 1090 q 489 1110 525 1090 q 432 1165 453 1130 q 412 1243 412 1199 q 432 1322 412 1287 q 489 1376 453 1356 q 570 1396 525 1396 q 585 1395 580 1396 l 652 1483 l 858 1483 l 712 1315 m 570 1186 q 609 1202 594 1186 q 624 1243 624 1217 q 609 1284 624 1269 q 570 1300 594 1300 q 531 1284 546 1300 q 516 1243 516 1269 q 531 1202 516 1217 q 570 1186 546 1186 z "},"Ã":{"ha":1142,"x_min":7,"x_max":1135,"o":"m 827 0 l 756 234 l 383 234 l 313 0 l 7 0 l 341 1028 l 801 1028 l 1135 0 l 827 0 m 455 473 l 684 473 l 569 851 l 455 473 m 703 1101 q 635 1108 666 1101 q 558 1128 603 1115 q 490 1147 518 1140 q 431 1153 461 1153 q 348 1142 384 1153 q 274 1106 313 1131 l 274 1267 q 345 1308 307 1295 q 438 1321 384 1321 q 507 1314 474 1321 q 582 1293 539 1307 q 652 1274 624 1281 q 710 1268 679 1268 q 792 1279 756 1268 q 867 1315 828 1290 l 867 1153 q 795 1114 834 1126 q 703 1101 757 1101 z "},"Æ":{"ha":1560,"x_min":7,"x_max":1505,"o":"m 1029 240 l 1505 240 l 1505 0 l 735 0 l 716 233 l 384 233 l 313 0 l 7 0 l 341 1028 l 1498 1028 l 1498 788 l 976 788 l 990 644 l 1425 644 l 1425 404 l 1013 404 l 1029 240 m 456 474 l 696 474 l 670 788 l 551 788 l 456 474 z "},"Ǽ":{"ha":1560,"x_min":7,"x_max":1505,"o":"m 1029 240 l 1505 240 l 1505 0 l 735 0 l 716 233 l 384 233 l 313 0 l 7 0 l 341 1028 l 1498 1028 l 1498 788 l 976 788 l 990 644 l 1425 644 l 1425 404 l 1013 404 l 1029 240 m 456 474 l 696 474 l 670 788 l 551 788 l 456 474 m 668 1101 l 802 1321 l 1126 1321 l 946 1101 l 668 1101 z "},"B":{"ha":1008,"x_min":83,"x_max":976,"o":"m 794 530 q 926 453 876 511 q 976 297 976 394 q 922 127 976 196 q 742 23 867 59 q 410 -14 617 -14 q 247 -7 342 -14 q 83 9 152 -1 l 83 998 q 269 1030 164 1017 q 464 1042 375 1042 q 832 968 716 1042 q 949 745 949 894 q 929 650 949 694 q 874 575 909 606 q 794 530 839 544 m 503 823 q 391 812 453 823 l 391 636 l 511 636 q 622 659 590 636 q 655 730 655 682 q 621 801 655 778 q 503 823 587 823 m 499 205 q 614 216 572 205 q 672 250 655 228 q 689 308 689 272 q 675 368 689 345 q 627 402 660 391 q 536 413 594 413 l 391 413 l 391 209 q 499 205 433 205 z "},"C":{"ha":966,"x_min":53,"x_max":923,"o":"m 679 -14 q 211 118 369 -14 q 53 511 53 249 q 126 797 53 678 q 341 979 199 916 q 688 1042 483 1042 q 923 1019 815 1042 l 923 767 q 715 787 817 787 q 463 720 542 787 q 383 514 383 653 q 460 308 383 374 q 705 241 537 241 q 923 268 805 241 l 923 15 q 805 -6 869 2 q 679 -14 741 -14 z "},"Ć":{"ha":966,"x_min":53,"x_max":923,"o":"m 679 -14 q 211 118 369 -14 q 53 511 53 249 q 126 797 53 678 q 341 979 199 916 q 688 1042 483 1042 q 923 1019 815 1042 l 923 767 q 715 787 817 787 q 463 720 542 787 q 383 514 383 653 q 460 308 383 374 q 705 241 537 241 q 923 268 805 241 l 923 15 q 805 -6 869 2 q 679 -14 741 -14 m 437 1101 l 571 1321 l 894 1321 l 715 1101 l 437 1101 z "},"Č":{"ha":966,"x_min":53,"x_max":923,"o":"m 679 -14 q 211 118 369 -14 q 53 511 53 249 q 126 797 53 678 q 341 979 199 916 q 688 1042 483 1042 q 923 1019 815 1042 l 923 767 q 715 787 817 787 q 463 720 542 787 q 383 514 383 653 q 460 308 383 374 q 705 241 537 241 q 923 268 805 241 l 923 15 q 805 -6 869 2 q 679 -14 741 -14 m 678 1321 l 912 1321 l 706 1101 l 450 1101 l 244 1321 l 477 1321 l 578 1209 l 678 1321 z "},"Ç":{"ha":966,"x_min":53,"x_max":923,"o":"m 715 787 q 463 720 542 787 q 383 514 383 653 q 460 308 383 374 q 705 241 537 241 q 923 268 805 241 l 923 15 q 805 -6 869 2 q 679 -14 741 -14 q 628 -13 644 -14 l 628 -52 q 728 -95 695 -62 q 762 -181 762 -128 q 707 -283 762 -246 q 545 -319 653 -319 q 393 -298 465 -319 l 393 -192 q 460 -207 424 -202 q 530 -212 497 -212 q 590 -203 571 -212 q 610 -171 610 -193 q 590 -137 610 -147 q 530 -126 570 -126 l 490 -126 l 490 1 q 164 165 274 38 q 53 511 53 293 q 126 797 53 678 q 341 979 199 916 q 688 1042 483 1042 q 923 1019 815 1042 l 923 767 q 715 787 817 787 z "},"Ḉ":{"ha":966,"x_min":53,"x_max":923,"o":"m 894 1321 l 715 1101 l 437 1101 l 571 1321 l 894 1321 m 715 787 q 463 720 542 787 q 383 514 383 653 q 460 308 383 374 q 705 241 537 241 q 923 268 805 241 l 923 15 q 805 -6 869 2 q 679 -14 741 -14 q 628 -13 644 -14 l 628 -52 q 728 -95 695 -62 q 762 -181 762 -128 q 707 -283 762 -246 q 545 -319 653 -319 q 393 -298 465 -319 l 393 -192 q 460 -207 424 -202 q 530 -212 497 -212 q 590 -203 571 -212 q 610 -171 610 -193 q 590 -137 610 -147 q 530 -126 570 -126 l 490 -126 l 490 1 q 164 165 274 38 q 53 511 53 293 q 126 797 53 678 q 341 979 199 916 q 688 1042 483 1042 q 923 1019 815 1042 l 923 767 q 715 787 817 787 z "},"Ĉ":{"ha":966,"x_min":53,"x_max":923,"o":"m 679 -14 q 211 118 369 -14 q 53 511 53 249 q 126 797 53 678 q 341 979 199 916 q 688 1042 483 1042 q 923 1019 815 1042 l 923 767 q 715 787 817 787 q 463 720 542 787 q 383 514 383 653 q 460 308 383 374 q 705 241 537 241 q 923 268 805 241 l 923 15 q 805 -6 869 2 q 679 -14 741 -14 m 912 1101 l 678 1101 l 578 1213 l 477 1101 l 244 1101 l 450 1321 l 706 1321 l 912 1101 z "},"Ċ":{"ha":966,"x_min":53,"x_max":923,"o":"m 679 -14 q 211 118 369 -14 q 53 511 53 249 q 126 797 53 678 q 341 979 199 916 q 688 1042 483 1042 q 923 1019 815 1042 l 923 767 q 715 787 817 787 q 463 720 542 787 q 383 514 383 653 q 460 308 383 374 q 705 241 537 241 q 923 268 805 241 l 923 15 q 805 -6 869 2 q 679 -14 741 -14 m 578 1090 q 442 1123 487 1090 q 397 1215 397 1156 q 442 1307 397 1274 q 578 1340 487 1340 q 714 1307 669 1340 q 758 1215 758 1274 q 714 1123 758 1156 q 578 1090 669 1090 z "},"D":{"ha":1169,"x_min":83,"x_max":1115,"o":"m 411 -10 q 246 -6 335 -10 q 83 8 157 -1 l 83 998 q 271 1028 164 1017 q 476 1039 378 1039 q 955 910 795 1039 q 1115 514 1115 781 q 1039 213 1115 328 q 807 43 962 97 q 411 -10 652 -10 m 497 238 q 666 266 601 238 q 762 355 731 294 q 794 516 794 415 q 721 726 794 661 q 497 791 648 791 q 447 788 475 791 q 399 782 419 785 l 399 241 q 497 238 431 238 z "},"Ǳ":{"ha":2096,"x_min":83,"x_max":2047,"o":"m 411 -10 q 246 -6 335 -10 q 83 8 157 -1 l 83 998 q 271 1028 164 1017 q 476 1039 378 1039 q 955 910 795 1039 q 1115 514 1115 781 q 1039 213 1115 328 q 807 43 962 97 q 411 -10 652 -10 m 497 238 q 666 266 601 238 q 762 355 731 294 q 794 516 794 415 q 721 726 794 661 q 497 791 648 791 q 447 788 475 791 q 399 782 419 785 l 399 241 q 497 238 431 238 m 1588 251 l 2047 251 l 2047 0 l 1181 0 l 1181 170 l 1633 776 l 1188 776 l 1188 1028 l 2040 1028 l 2040 858 l 1588 251 z "},"Ǆ":{"ha":2096,"x_min":83,"x_max":2047,"o":"m 411 -10 q 246 -6 335 -10 q 83 8 157 -1 l 83 998 q 271 1028 164 1017 q 476 1039 378 1039 q 955 910 795 1039 q 1115 514 1115 781 q 1039 213 1115 328 q 807 43 962 97 q 411 -10 652 -10 m 497 238 q 666 266 601 238 q 762 355 731 294 q 794 516 794 415 q 721 726 794 661 q 497 791 648 791 q 447 788 475 791 q 399 782 419 785 l 399 241 q 497 238 431 238 m 1588 251 l 2047 251 l 2047 0 l 1181 0 l 1181 170 l 1633 776 l 1188 776 l 1188 1028 l 2040 1028 l 2040 858 l 1588 251 m 1715 1321 l 1949 1321 l 1742 1101 l 1487 1101 l 1281 1321 l 1514 1321 l 1615 1209 l 1715 1321 z "},"Ð":{"ha":1169,"x_min":5,"x_max":1115,"o":"m 476 1039 q 955 910 795 1039 q 1115 514 1115 781 q 1039 213 1115 328 q 807 43 962 97 q 411 -10 652 -10 q 246 -6 335 -10 q 83 8 157 -1 l 83 434 l 5 434 l 5 624 l 83 624 l 83 998 q 271 1028 164 1017 q 476 1039 378 1039 m 497 238 q 666 266 601 238 q 762 355 731 294 q 794 516 794 415 q 721 726 794 661 q 497 791 648 791 q 447 788 475 791 q 399 782 419 785 l 399 624 l 576 624 l 576 434 l 399 434 l 399 241 q 497 238 431 238 z "},"Ď":{"ha":1169,"x_min":83,"x_max":1115,"o":"m 411 -10 q 246 -6 335 -10 q 83 8 157 -1 l 83 998 q 271 1028 164 1017 q 476 1039 378 1039 q 955 910 795 1039 q 1115 514 1115 781 q 1039 213 1115 328 q 807 43 962 97 q 411 -10 652 -10 m 497 238 q 666 266 601 238 q 762 355 731 294 q 794 516 794 415 q 721 726 794 661 q 497 791 648 791 q 447 788 475 791 q 399 782 419 785 l 399 241 q 497 238 431 238 m 611 1321 l 844 1321 l 638 1101 l 383 1101 l 176 1321 l 410 1321 l 510 1209 l 611 1321 z "},"Đ":{"ha":1169,"x_min":5,"x_max":1115,"o":"m 476 1039 q 955 910 795 1039 q 1115 514 1115 781 q 1039 213 1115 328 q 807 43 962 97 q 411 -10 652 -10 q 246 -6 335 -10 q 83 8 157 -1 l 83 434 l 5 434 l 5 624 l 83 624 l 83 998 q 271 1028 164 1017 q 476 1039 378 1039 m 497 238 q 666 266 601 238 q 762 355 731 294 q 794 516 794 415 q 721 726 794 661 q 497 791 648 791 q 447 788 475 791 q 399 782 419 785 l 399 624 l 576 624 l 576 434 l 399 434 l 399 241 q 497 238 431 238 z "},"Ḍ":{"ha":1169,"x_min":83,"x_max":1115,"o":"m 411 -10 q 246 -6 335 -10 q 83 8 157 -1 l 83 998 q 271 1028 164 1017 q 476 1039 378 1039 q 955 910 795 1039 q 1115 514 1115 781 q 1039 213 1115 328 q 807 43 962 97 q 411 -10 652 -10 m 497 238 q 666 266 601 238 q 762 355 731 294 q 794 516 794 415 q 721 726 794 661 q 497 791 648 791 q 447 788 475 791 q 399 782 419 785 l 399 241 q 497 238 431 238 m 524 -322 q 389 -289 433 -322 q 344 -197 344 -256 q 389 -105 344 -138 q 524 -72 433 -72 q 660 -105 615 -72 q 705 -197 705 -138 q 660 -289 705 -256 q 524 -322 615 -322 z "},"Ḏ":{"ha":1169,"x_min":83,"x_max":1115,"o":"m 411 -10 q 246 -6 335 -10 q 83 8 157 -1 l 83 998 q 271 1028 164 1017 q 476 1039 378 1039 q 955 910 795 1039 q 1115 514 1115 781 q 1039 213 1115 328 q 807 43 962 97 q 411 -10 652 -10 m 497 238 q 666 266 601 238 q 762 355 731 294 q 794 516 794 415 q 721 726 794 661 q 497 791 648 791 q 447 788 475 791 q 399 782 419 785 l 399 241 q 497 238 431 238 m 228 -276 l 228 -103 l 821 -103 l 821 -276 l 228 -276 z "},"ǲ":{"ha":1984,"x_min":83,"x_max":1944,"o":"m 411 -10 q 246 -6 335 -10 q 83 8 157 -1 l 83 998 q 271 1028 164 1017 q 476 1039 378 1039 q 955 910 795 1039 q 1115 514 1115 781 q 1039 213 1115 328 q 807 43 962 97 q 411 -10 652 -10 m 497 238 q 666 266 601 238 q 762 355 731 294 q 794 516 794 415 q 721 726 794 661 q 497 791 648 791 q 447 788 475 791 q 399 782 419 785 l 399 241 q 497 238 431 238 m 1622 240 l 1944 240 l 1944 0 l 1224 0 l 1224 198 l 1539 524 l 1231 524 l 1231 764 l 1938 764 l 1938 566 l 1622 240 z "},"ǅ":{"ha":1984,"x_min":83,"x_max":1944,"o":"m 411 -10 q 246 -6 335 -10 q 83 8 157 -1 l 83 998 q 271 1028 164 1017 q 476 1039 378 1039 q 955 910 795 1039 q 1115 514 1115 781 q 1039 213 1115 328 q 807 43 962 97 q 411 -10 652 -10 m 497 238 q 666 266 601 238 q 762 355 731 294 q 794 516 794 415 q 721 726 794 661 q 497 791 648 791 q 447 788 475 791 q 399 782 419 785 l 399 241 q 497 238 431 238 m 1622 240 l 1944 240 l 1944 0 l 1224 0 l 1224 198 l 1539 524 l 1231 524 l 1231 764 l 1938 764 l 1938 566 l 1622 240 m 1685 1099 l 1919 1099 l 1713 879 l 1457 879 l 1251 1099 l 1484 1099 l 1585 987 l 1685 1099 z "},"E":{"ha":976,"x_min":83,"x_max":921,"o":"m 394 240 l 921 240 l 921 0 l 83 0 l 83 1028 l 914 1028 l 914 788 l 394 788 l 394 644 l 841 644 l 841 404 l 394 404 l 394 240 z "},"É":{"ha":976,"x_min":83,"x_max":921,"o":"m 394 240 l 921 240 l 921 0 l 83 0 l 83 1028 l 914 1028 l 914 788 l 394 788 l 394 644 l 841 644 l 841 404 l 394 404 l 394 240 m 373 1101 l 507 1321 l 831 1321 l 651 1101 l 373 1101 z "},"Ĕ":{"ha":976,"x_min":83,"x_max":921,"o":"m 394 240 l 921 240 l 921 0 l 83 0 l 83 1028 l 914 1028 l 914 788 l 394 788 l 394 644 l 841 644 l 841 404 l 394 404 l 394 240 m 514 1101 q 292 1161 371 1101 q 199 1321 213 1220 l 381 1321 q 514 1242 401 1242 q 647 1321 626 1242 l 829 1321 q 736 1161 815 1220 q 514 1101 657 1101 z "},"Ě":{"ha":976,"x_min":83,"x_max":921,"o":"m 394 240 l 921 240 l 921 0 l 83 0 l 83 1028 l 914 1028 l 914 788 l 394 788 l 394 644 l 841 644 l 841 404 l 394 404 l 394 240 m 615 1321 l 848 1321 l 642 1101 l 386 1101 l 180 1321 l 413 1321 l 514 1209 l 615 1321 z "},"Ḝ":{"ha":976,"x_min":83,"x_max":921,"o":"m 514 1101 q 292 1161 371 1101 q 199 1321 213 1220 l 381 1321 q 514 1242 401 1242 q 647 1321 626 1242 l 829 1321 q 736 1161 815 1220 q 514 1101 657 1101 m 564 0 l 564 -52 q 665 -95 631 -62 q 698 -181 698 -128 q 643 -283 698 -246 q 481 -319 589 -319 q 329 -298 401 -319 l 329 -192 q 397 -207 360 -202 q 466 -212 434 -212 q 526 -203 507 -212 q 546 -171 546 -193 q 526 -137 546 -147 q 466 -126 506 -126 l 426 -126 l 426 0 l 83 0 l 83 1028 l 914 1028 l 914 788 l 394 788 l 394 644 l 841 644 l 841 404 l 394 404 l 394 240 l 921 240 l 921 0 l 564 0 z "},"Ê":{"ha":976,"x_min":83,"x_max":921,"o":"m 394 240 l 921 240 l 921 0 l 83 0 l 83 1028 l 914 1028 l 914 788 l 394 788 l 394 644 l 841 644 l 841 404 l 394 404 l 394 240 m 848 1101 l 615 1101 l 514 1213 l 413 1101 l 180 1101 l 386 1321 l 642 1321 l 848 1101 z "},"Ế":{"ha":976,"x_min":83,"x_max":982,"o":"m 394 240 l 921 240 l 921 0 l 83 0 l 83 1028 l 914 1028 l 914 788 l 394 788 l 394 644 l 841 644 l 841 404 l 394 404 l 394 240 m 776 1433 l 982 1433 l 873 1269 l 706 1269 l 776 1433 m 386 1290 l 642 1290 l 848 1101 l 615 1101 l 514 1198 l 413 1101 l 180 1101 l 386 1290 z "},"Ệ":{"ha":976,"x_min":83,"x_max":921,"o":"m 394 240 l 921 240 l 921 0 l 83 0 l 83 1028 l 914 1028 l 914 788 l 394 788 l 394 644 l 841 644 l 841 404 l 394 404 l 394 240 m 514 -322 q 378 -289 423 -322 q 333 -197 333 -256 q 378 -105 333 -138 q 514 -72 423 -72 q 650 -105 605 -72 q 694 -197 694 -138 q 650 -289 694 -256 q 514 -322 605 -322 m 848 1101 l 615 1101 l 514 1213 l 413 1101 l 180 1101 l 386 1321 l 642 1321 l 848 1101 z "},"Ề":{"ha":976,"x_min":83,"x_max":921,"o":"m 394 240 l 921 240 l 921 0 l 83 0 l 83 1028 l 914 1028 l 914 788 l 394 788 l 394 644 l 841 644 l 841 404 l 394 404 l 394 240 m 901 1269 l 734 1269 l 625 1433 l 831 1433 l 901 1269 m 386 1290 l 642 1290 l 848 1101 l 615 1101 l 514 1198 l 413 1101 l 180 1101 l 386 1290 z "},"Ể":{"ha":976,"x_min":83,"x_max":979,"o":"m 394 240 l 921 240 l 921 0 l 83 0 l 83 1028 l 914 1028 l 914 788 l 394 788 l 394 644 l 841 644 l 841 404 l 394 404 l 394 240 m 774 1475 q 929 1453 879 1475 q 979 1386 979 1431 q 968 1353 979 1367 q 941 1329 957 1338 q 900 1307 926 1319 q 864 1288 876 1295 q 850 1269 852 1280 l 705 1269 q 727 1310 707 1295 q 785 1340 748 1325 q 817 1355 807 1349 q 826 1368 826 1360 q 750 1385 826 1385 q 612 1373 678 1385 l 612 1461 q 690 1471 644 1467 q 774 1475 736 1475 m 386 1290 l 642 1290 l 848 1101 l 615 1101 l 514 1198 l 413 1101 l 180 1101 l 386 1290 z "},"Ễ":{"ha":976,"x_min":83,"x_max":921,"o":"m 394 240 l 921 240 l 921 0 l 83 0 l 83 1028 l 914 1028 l 914 788 l 394 788 l 394 644 l 841 644 l 841 404 l 394 404 l 394 240 m 661 1435 q 749 1445 708 1435 q 848 1481 790 1455 l 848 1363 q 757 1328 799 1336 q 658 1319 715 1319 q 584 1325 618 1319 q 496 1340 550 1330 q 426 1354 456 1349 q 367 1358 397 1358 q 278 1348 319 1358 q 180 1313 238 1338 l 180 1431 q 271 1466 228 1457 q 369 1475 314 1475 q 445 1469 410 1475 q 532 1453 481 1464 q 603 1439 574 1444 q 661 1435 632 1435 m 386 1290 l 642 1290 l 848 1101 l 615 1101 l 514 1198 l 413 1101 l 180 1101 l 386 1290 z "},"Ȅ":{"ha":976,"x_min":83,"x_max":921,"o":"m 394 240 l 921 240 l 921 0 l 83 0 l 83 1028 l 914 1028 l 914 788 l 394 788 l 394 644 l 841 644 l 841 404 l 394 404 l 394 240 m 244 1101 l 122 1321 l 357 1321 l 463 1101 l 244 1101 m 565 1101 l 443 1321 l 678 1321 l 784 1101 l 565 1101 z "},"Ë":{"ha":976,"x_min":83,"x_max":921,"o":"m 394 240 l 921 240 l 921 0 l 83 0 l 83 1028 l 914 1028 l 914 788 l 394 788 l 394 644 l 841 644 l 841 404 l 394 404 l 394 240 m 317 1090 q 200 1123 239 1090 q 162 1215 162 1155 q 200 1308 162 1276 q 317 1340 239 1340 q 433 1308 394 1340 q 471 1215 471 1276 q 433 1123 471 1155 q 317 1090 394 1090 m 711 1090 q 595 1123 633 1090 q 557 1215 557 1155 q 595 1308 557 1276 q 711 1340 633 1340 q 827 1308 789 1340 q 866 1215 866 1276 q 827 1123 866 1155 q 711 1090 789 1090 z "},"Ė":{"ha":976,"x_min":83,"x_max":921,"o":"m 394 240 l 921 240 l 921 0 l 83 0 l 83 1028 l 914 1028 l 914 788 l 394 788 l 394 644 l 841 644 l 841 404 l 394 404 l 394 240 m 514 1090 q 378 1123 423 1090 q 333 1215 333 1156 q 378 1307 333 1274 q 514 1340 423 1340 q 650 1307 605 1340 q 694 1215 694 1274 q 650 1123 694 1156 q 514 1090 605 1090 z "},"Ẹ":{"ha":976,"x_min":83,"x_max":921,"o":"m 394 240 l 921 240 l 921 0 l 83 0 l 83 1028 l 914 1028 l 914 788 l 394 788 l 394 644 l 841 644 l 841 404 l 394 404 l 394 240 m 514 -322 q 378 -289 423 -322 q 333 -197 333 -256 q 378 -105 333 -138 q 514 -72 423 -72 q 650 -105 605 -72 q 694 -197 694 -138 q 650 -289 694 -256 q 514 -322 605 -322 z "},"È":{"ha":976,"x_min":83,"x_max":921,"o":"m 394 240 l 921 240 l 921 0 l 83 0 l 83 1028 l 914 1028 l 914 788 l 394 788 l 394 644 l 841 644 l 841 404 l 394 404 l 394 240 m 375 1101 l 195 1321 l 519 1321 l 653 1101 l 375 1101 z "},"Ẻ":{"ha":976,"x_min":83,"x_max":921,"o":"m 394 240 l 921 240 l 921 0 l 83 0 l 83 1028 l 914 1028 l 914 788 l 394 788 l 394 644 l 841 644 l 841 404 l 394 404 l 394 240 m 442 1101 q 465 1149 444 1132 q 522 1183 485 1166 q 553 1200 543 1193 q 563 1215 563 1207 q 486 1236 563 1236 q 349 1222 417 1236 l 349 1325 q 426 1336 381 1332 q 510 1340 471 1340 q 665 1315 615 1340 q 715 1238 715 1289 q 695 1186 715 1206 q 636 1146 674 1167 q 600 1122 611 1131 q 586 1101 588 1113 l 442 1101 z "},"Ȇ":{"ha":976,"x_min":83,"x_max":921,"o":"m 394 240 l 921 240 l 921 0 l 83 0 l 83 1028 l 914 1028 l 914 788 l 394 788 l 394 644 l 841 644 l 841 404 l 394 404 l 394 240 m 199 1101 q 292 1261 213 1202 q 514 1321 371 1321 q 736 1261 657 1321 q 829 1101 815 1202 l 647 1101 q 514 1181 626 1181 q 381 1101 401 1181 l 199 1101 z "},"Ē":{"ha":976,"x_min":83,"x_max":921,"o":"m 394 240 l 921 240 l 921 0 l 83 0 l 83 1028 l 914 1028 l 914 788 l 394 788 l 394 644 l 841 644 l 841 404 l 394 404 l 394 240 m 217 1126 l 217 1298 l 810 1298 l 810 1126 l 217 1126 z "},"Ḗ":{"ha":976,"x_min":83,"x_max":921,"o":"m 394 240 l 921 240 l 921 0 l 83 0 l 83 1028 l 914 1028 l 914 788 l 394 788 l 394 644 l 841 644 l 841 404 l 394 404 l 394 240 m 356 1379 l 490 1540 l 851 1540 l 672 1379 l 356 1379 m 217 1126 l 217 1298 l 810 1298 l 810 1126 l 217 1126 z "},"Ḕ":{"ha":976,"x_min":83,"x_max":921,"o":"m 394 240 l 921 240 l 921 0 l 83 0 l 83 1028 l 914 1028 l 914 788 l 394 788 l 394 644 l 841 644 l 841 404 l 394 404 l 394 240 m 356 1379 l 176 1540 l 538 1540 l 672 1379 l 356 1379 m 217 1126 l 217 1298 l 810 1298 l 810 1126 l 217 1126 z "},"Ę":{"ha":976,"x_min":83,"x_max":921,"o":"m 855 0 q 723 -65 761 -31 q 684 -140 684 -99 q 783 -206 684 -206 q 875 -190 825 -206 l 875 -299 q 737 -319 809 -319 q 569 -278 626 -319 q 513 -163 513 -236 q 626 0 513 -61 l 83 0 l 83 1028 l 914 1028 l 914 788 l 394 788 l 394 644 l 841 644 l 841 404 l 394 404 l 394 240 l 921 240 l 921 0 l 855 0 z "},"Ẽ":{"ha":976,"x_min":83,"x_max":921,"o":"m 394 240 l 921 240 l 921 0 l 83 0 l 83 1028 l 914 1028 l 914 788 l 394 788 l 394 644 l 841 644 l 841 404 l 394 404 l 394 240 m 647 1101 q 578 1108 610 1101 q 502 1128 547 1115 q 433 1147 462 1140 q 374 1153 405 1153 q 292 1142 328 1153 q 217 1106 256 1131 l 217 1267 q 289 1308 251 1295 q 381 1321 328 1321 q 450 1314 418 1321 q 526 1293 483 1307 q 595 1274 568 1281 q 653 1268 623 1268 q 736 1279 700 1268 q 810 1315 772 1290 l 810 1153 q 739 1114 778 1126 q 647 1101 701 1101 z "},"F":{"ha":953,"x_min":83,"x_max":914,"o":"m 914 782 l 399 782 l 399 613 l 839 613 l 839 367 l 399 367 l 399 0 l 83 0 l 83 1028 l 914 1028 l 914 782 z "},"G":{"ha":1096,"x_min":53,"x_max":1010,"o":"m 1010 500 l 1010 13 q 718 -14 851 -14 q 218 117 383 -14 q 53 510 53 249 q 129 797 53 678 q 355 979 204 916 q 731 1042 506 1042 q 973 1019 857 1042 l 973 766 q 758 787 867 787 q 538 756 621 786 q 418 664 456 725 q 381 505 381 602 q 458 306 381 373 q 696 239 535 239 l 717 239 l 717 500 l 1010 500 z "},"Ǵ":{"ha":1096,"x_min":53,"x_max":1010,"o":"m 1010 500 l 1010 13 q 718 -14 851 -14 q 218 117 383 -14 q 53 510 53 249 q 129 797 53 678 q 355 979 204 916 q 731 1042 506 1042 q 973 1019 857 1042 l 973 766 q 758 787 867 787 q 538 756 621 786 q 418 664 456 725 q 381 505 381 602 q 458 306 381 373 q 696 239 535 239 l 717 239 l 717 500 l 1010 500 m 478 1101 l 613 1321 l 936 1321 l 756 1101 l 478 1101 z "},"Ğ":{"ha":1096,"x_min":53,"x_max":1010,"o":"m 1010 500 l 1010 13 q 718 -14 851 -14 q 218 117 383 -14 q 53 510 53 249 q 129 797 53 678 q 355 979 204 916 q 731 1042 506 1042 q 973 1019 857 1042 l 973 766 q 758 787 867 787 q 538 756 621 786 q 418 664 456 725 q 381 505 381 602 q 458 306 381 373 q 696 239 535 239 l 717 239 l 717 500 l 1010 500 m 619 1101 q 398 1161 476 1101 q 304 1321 319 1220 l 487 1321 q 619 1242 507 1242 q 752 1321 732 1242 l 935 1321 q 841 1161 920 1220 q 619 1101 763 1101 z "},"Ǧ":{"ha":1096,"x_min":53,"x_max":1010,"o":"m 1010 500 l 1010 13 q 718 -14 851 -14 q 218 117 383 -14 q 53 510 53 249 q 129 797 53 678 q 355 979 204 916 q 731 1042 506 1042 q 973 1019 857 1042 l 973 766 q 758 787 867 787 q 538 756 621 786 q 418 664 456 725 q 381 505 381 602 q 458 306 381 373 q 696 239 535 239 l 717 239 l 717 500 l 1010 500 m 720 1321 l 953 1321 l 747 1101 l 492 1101 l 285 1321 l 519 1321 l 619 1209 l 720 1321 z "},"Ĝ":{"ha":1096,"x_min":53,"x_max":1010,"o":"m 1010 500 l 1010 13 q 718 -14 851 -14 q 218 117 383 -14 q 53 510 53 249 q 129 797 53 678 q 355 979 204 916 q 731 1042 506 1042 q 973 1019 857 1042 l 973 766 q 758 787 867 787 q 538 756 621 786 q 418 664 456 725 q 381 505 381 602 q 458 306 381 373 q 696 239 535 239 l 717 239 l 717 500 l 1010 500 m 953 1101 l 720 1101 l 619 1213 l 519 1101 l 285 1101 l 492 1321 l 747 1321 l 953 1101 z "},"Ģ":{"ha":1096,"x_min":53,"x_max":1010,"o":"m 1010 500 l 1010 13 q 718 -14 851 -14 q 218 117 383 -14 q 53 510 53 249 q 129 797 53 678 q 355 979 204 916 q 731 1042 506 1042 q 973 1019 857 1042 l 973 766 q 758 787 867 787 q 538 756 621 786 q 418 664 456 725 q 381 505 381 602 q 458 306 381 373 q 696 239 535 239 l 717 239 l 717 500 l 1010 500 m 619 -72 q 785 -195 785 -72 q 766 -283 785 -237 q 719 -360 748 -329 l 531 -360 q 576 -257 566 -300 q 483 -228 512 -251 q 454 -166 454 -205 q 619 -72 454 -72 z "},"Ġ":{"ha":1096,"x_min":53,"x_max":1010,"o":"m 1010 500 l 1010 13 q 718 -14 851 -14 q 218 117 383 -14 q 53 510 53 249 q 129 797 53 678 q 355 979 204 916 q 731 1042 506 1042 q 973 1019 857 1042 l 973 766 q 758 787 867 787 q 538 756 621 786 q 418 664 456 725 q 381 505 381 602 q 458 306 381 373 q 696 239 535 239 l 717 239 l 717 500 l 1010 500 m 619 1090 q 484 1123 528 1090 q 439 1215 439 1156 q 484 1307 439 1274 q 619 1340 528 1340 q 755 1307 710 1340 q 800 1215 800 1274 q 755 1123 800 1156 q 619 1090 710 1090 z "},"Ḡ":{"ha":1096,"x_min":53,"x_max":1010,"o":"m 1010 500 l 1010 13 q 718 -14 851 -14 q 218 117 383 -14 q 53 510 53 249 q 129 797 53 678 q 355 979 204 916 q 731 1042 506 1042 q 973 1019 857 1042 l 973 766 q 758 787 867 787 q 538 756 621 786 q 418 664 456 725 q 381 505 381 602 q 458 306 381 373 q 696 239 535 239 l 717 239 l 717 500 l 1010 500 m 323 1126 l 323 1298 l 916 1298 l 916 1126 l 323 1126 z "},"H":{"ha":1172,"x_min":83,"x_max":1088,"o":"m 83 0 l 83 1028 l 399 1028 l 399 660 l 773 660 l 773 1028 l 1088 1028 l 1088 0 l 773 0 l 773 389 l 399 389 l 399 0 l 83 0 z "},"Ħ":{"ha":1172,"x_min":4,"x_max":1167,"o":"m 1167 938 l 1167 751 l 1088 751 l 1088 0 l 773 0 l 773 389 l 399 389 l 399 0 l 83 0 l 83 751 l 4 751 l 4 938 l 83 938 l 83 1028 l 399 1028 l 399 938 l 773 938 l 773 1028 l 1088 1028 l 1088 938 l 1167 938 m 773 660 l 773 751 l 399 751 l 399 660 l 773 660 z "},"Ḫ":{"ha":1172,"x_min":83,"x_max":1088,"o":"m 83 0 l 83 1028 l 399 1028 l 399 660 l 773 660 l 773 1028 l 1088 1028 l 1088 0 l 773 0 l 773 389 l 399 389 l 399 0 l 83 0 m 586 -313 q 364 -254 443 -313 q 271 -94 285 -194 l 453 -94 q 586 -173 474 -173 q 719 -94 699 -173 l 901 -94 q 808 -254 887 -194 q 586 -313 729 -313 z "},"Ĥ":{"ha":1172,"x_min":83,"x_max":1088,"o":"m 83 0 l 83 1028 l 399 1028 l 399 660 l 773 660 l 773 1028 l 1088 1028 l 1088 0 l 773 0 l 773 389 l 399 389 l 399 0 l 83 0 m 920 1101 l 687 1101 l 586 1213 l 485 1101 l 252 1101 l 458 1321 l 714 1321 l 920 1101 z "},"Ḥ":{"ha":1172,"x_min":83,"x_max":1088,"o":"m 83 0 l 83 1028 l 399 1028 l 399 660 l 773 660 l 773 1028 l 1088 1028 l 1088 0 l 773 0 l 773 389 l 399 389 l 399 0 l 83 0 m 586 -322 q 450 -289 495 -322 q 406 -197 406 -256 q 450 -105 406 -138 q 586 -72 495 -72 q 722 -105 677 -72 q 767 -197 767 -138 q 722 -289 767 -256 q 586 -322 677 -322 z "},"I":{"ha":482,"x_min":83,"x_max":399,"o":"m 83 0 l 83 1028 l 399 1028 l 399 0 l 83 0 z "},"Í":{"ha":482,"x_min":83,"x_max":558,"o":"m 83 0 l 83 1028 l 399 1028 l 399 0 l 83 0 m 100 1101 l 234 1321 l 558 1321 l 378 1101 l 100 1101 z "},"Ĭ":{"ha":482,"x_min":-74,"x_max":556,"o":"m 83 0 l 83 1028 l 399 1028 l 399 0 l 83 0 m 241 1101 q 19 1161 98 1101 q -74 1321 -60 1220 l 108 1321 q 241 1242 128 1242 q 374 1321 353 1242 l 556 1321 q 463 1161 542 1220 q 241 1101 384 1101 z "},"Î":{"ha":482,"x_min":-93,"x_max":575,"o":"m 83 0 l 83 1028 l 399 1028 l 399 0 l 83 0 m 575 1101 l 342 1101 l 241 1213 l 140 1101 l -93 1101 l 113 1321 l 369 1321 l 575 1101 z "},"Ȉ":{"ha":482,"x_min":-151,"x_max":511,"o":"m 83 0 l 83 1028 l 399 1028 l 399 0 l 83 0 m -29 1101 l -151 1321 l 84 1321 l 190 1101 l -29 1101 m 292 1101 l 170 1321 l 405 1321 l 511 1101 l 292 1101 z "},"Ï":{"ha":482,"x_min":-111,"x_max":593,"o":"m 83 0 l 83 1028 l 399 1028 l 399 0 l 83 0 m 44 1090 q -73 1123 -34 1090 q -111 1215 -111 1155 q -73 1308 -111 1276 q 44 1340 -34 1340 q 160 1308 122 1340 q 198 1215 198 1276 q 160 1123 198 1155 q 44 1090 122 1090 m 438 1090 q 322 1123 360 1090 q 284 1215 284 1155 q 322 1308 284 1276 q 438 1340 360 1340 q 555 1308 516 1340 q 593 1215 593 1276 q 555 1123 593 1155 q 438 1090 516 1090 z "},"Ḯ":{"ha":482,"x_min":-111,"x_max":593,"o":"m 83 0 l 83 1028 l 399 1028 l 399 0 l 83 0 m 83 1379 l 217 1540 l 578 1540 l 399 1379 l 83 1379 m 44 1090 q -73 1123 -34 1090 q -111 1215 -111 1155 q -73 1308 -111 1276 q 44 1340 -34 1340 q 160 1308 122 1340 q 198 1215 198 1276 q 160 1123 198 1155 q 44 1090 122 1090 m 438 1090 q 322 1123 360 1090 q 284 1215 284 1155 q 322 1308 284 1276 q 438 1340 360 1340 q 555 1308 516 1340 q 593 1215 593 1276 q 555 1123 593 1155 q 438 1090 516 1090 z "},"İ":{"ha":482,"x_min":60,"x_max":422,"o":"m 83 0 l 83 1028 l 399 1028 l 399 0 l 83 0 m 241 1090 q 105 1123 150 1090 q 60 1215 60 1156 q 105 1307 60 1274 q 241 1340 150 1340 q 377 1307 332 1340 q 422 1215 422 1274 q 377 1123 422 1156 q 241 1090 332 1090 z "},"Ị":{"ha":482,"x_min":59,"x_max":420,"o":"m 83 0 l 83 1028 l 399 1028 l 399 0 l 83 0 m 240 -322 q 104 -289 149 -322 q 59 -197 59 -256 q 104 -105 59 -138 q 240 -72 149 -72 q 375 -105 331 -72 q 420 -197 420 -138 q 375 -289 420 -256 q 240 -322 331 -322 z "},"Ì":{"ha":482,"x_min":-78,"x_max":399,"o":"m 83 0 l 83 1028 l 399 1028 l 399 0 l 83 0 m 102 1101 l -78 1321 l 246 1321 l 380 1101 l 102 1101 z "},"Ỉ":{"ha":482,"x_min":76,"x_max":442,"o":"m 83 0 l 83 1028 l 399 1028 l 399 0 l 83 0 m 169 1101 q 192 1149 171 1132 q 249 1183 213 1166 q 280 1200 270 1193 q 290 1215 290 1207 q 213 1236 290 1236 q 76 1222 144 1236 l 76 1325 q 153 1336 108 1332 q 237 1340 198 1340 q 392 1315 342 1340 q 442 1238 442 1289 q 422 1186 442 1206 q 363 1146 401 1167 q 327 1122 338 1131 q 313 1101 315 1113 l 169 1101 z "},"Ȋ":{"ha":482,"x_min":-74,"x_max":556,"o":"m 83 0 l 83 1028 l 399 1028 l 399 0 l 83 0 m -74 1101 q 19 1261 -60 1202 q 241 1321 98 1321 q 463 1261 384 1321 q 556 1101 542 1202 l 374 1101 q 241 1181 353 1181 q 108 1101 128 1181 l -74 1101 z "},"Ī":{"ha":482,"x_min":-56,"x_max":538,"o":"m 83 0 l 83 1028 l 399 1028 l 399 0 l 83 0 m -56 1126 l -56 1298 l 538 1298 l 538 1126 l -56 1126 z "},"Į":{"ha":482,"x_min":57,"x_max":419,"o":"m 327 -206 q 419 -190 369 -206 l 419 -299 q 281 -319 353 -319 q 113 -278 169 -319 q 57 -163 57 -236 q 169 0 57 -61 l 83 0 l 83 1028 l 399 1028 l 399 0 q 266 -65 305 -31 q 228 -140 228 -99 q 327 -206 228 -206 z "},"Ĩ":{"ha":482,"x_min":-56,"x_max":538,"o":"m 83 0 l 83 1028 l 399 1028 l 399 0 l 83 0 m 374 1101 q 306 1108 337 1101 q 229 1128 274 1115 q 160 1147 189 1140 q 101 1153 132 1153 q 19 1142 55 1153 q -56 1106 -17 1131 l -56 1267 q 16 1308 -22 1295 q 108 1321 55 1321 q 177 1314 145 1321 q 253 1293 210 1307 q 323 1274 295 1281 q 381 1268 350 1268 q 463 1279 427 1268 q 538 1315 499 1290 l 538 1153 q 466 1114 505 1126 q 374 1101 428 1101 z "},"J":{"ha":482,"x_min":-15,"x_max":399,"o":"m -15 -116 q 64 28 42 -45 q 85 210 85 101 l 85 1028 l 399 1028 l 399 222 q 349 -26 399 86 q 181 -247 299 -137 l -15 -116 z "},"Ĵ":{"ha":482,"x_min":-92,"x_max":576,"o":"m -15 -116 q 64 28 42 -45 q 85 210 85 101 l 85 1028 l 399 1028 l 399 222 q 349 -26 399 86 q 181 -247 299 -137 l -15 -116 m 576 1101 l 342 1101 l 242 1213 l 141 1101 l -92 1101 l 114 1321 l 369 1321 l 576 1101 z "},"K":{"ha":1020,"x_min":83,"x_max":1059,"o":"m 718 0 l 462 389 l 399 389 l 399 0 l 83 0 l 83 1028 l 399 1028 l 399 660 l 461 660 l 697 1028 l 1027 1028 l 709 532 l 1059 0 l 718 0 z "},"Ķ":{"ha":1020,"x_min":83,"x_max":1059,"o":"m 718 0 l 462 389 l 399 389 l 399 0 l 83 0 l 83 1028 l 399 1028 l 399 660 l 461 660 l 697 1028 l 1027 1028 l 709 532 l 1059 0 l 718 0 m 537 -72 q 702 -195 702 -72 q 684 -283 702 -237 q 637 -360 665 -329 l 449 -360 q 493 -257 483 -300 q 400 -228 429 -251 q 372 -166 372 -205 q 537 -72 372 -72 z "},"L":{"ha":889,"x_min":83,"x_max":882,"o":"m 83 0 l 83 1028 l 399 1028 l 399 251 l 882 251 l 882 0 l 83 0 z "},"Ǉ":{"ha":1371,"x_min":83,"x_max":1288,"o":"m 83 0 l 83 1028 l 399 1028 l 399 251 l 882 251 l 882 0 l 83 0 m 874 -116 q 952 28 931 -45 q 974 210 974 101 l 974 1028 l 1288 1028 l 1288 222 q 1238 -26 1288 86 q 1070 -247 1188 -137 l 874 -116 z "},"Ĺ":{"ha":889,"x_min":83,"x_max":882,"o":"m 83 0 l 83 1028 l 399 1028 l 399 251 l 882 251 l 882 0 l 83 0 m 101 1101 l 235 1321 l 559 1321 l 379 1101 l 101 1101 z "},"Ľ":{"ha":889,"x_min":83,"x_max":882,"o":"m 83 0 l 83 1028 l 399 1028 l 399 251 l 882 251 l 882 0 l 83 0 m 572 792 q 590 944 585 872 q 594 1122 594 1016 l 792 1122 q 734 792 792 926 l 572 792 z "},"Ļ":{"ha":889,"x_min":83,"x_max":882,"o":"m 83 0 l 83 1028 l 399 1028 l 399 251 l 882 251 l 882 0 l 83 0 m 483 -72 q 648 -195 648 -72 q 630 -283 648 -237 q 583 -360 611 -329 l 394 -360 q 439 -257 429 -300 q 346 -228 375 -251 q 317 -166 317 -205 q 483 -72 317 -72 z "},"Ŀ":{"ha":889,"x_min":83,"x_max":882,"o":"m 83 0 l 83 1028 l 399 1028 l 399 251 l 882 251 l 882 0 l 83 0 m 678 493 q 495 640 495 493 q 678 786 495 786 q 862 640 862 786 q 678 493 862 493 z "},"Ḷ":{"ha":889,"x_min":83,"x_max":882,"o":"m 83 0 l 83 1028 l 399 1028 l 399 251 l 882 251 l 882 0 l 83 0 m 483 -322 q 347 -289 392 -322 q 302 -197 302 -256 q 347 -105 302 -138 q 483 -72 392 -72 q 618 -105 574 -72 q 663 -197 663 -138 q 618 -289 663 -256 q 483 -322 574 -322 z "},"ǈ":{"ha":1346,"x_min":83,"x_max":1295,"o":"m 83 0 l 83 1028 l 399 1028 l 399 251 l 882 251 l 882 0 l 83 0 m 863 -201 q 941 -57 919 -131 q 963 125 963 16 l 963 764 l 1272 764 l 1272 136 q 1223 -109 1272 1 q 1057 -331 1174 -220 l 863 -201 m 1112 838 q 928 985 928 838 q 1112 1131 928 1131 q 1295 985 1295 1131 q 1112 838 1295 838 z "},"Ḻ":{"ha":889,"x_min":83,"x_max":882,"o":"m 83 0 l 83 1028 l 399 1028 l 399 251 l 882 251 l 882 0 l 83 0 m 186 -276 l 186 -103 l 779 -103 l 779 -276 l 186 -276 z "},"Ł":{"ha":896,"x_min":-40,"x_max":889,"o":"m 406 251 l 889 251 l 889 0 l 90 0 l 90 412 l 44 390 l -40 560 l 90 623 l 90 1028 l 406 1028 l 406 774 l 599 866 l 683 695 l 406 563 l 406 251 z "},"M":{"ha":1435,"x_min":86,"x_max":1349,"o":"m 964 1028 l 1349 1028 l 1349 0 l 1054 0 l 1054 631 l 846 153 l 589 153 l 380 606 l 380 0 l 86 0 l 86 1028 l 470 1028 l 722 465 l 964 1028 z "},"Ṃ":{"ha":1435,"x_min":86,"x_max":1349,"o":"m 964 1028 l 1349 1028 l 1349 0 l 1054 0 l 1054 631 l 846 153 l 589 153 l 380 606 l 380 0 l 86 0 l 86 1028 l 470 1028 l 722 465 l 964 1028 m 738 -322 q 602 -289 647 -322 q 558 -197 558 -256 q 602 -105 558 -138 q 738 -72 647 -72 q 874 -105 829 -72 q 919 -197 919 -138 q 874 -289 919 -256 q 738 -322 829 -322 z "},"N":{"ha":1179,"x_min":83,"x_max":1096,"o":"m 799 1028 l 1096 1028 l 1096 0 l 781 0 l 380 578 l 380 0 l 83 0 l 83 1028 l 399 1028 l 799 449 l 799 1028 z "},"Ǌ":{"ha":1661,"x_min":83,"x_max":1578,"o":"m 799 1028 l 1096 1028 l 1096 0 l 781 0 l 380 578 l 380 0 l 83 0 l 83 1028 l 399 1028 l 799 449 l 799 1028 m 1165 -116 q 1243 28 1221 -45 q 1265 210 1265 101 l 1265 1028 l 1578 1028 l 1578 222 q 1528 -26 1578 86 q 1360 -247 1478 -137 l 1165 -116 z "},"Ń":{"ha":1179,"x_min":83,"x_max":1096,"o":"m 799 1028 l 1096 1028 l 1096 0 l 781 0 l 380 578 l 380 0 l 83 0 l 83 1028 l 399 1028 l 799 449 l 799 1028 m 449 1101 l 583 1321 l 906 1321 l 726 1101 l 449 1101 z "},"Ň":{"ha":1179,"x_min":83,"x_max":1096,"o":"m 799 1028 l 1096 1028 l 1096 0 l 781 0 l 380 578 l 380 0 l 83 0 l 83 1028 l 399 1028 l 799 449 l 799 1028 m 690 1321 l 924 1321 l 717 1101 l 462 1101 l 256 1321 l 489 1321 l 590 1209 l 690 1321 z "},"Ņ":{"ha":1179,"x_min":83,"x_max":1096,"o":"m 799 1028 l 1096 1028 l 1096 0 l 781 0 l 380 578 l 380 0 l 83 0 l 83 1028 l 399 1028 l 799 449 l 799 1028 m 590 -72 q 755 -195 755 -72 q 736 -283 755 -237 q 690 -360 718 -329 l 501 -360 q 546 -257 536 -300 q 453 -228 482 -251 q 424 -166 424 -205 q 590 -72 424 -72 z "},"Ṅ":{"ha":1179,"x_min":83,"x_max":1096,"o":"m 799 1028 l 1096 1028 l 1096 0 l 781 0 l 380 578 l 380 0 l 83 0 l 83 1028 l 399 1028 l 799 449 l 799 1028 m 590 1090 q 454 1123 499 1090 q 409 1215 409 1156 q 454 1307 409 1274 q 590 1340 499 1340 q 725 1307 681 1340 q 770 1215 770 1274 q 725 1123 770 1156 q 590 1090 681 1090 z "},"Ṇ":{"ha":1179,"x_min":83,"x_max":1096,"o":"m 799 1028 l 1096 1028 l 1096 0 l 781 0 l 380 578 l 380 0 l 83 0 l 83 1028 l 399 1028 l 799 449 l 799 1028 m 590 -322 q 454 -289 499 -322 q 409 -197 409 -256 q 454 -105 409 -138 q 590 -72 499 -72 q 725 -105 681 -72 q 770 -197 770 -138 q 725 -289 770 -256 q 590 -322 681 -322 z "},"Ŋ":{"ha":1179,"x_min":83,"x_max":1096,"o":"m 1096 1028 l 1096 164 q 1075 -23 1096 60 q 1008 -181 1055 -106 q 881 -331 961 -256 l 688 -201 q 750 -107 726 -153 q 786 -8 774 -61 l 380 578 l 380 0 l 83 0 l 83 1028 l 399 1028 l 799 453 l 799 1028 l 1096 1028 z "},"ǋ":{"ha":1636,"x_min":83,"x_max":1585,"o":"m 799 1028 l 1096 1028 l 1096 0 l 781 0 l 380 578 l 380 0 l 83 0 l 83 1028 l 399 1028 l 799 449 l 799 1028 m 1153 -201 q 1232 -57 1210 -131 q 1253 125 1253 16 l 1253 764 l 1562 764 l 1562 136 q 1513 -109 1562 1 q 1347 -331 1464 -220 l 1153 -201 m 1402 838 q 1219 985 1219 838 q 1402 1131 1219 1131 q 1585 985 1585 1131 q 1402 838 1585 838 z "},"Ṉ":{"ha":1179,"x_min":83,"x_max":1096,"o":"m 799 1028 l 1096 1028 l 1096 0 l 781 0 l 380 578 l 380 0 l 83 0 l 83 1028 l 399 1028 l 799 449 l 799 1028 m 293 -276 l 293 -103 l 886 -103 l 886 -276 l 293 -276 z "},"Ñ":{"ha":1179,"x_min":83,"x_max":1096,"o":"m 799 1028 l 1096 1028 l 1096 0 l 781 0 l 380 578 l 380 0 l 83 0 l 83 1028 l 399 1028 l 799 449 l 799 1028 m 722 1101 q 654 1108 685 1101 q 578 1128 623 1115 q 509 1147 538 1140 q 450 1153 481 1153 q 368 1142 403 1153 q 293 1106 332 1131 l 293 1267 q 365 1308 326 1295 q 457 1321 403 1321 q 526 1314 494 1321 q 601 1293 558 1307 q 671 1274 644 1281 q 729 1268 699 1268 q 811 1279 776 1268 q 886 1315 847 1290 l 886 1153 q 815 1114 853 1126 q 722 1101 776 1101 z "},"O":{"ha":1228,"x_min":53,"x_max":1174,"o":"m 614 -14 q 316 48 442 -14 q 122 228 190 110 q 53 514 53 347 q 121 800 53 681 q 315 980 189 918 q 614 1042 441 1042 q 913 980 786 1042 q 1107 799 1039 917 q 1174 514 1174 680 q 1106 229 1174 348 q 912 48 1038 110 q 614 -14 785 -14 m 614 234 q 792 303 731 234 q 853 508 853 372 q 791 723 853 651 q 614 794 730 794 q 436 726 498 794 q 375 519 375 658 q 435 304 375 374 q 614 234 496 234 z "},"Ó":{"ha":1228,"x_min":53,"x_max":1174,"o":"m 614 -14 q 316 48 442 -14 q 122 228 190 110 q 53 514 53 347 q 121 800 53 681 q 315 980 189 918 q 614 1042 441 1042 q 913 980 786 1042 q 1107 799 1039 917 q 1174 514 1174 680 q 1106 229 1174 348 q 912 48 1038 110 q 614 -14 785 -14 m 614 234 q 792 303 731 234 q 853 508 853 372 q 791 723 853 651 q 614 794 730 794 q 436 726 498 794 q 375 519 375 658 q 435 304 375 374 q 614 234 496 234 m 473 1101 l 607 1321 l 931 1321 l 751 1101 l 473 1101 z "},"Ŏ":{"ha":1228,"x_min":53,"x_max":1174,"o":"m 614 -14 q 316 48 442 -14 q 122 228 190 110 q 53 514 53 347 q 121 800 53 681 q 315 980 189 918 q 614 1042 441 1042 q 913 980 786 1042 q 1107 799 1039 917 q 1174 514 1174 680 q 1106 229 1174 348 q 912 48 1038 110 q 614 -14 785 -14 m 614 234 q 792 303 731 234 q 853 508 853 372 q 791 723 853 651 q 614 794 730 794 q 436 726 498 794 q 375 519 375 658 q 435 304 375 374 q 614 234 496 234 m 614 1101 q 392 1161 471 1101 q 299 1321 313 1220 l 481 1321 q 614 1242 501 1242 q 747 1321 726 1242 l 929 1321 q 836 1161 915 1220 q 614 1101 757 1101 z "},"Ô":{"ha":1228,"x_min":53,"x_max":1174,"o":"m 614 -14 q 316 48 442 -14 q 122 228 190 110 q 53 514 53 347 q 121 800 53 681 q 315 980 189 918 q 614 1042 441 1042 q 913 980 786 1042 q 1107 799 1039 917 q 1174 514 1174 680 q 1106 229 1174 348 q 912 48 1038 110 q 614 -14 785 -14 m 614 234 q 792 303 731 234 q 853 508 853 372 q 791 723 853 651 q 614 794 730 794 q 436 726 498 794 q 375 519 375 658 q 435 304 375 374 q 614 234 496 234 m 948 1101 l 715 1101 l 614 1213 l 513 1101 l 280 1101 l 486 1321 l 742 1321 l 948 1101 z "},"Ố":{"ha":1228,"x_min":53,"x_max":1174,"o":"m 614 -14 q 316 48 442 -14 q 122 228 190 110 q 53 514 53 347 q 121 800 53 681 q 315 980 189 918 q 614 1042 441 1042 q 913 980 786 1042 q 1107 799 1039 917 q 1174 514 1174 680 q 1106 229 1174 348 q 912 48 1038 110 q 614 -14 785 -14 m 614 234 q 792 303 731 234 q 853 508 853 372 q 791 723 853 651 q 614 794 730 794 q 436 726 498 794 q 375 519 375 658 q 435 304 375 374 q 614 234 496 234 m 876 1433 l 1082 1433 l 973 1269 l 806 1269 l 876 1433 m 486 1290 l 742 1290 l 948 1101 l 715 1101 l 614 1198 l 513 1101 l 280 1101 l 486 1290 z "},"Ộ":{"ha":1228,"x_min":53,"x_max":1174,"o":"m 614 -14 q 316 48 442 -14 q 122 228 190 110 q 53 514 53 347 q 121 800 53 681 q 315 980 189 918 q 614 1042 441 1042 q 913 980 786 1042 q 1107 799 1039 917 q 1174 514 1174 680 q 1106 229 1174 348 q 912 48 1038 110 q 614 -14 785 -14 m 614 234 q 792 303 731 234 q 853 508 853 372 q 791 723 853 651 q 614 794 730 794 q 436 726 498 794 q 375 519 375 658 q 435 304 375 374 q 614 234 496 234 m 614 -322 q 478 -289 523 -322 q 433 -197 433 -256 q 478 -105 433 -138 q 614 -72 523 -72 q 750 -105 705 -72 q 794 -197 794 -138 q 750 -289 794 -256 q 614 -322 705 -322 m 948 1101 l 715 1101 l 614 1213 l 513 1101 l 280 1101 l 486 1321 l 742 1321 l 948 1101 z "},"Ồ":{"ha":1228,"x_min":53,"x_max":1174,"o":"m 614 -14 q 316 48 442 -14 q 122 228 190 110 q 53 514 53 347 q 121 800 53 681 q 315 980 189 918 q 614 1042 441 1042 q 913 980 786 1042 q 1107 799 1039 917 q 1174 514 1174 680 q 1106 229 1174 348 q 912 48 1038 110 q 614 -14 785 -14 m 614 234 q 792 303 731 234 q 853 508 853 372 q 791 723 853 651 q 614 794 730 794 q 436 726 498 794 q 375 519 375 658 q 435 304 375 374 q 614 234 496 234 m 1001 1269 l 834 1269 l 725 1433 l 931 1433 l 1001 1269 m 486 1290 l 742 1290 l 948 1101 l 715 1101 l 614 1198 l 513 1101 l 280 1101 l 486 1290 z "},"Ổ":{"ha":1228,"x_min":53,"x_max":1174,"o":"m 614 -14 q 316 48 442 -14 q 122 228 190 110 q 53 514 53 347 q 121 800 53 681 q 315 980 189 918 q 614 1042 441 1042 q 913 980 786 1042 q 1107 799 1039 917 q 1174 514 1174 680 q 1106 229 1174 348 q 912 48 1038 110 q 614 -14 785 -14 m 614 234 q 792 303 731 234 q 853 508 853 372 q 791 723 853 651 q 614 794 730 794 q 436 726 498 794 q 375 519 375 658 q 435 304 375 374 q 614 234 496 234 m 874 1475 q 1029 1453 979 1475 q 1079 1386 1079 1431 q 1068 1353 1079 1367 q 1041 1329 1057 1338 q 1000 1307 1026 1319 q 964 1288 976 1295 q 950 1269 952 1280 l 805 1269 q 827 1310 807 1295 q 885 1340 848 1325 q 917 1355 907 1349 q 926 1368 926 1360 q 850 1385 926 1385 q 712 1373 778 1385 l 712 1461 q 790 1471 744 1467 q 874 1475 836 1475 m 486 1290 l 742 1290 l 948 1101 l 715 1101 l 614 1198 l 513 1101 l 280 1101 l 486 1290 z "},"Ỗ":{"ha":1228,"x_min":53,"x_max":1174,"o":"m 614 -14 q 316 48 442 -14 q 122 228 190 110 q 53 514 53 347 q 121 800 53 681 q 315 980 189 918 q 614 1042 441 1042 q 913 980 786 1042 q 1107 799 1039 917 q 1174 514 1174 680 q 1106 229 1174 348 q 912 48 1038 110 q 614 -14 785 -14 m 614 234 q 792 303 731 234 q 853 508 853 372 q 791 723 853 651 q 614 794 730 794 q 436 726 498 794 q 375 519 375 658 q 435 304 375 374 q 614 234 496 234 m 761 1435 q 849 1445 808 1435 q 948 1481 890 1455 l 948 1363 q 857 1328 899 1336 q 758 1319 815 1319 q 684 1325 718 1319 q 596 1340 650 1330 q 526 1354 556 1349 q 467 1358 497 1358 q 378 1348 419 1358 q 280 1313 338 1338 l 280 1431 q 371 1466 328 1457 q 469 1475 414 1475 q 545 1469 510 1475 q 632 1453 581 1464 q 703 1439 674 1444 q 761 1435 732 1435 m 486 1290 l 742 1290 l 948 1101 l 715 1101 l 614 1198 l 513 1101 l 280 1101 l 486 1290 z "},"Ȍ":{"ha":1228,"x_min":53,"x_max":1174,"o":"m 614 -14 q 316 48 442 -14 q 122 228 190 110 q 53 514 53 347 q 121 800 53 681 q 315 980 189 918 q 614 1042 441 1042 q 913 980 786 1042 q 1107 799 1039 917 q 1174 514 1174 680 q 1106 229 1174 348 q 912 48 1038 110 q 614 -14 785 -14 m 614 234 q 792 303 731 234 q 853 508 853 372 q 791 723 853 651 q 614 794 730 794 q 436 726 498 794 q 375 519 375 658 q 435 304 375 374 q 614 234 496 234 m 344 1101 l 222 1321 l 457 1321 l 563 1101 l 344 1101 m 665 1101 l 543 1321 l 778 1321 l 884 1101 l 665 1101 z "},"Ö":{"ha":1228,"x_min":53,"x_max":1174,"o":"m 614 -14 q 316 48 442 -14 q 122 228 190 110 q 53 514 53 347 q 121 800 53 681 q 315 980 189 918 q 614 1042 441 1042 q 913 980 786 1042 q 1107 799 1039 917 q 1174 514 1174 680 q 1106 229 1174 348 q 912 48 1038 110 q 614 -14 785 -14 m 614 234 q 792 303 731 234 q 853 508 853 372 q 791 723 853 651 q 614 794 730 794 q 436 726 498 794 q 375 519 375 658 q 435 304 375 374 q 614 234 496 234 m 417 1090 q 300 1123 339 1090 q 262 1215 262 1155 q 300 1308 262 1276 q 417 1340 339 1340 q 533 1308 494 1340 q 571 1215 571 1276 q 533 1123 571 1155 q 417 1090 494 1090 m 811 1090 q 695 1123 733 1090 q 657 1215 657 1155 q 695 1308 657 1276 q 811 1340 733 1340 q 927 1308 889 1340 q 966 1215 966 1276 q 927 1123 966 1155 q 811 1090 889 1090 z "},"Ȫ":{"ha":1228,"x_min":53,"x_max":1174,"o":"m 614 -14 q 316 48 442 -14 q 122 228 190 110 q 53 514 53 347 q 121 800 53 681 q 315 980 189 918 q 614 1042 441 1042 q 913 980 786 1042 q 1107 799 1039 917 q 1174 514 1174 680 q 1106 229 1174 348 q 912 48 1038 110 q 614 -14 785 -14 m 614 234 q 792 303 731 234 q 853 508 853 372 q 791 723 853 651 q 614 794 730 794 q 436 726 498 794 q 375 519 375 658 q 435 304 375 374 q 614 234 496 234 m 417 1090 q 300 1123 339 1090 q 262 1215 262 1155 q 300 1308 262 1276 q 417 1340 339 1340 q 533 1308 494 1340 q 571 1215 571 1276 q 533 1123 571 1155 q 417 1090 494 1090 m 811 1090 q 695 1123 733 1090 q 657 1215 657 1155 q 695 1308 657 1276 q 811 1340 733 1340 q 927 1308 889 1340 q 966 1215 966 1276 q 927 1123 966 1155 q 811 1090 889 1090 m 317 1403 l 317 1576 l 910 1576 l 910 1403 l 317 1403 z "},"Ȱ":{"ha":1228,"x_min":53,"x_max":1174,"o":"m 614 -14 q 316 48 442 -14 q 122 228 190 110 q 53 514 53 347 q 121 800 53 681 q 315 980 189 918 q 614 1042 441 1042 q 913 980 786 1042 q 1107 799 1039 917 q 1174 514 1174 680 q 1106 229 1174 348 q 912 48 1038 110 q 614 -14 785 -14 m 614 234 q 792 303 731 234 q 853 508 853 372 q 791 723 853 651 q 614 794 730 794 q 436 726 498 794 q 375 519 375 658 q 435 304 375 374 q 614 234 496 234 m 614 1090 q 478 1123 523 1090 q 433 1215 433 1156 q 478 1307 433 1274 q 614 1340 523 1340 q 750 1307 705 1340 q 794 1215 794 1274 q 750 1123 794 1156 q 614 1090 705 1090 m 317 1403 l 317 1576 l 910 1576 l 910 1403 l 317 1403 z "},"Ọ":{"ha":1228,"x_min":53,"x_max":1174,"o":"m 614 -14 q 316 48 442 -14 q 122 228 190 110 q 53 514 53 347 q 121 800 53 681 q 315 980 189 918 q 614 1042 441 1042 q 913 980 786 1042 q 1107 799 1039 917 q 1174 514 1174 680 q 1106 229 1174 348 q 912 48 1038 110 q 614 -14 785 -14 m 614 234 q 792 303 731 234 q 853 508 853 372 q 791 723 853 651 q 614 794 730 794 q 436 726 498 794 q 375 519 375 658 q 435 304 375 374 q 614 234 496 234 m 614 -322 q 478 -289 523 -322 q 433 -197 433 -256 q 478 -105 433 -138 q 614 -72 523 -72 q 750 -105 705 -72 q 794 -197 794 -138 q 750 -289 794 -256 q 614 -322 705 -322 z "},"Ò":{"ha":1228,"x_min":53,"x_max":1174,"o":"m 614 -14 q 316 48 442 -14 q 122 228 190 110 q 53 514 53 347 q 121 800 53 681 q 315 980 189 918 q 614 1042 441 1042 q 913 980 786 1042 q 1107 799 1039 917 q 1174 514 1174 680 q 1106 229 1174 348 q 912 48 1038 110 q 614 -14 785 -14 m 614 234 q 792 303 731 234 q 853 508 853 372 q 791 723 853 651 q 614 794 730 794 q 436 726 498 794 q 375 519 375 658 q 435 304 375 374 q 614 234 496 234 m 475 1101 l 295 1321 l 619 1321 l 753 1101 l 475 1101 z "},"Ỏ":{"ha":1228,"x_min":53,"x_max":1174,"o":"m 614 -14 q 316 48 442 -14 q 122 228 190 110 q 53 514 53 347 q 121 800 53 681 q 315 980 189 918 q 614 1042 441 1042 q 913 980 786 1042 q 1107 799 1039 917 q 1174 514 1174 680 q 1106 229 1174 348 q 912 48 1038 110 q 614 -14 785 -14 m 614 234 q 792 303 731 234 q 853 508 853 372 q 791 723 853 651 q 614 794 730 794 q 436 726 498 794 q 375 519 375 658 q 435 304 375 374 q 614 234 496 234 m 542 1101 q 565 1149 544 1132 q 622 1183 585 1166 q 653 1200 643 1193 q 663 1215 663 1207 q 586 1236 663 1236 q 449 1222 517 1236 l 449 1325 q 526 1336 481 1332 q 610 1340 571 1340 q 765 1315 715 1340 q 815 1238 815 1289 q 795 1186 815 1206 q 736 1146 774 1167 q 700 1122 711 1131 q 686 1101 688 1113 l 542 1101 z "},"Ơ":{"ha":1228,"x_min":53,"x_max":1186,"o":"m 1024 903 q 1136 737 1097 835 q 1174 514 1174 639 q 1107 229 1174 348 q 913 48 1039 110 q 614 -14 786 -14 q 315 48 441 -14 q 121 228 189 110 q 53 514 53 347 q 121 800 53 681 q 315 980 189 918 q 614 1042 441 1042 q 741 1034 665 1042 q 788 1031 753 1033 q 847 1028 822 1028 q 952 1052 919 1028 q 985 1136 985 1076 q 976 1233 985 1177 l 1173 1233 q 1184 1180 1181 1205 q 1186 1126 1186 1155 q 1144 976 1186 1032 q 1024 903 1101 920 m 614 234 q 792 303 731 234 q 853 508 853 372 q 791 723 853 651 q 614 794 730 794 q 436 726 498 794 q 375 519 375 658 q 435 304 375 374 q 614 234 496 234 z "},"Ớ":{"ha":1228,"x_min":53,"x_max":1186,"o":"m 1024 903 q 1136 737 1097 835 q 1174 514 1174 639 q 1107 229 1174 348 q 913 48 1039 110 q 614 -14 786 -14 q 315 48 441 -14 q 121 228 189 110 q 53 514 53 347 q 121 800 53 681 q 315 980 189 918 q 614 1042 441 1042 q 741 1034 665 1042 q 788 1031 753 1033 q 847 1028 822 1028 q 952 1052 919 1028 q 985 1136 985 1076 q 976 1233 985 1177 l 1173 1233 q 1184 1180 1181 1205 q 1186 1126 1186 1155 q 1144 976 1186 1032 q 1024 903 1101 920 m 614 234 q 792 303 731 234 q 853 508 853 372 q 791 723 853 651 q 614 794 730 794 q 436 726 498 794 q 375 519 375 658 q 435 304 375 374 q 614 234 496 234 m 473 1101 l 607 1321 l 931 1321 l 751 1101 l 473 1101 z "},"Ợ":{"ha":1228,"x_min":53,"x_max":1186,"o":"m 1024 903 q 1136 737 1097 835 q 1174 514 1174 639 q 1107 229 1174 348 q 913 48 1039 110 q 614 -14 786 -14 q 315 48 441 -14 q 121 228 189 110 q 53 514 53 347 q 121 800 53 681 q 315 980 189 918 q 614 1042 441 1042 q 741 1034 665 1042 q 788 1031 753 1033 q 847 1028 822 1028 q 952 1052 919 1028 q 985 1136 985 1076 q 976 1233 985 1177 l 1173 1233 q 1184 1180 1181 1205 q 1186 1126 1186 1155 q 1144 976 1186 1032 q 1024 903 1101 920 m 614 234 q 792 303 731 234 q 853 508 853 372 q 791 723 853 651 q 614 794 730 794 q 436 726 498 794 q 375 519 375 658 q 435 304 375 374 q 614 234 496 234 m 614 -322 q 478 -289 523 -322 q 433 -197 433 -256 q 478 -105 433 -138 q 614 -72 523 -72 q 750 -105 705 -72 q 794 -197 794 -138 q 750 -289 794 -256 q 614 -322 705 -322 z "},"Ờ":{"ha":1228,"x_min":53,"x_max":1186,"o":"m 1024 903 q 1136 737 1097 835 q 1174 514 1174 639 q 1107 229 1174 348 q 913 48 1039 110 q 614 -14 786 -14 q 315 48 441 -14 q 121 228 189 110 q 53 514 53 347 q 121 800 53 681 q 315 980 189 918 q 614 1042 441 1042 q 741 1034 665 1042 q 788 1031 753 1033 q 847 1028 822 1028 q 952 1052 919 1028 q 985 1136 985 1076 q 976 1233 985 1177 l 1173 1233 q 1184 1180 1181 1205 q 1186 1126 1186 1155 q 1144 976 1186 1032 q 1024 903 1101 920 m 614 234 q 792 303 731 234 q 853 508 853 372 q 791 723 853 651 q 614 794 730 794 q 436 726 498 794 q 375 519 375 658 q 435 304 375 374 q 614 234 496 234 m 475 1101 l 295 1321 l 619 1321 l 753 1101 l 475 1101 z "},"Ở":{"ha":1228,"x_min":53,"x_max":1186,"o":"m 1024 903 q 1136 737 1097 835 q 1174 514 1174 639 q 1107 229 1174 348 q 913 48 1039 110 q 614 -14 786 -14 q 315 48 441 -14 q 121 228 189 110 q 53 514 53 347 q 121 800 53 681 q 315 980 189 918 q 614 1042 441 1042 q 741 1034 665 1042 q 788 1031 753 1033 q 847 1028 822 1028 q 952 1052 919 1028 q 985 1136 985 1076 q 976 1233 985 1177 l 1173 1233 q 1184 1180 1181 1205 q 1186 1126 1186 1155 q 1144 976 1186 1032 q 1024 903 1101 920 m 614 234 q 792 303 731 234 q 853 508 853 372 q 791 723 853 651 q 614 794 730 794 q 436 726 498 794 q 375 519 375 658 q 435 304 375 374 q 614 234 496 234 m 542 1101 q 565 1149 544 1132 q 622 1183 585 1166 q 653 1200 643 1193 q 663 1215 663 1207 q 586 1236 663 1236 q 449 1222 517 1236 l 449 1325 q 526 1336 481 1332 q 610 1340 571 1340 q 765 1315 715 1340 q 815 1238 815 1289 q 795 1186 815 1206 q 736 1146 774 1167 q 700 1122 711 1131 q 686 1101 688 1113 l 542 1101 z "},"Ỡ":{"ha":1228,"x_min":53,"x_max":1186,"o":"m 744 1101 q 677 1108 708 1101 q 602 1128 647 1115 q 534 1147 562 1141 q 477 1153 507 1153 q 397 1142 432 1153 q 324 1106 362 1131 l 324 1267 q 394 1308 356 1295 q 484 1321 431 1321 q 552 1314 520 1321 q 626 1293 583 1307 q 693 1274 667 1281 q 750 1268 720 1268 q 831 1279 796 1268 q 903 1315 865 1290 l 903 1153 q 834 1114 872 1126 q 744 1101 797 1101 m 1024 903 q 1136 737 1097 835 q 1174 514 1174 639 q 1107 229 1174 348 q 913 48 1039 110 q 614 -14 786 -14 q 315 48 441 -14 q 121 228 189 110 q 53 514 53 347 q 121 800 53 681 q 315 980 189 918 q 614 1042 441 1042 q 741 1034 665 1042 q 788 1031 753 1033 q 847 1028 822 1028 q 952 1052 919 1028 q 985 1136 985 1076 q 976 1233 985 1177 l 1173 1233 q 1184 1180 1181 1205 q 1186 1126 1186 1155 q 1144 976 1186 1032 q 1024 903 1101 920 m 614 234 q 792 303 731 234 q 853 508 853 372 q 791 723 853 651 q 614 794 730 794 q 436 726 498 794 q 375 519 375 658 q 435 304 375 374 q 614 234 496 234 z "},"Ő":{"ha":1228,"x_min":53,"x_max":1174,"o":"m 614 -14 q 316 48 442 -14 q 122 228 190 110 q 53 514 53 347 q 121 800 53 681 q 315 980 189 918 q 614 1042 441 1042 q 913 980 786 1042 q 1107 799 1039 917 q 1174 514 1174 680 q 1106 229 1174 348 q 912 48 1038 110 q 614 -14 785 -14 m 614 234 q 792 303 731 234 q 853 508 853 372 q 791 723 853 651 q 614 794 730 794 q 436 726 498 794 q 375 519 375 658 q 435 304 375 374 q 614 234 496 234 m 344 1101 l 450 1321 l 685 1321 l 563 1101 l 344 1101 m 665 1101 l 771 1321 l 1006 1321 l 884 1101 l 665 1101 z "},"Ȏ":{"ha":1228,"x_min":53,"x_max":1174,"o":"m 614 -14 q 316 48 442 -14 q 122 228 190 110 q 53 514 53 347 q 121 800 53 681 q 315 980 189 918 q 614 1042 441 1042 q 913 980 786 1042 q 1107 799 1039 917 q 1174 514 1174 680 q 1106 229 1174 348 q 912 48 1038 110 q 614 -14 785 -14 m 614 234 q 792 303 731 234 q 853 508 853 372 q 791 723 853 651 q 614 794 730 794 q 436 726 498 794 q 375 519 375 658 q 435 304 375 374 q 614 234 496 234 m 299 1101 q 392 1261 313 1202 q 614 1321 471 1321 q 836 1261 757 1321 q 929 1101 915 1202 l 747 1101 q 614 1181 726 1181 q 481 1101 501 1181 l 299 1101 z "},"Ō":{"ha":1228,"x_min":53,"x_max":1174,"o":"m 614 -14 q 316 48 442 -14 q 122 228 190 110 q 53 514 53 347 q 121 800 53 681 q 315 980 189 918 q 614 1042 441 1042 q 913 980 786 1042 q 1107 799 1039 917 q 1174 514 1174 680 q 1106 229 1174 348 q 912 48 1038 110 q 614 -14 785 -14 m 614 234 q 792 303 731 234 q 853 508 853 372 q 791 723 853 651 q 614 794 730 794 q 436 726 498 794 q 375 519 375 658 q 435 304 375 374 q 614 234 496 234 m 317 1126 l 317 1298 l 910 1298 l 910 1126 l 317 1126 z "},"Ṓ":{"ha":1228,"x_min":53,"x_max":1174,"o":"m 614 -14 q 316 48 442 -14 q 122 228 190 110 q 53 514 53 347 q 121 800 53 681 q 315 980 189 918 q 614 1042 441 1042 q 913 980 786 1042 q 1107 799 1039 917 q 1174 514 1174 680 q 1106 229 1174 348 q 912 48 1038 110 q 614 -14 785 -14 m 614 234 q 792 303 731 234 q 853 508 853 372 q 791 723 853 651 q 614 794 730 794 q 436 726 498 794 q 375 519 375 658 q 435 304 375 374 q 614 234 496 234 m 456 1379 l 590 1540 l 951 1540 l 772 1379 l 456 1379 m 317 1126 l 317 1298 l 910 1298 l 910 1126 l 317 1126 z "},"Ṑ":{"ha":1228,"x_min":53,"x_max":1174,"o":"m 614 -14 q 316 48 442 -14 q 122 228 190 110 q 53 514 53 347 q 121 800 53 681 q 315 980 189 918 q 614 1042 441 1042 q 913 980 786 1042 q 1107 799 1039 917 q 1174 514 1174 680 q 1106 229 1174 348 q 912 48 1038 110 q 614 -14 785 -14 m 614 234 q 792 303 731 234 q 853 508 853 372 q 791 723 853 651 q 614 794 730 794 q 436 726 498 794 q 375 519 375 658 q 435 304 375 374 q 614 234 496 234 m 456 1379 l 276 1540 l 638 1540 l 772 1379 l 456 1379 m 317 1126 l 317 1298 l 910 1298 l 910 1126 l 317 1126 z "},"Ǫ":{"ha":1228,"x_min":53,"x_max":1174,"o":"m 614 1042 q 913 980 786 1042 q 1107 799 1039 917 q 1174 514 1174 680 q 1124 264 1174 369 q 988 96 1074 159 q 794 7 903 33 q 598 -140 598 -43 q 697 -206 598 -206 q 788 -190 738 -206 l 788 -299 q 651 -319 724 -319 q 483 -278 540 -319 q 427 -163 427 -236 q 521 -9 427 -67 q 270 72 376 6 q 109 250 165 138 q 53 514 53 362 q 121 800 53 681 q 315 980 189 918 q 614 1042 441 1042 m 614 234 q 792 303 731 234 q 853 508 853 372 q 791 723 853 651 q 614 794 730 794 q 436 726 498 794 q 375 519 375 658 q 435 304 375 374 q 614 234 496 234 z "},"Ø":{"ha":1228,"x_min":53,"x_max":1174,"o":"m 1040 888 q 1140 726 1106 820 q 1174 514 1174 631 q 1106 229 1174 348 q 912 48 1038 110 q 614 -14 785 -14 q 313 49 439 -14 l 232 -43 l 115 57 l 188 140 q 88 302 122 208 q 53 514 53 396 q 121 800 53 681 q 315 980 189 918 q 614 1042 441 1042 q 915 978 788 1042 l 995 1071 l 1113 971 l 1040 888 m 375 519 q 394 378 375 436 l 733 769 q 614 794 683 794 q 436 726 498 794 q 375 519 375 658 m 614 234 q 792 303 731 234 q 853 508 853 372 q 833 649 853 590 l 494 258 q 614 234 542 234 z "},"Ǿ":{"ha":1228,"x_min":53,"x_max":1174,"o":"m 1040 888 q 1140 726 1106 820 q 1174 514 1174 631 q 1106 229 1174 348 q 912 48 1038 110 q 614 -14 785 -14 q 313 49 439 -14 l 232 -43 l 115 57 l 188 140 q 88 302 122 208 q 53 514 53 396 q 121 800 53 681 q 315 980 189 918 q 614 1042 441 1042 q 915 978 788 1042 l 995 1071 l 1113 971 l 1040 888 m 375 519 q 394 378 375 436 l 733 769 q 614 794 683 794 q 436 726 498 794 q 375 519 375 658 m 614 234 q 792 303 731 234 q 853 508 853 372 q 833 649 853 590 l 494 258 q 614 234 542 234 m 471 1101 l 605 1321 l 928 1321 l 749 1101 l 471 1101 z "},"Õ":{"ha":1228,"x_min":53,"x_max":1174,"o":"m 614 -14 q 316 48 442 -14 q 122 228 190 110 q 53 514 53 347 q 121 800 53 681 q 315 980 189 918 q 614 1042 441 1042 q 913 980 786 1042 q 1107 799 1039 917 q 1174 514 1174 680 q 1106 229 1174 348 q 912 48 1038 110 q 614 -14 785 -14 m 614 234 q 792 303 731 234 q 853 508 853 372 q 791 723 853 651 q 614 794 730 794 q 436 726 498 794 q 375 519 375 658 q 435 304 375 374 q 614 234 496 234 m 747 1101 q 678 1108 710 1101 q 602 1128 647 1115 q 533 1147 562 1140 q 474 1153 505 1153 q 392 1142 428 1153 q 317 1106 356 1131 l 317 1267 q 389 1308 351 1295 q 481 1321 428 1321 q 550 1314 518 1321 q 626 1293 583 1307 q 695 1274 668 1281 q 753 1268 723 1268 q 836 1279 800 1268 q 910 1315 872 1290 l 910 1153 q 839 1114 878 1126 q 747 1101 801 1101 z "},"Ṍ":{"ha":1228,"x_min":53,"x_max":1174,"o":"m 614 -14 q 316 48 442 -14 q 122 228 190 110 q 53 514 53 347 q 121 800 53 681 q 315 980 189 918 q 614 1042 441 1042 q 913 980 786 1042 q 1107 799 1039 917 q 1174 514 1174 680 q 1106 229 1174 348 q 912 48 1038 110 q 614 -14 785 -14 m 614 234 q 792 303 731 234 q 853 508 853 372 q 791 723 853 651 q 614 794 730 794 q 436 726 498 794 q 375 519 375 658 q 435 304 375 374 q 614 234 496 234 m 456 1379 l 590 1540 l 951 1540 l 772 1379 l 456 1379 m 747 1101 q 678 1108 710 1101 q 602 1128 647 1115 q 533 1147 562 1140 q 474 1153 505 1153 q 392 1142 428 1153 q 317 1106 356 1131 l 317 1267 q 389 1308 351 1295 q 481 1321 428 1321 q 550 1314 518 1321 q 626 1293 583 1307 q 695 1274 668 1281 q 753 1268 723 1268 q 836 1279 800 1268 q 910 1315 872 1290 l 910 1153 q 839 1114 878 1126 q 747 1101 801 1101 z "},"Ṏ":{"ha":1228,"x_min":53,"x_max":1174,"o":"m 614 -14 q 316 48 442 -14 q 122 228 190 110 q 53 514 53 347 q 121 800 53 681 q 315 980 189 918 q 614 1042 441 1042 q 913 980 786 1042 q 1107 799 1039 917 q 1174 514 1174 680 q 1106 229 1174 348 q 912 48 1038 110 q 614 -14 785 -14 m 614 234 q 792 303 731 234 q 853 508 853 372 q 791 723 853 651 q 614 794 730 794 q 436 726 498 794 q 375 519 375 658 q 435 304 375 374 q 614 234 496 234 m 747 1101 q 678 1108 710 1101 q 602 1128 647 1115 q 533 1147 562 1140 q 474 1153 505 1153 q 392 1142 428 1153 q 317 1106 356 1131 l 317 1267 q 389 1308 351 1295 q 481 1321 428 1321 q 550 1314 518 1321 q 626 1293 583 1307 q 695 1274 668 1281 q 753 1268 723 1268 q 836 1279 800 1268 q 910 1315 872 1290 l 910 1153 q 839 1114 878 1126 q 747 1101 801 1101 m 417 1368 q 300 1400 339 1368 q 262 1493 262 1433 q 300 1586 262 1553 q 417 1618 339 1618 q 533 1586 494 1618 q 571 1493 571 1553 q 533 1400 571 1433 q 417 1368 494 1368 m 811 1368 q 695 1400 733 1368 q 657 1493 657 1433 q 695 1586 657 1553 q 811 1618 733 1618 q 927 1586 889 1618 q 966 1493 966 1553 q 927 1400 966 1433 q 811 1368 889 1368 z "},"Ȭ":{"ha":1228,"x_min":53,"x_max":1174,"o":"m 614 -14 q 316 48 442 -14 q 122 228 190 110 q 53 514 53 347 q 121 800 53 681 q 315 980 189 918 q 614 1042 441 1042 q 913 980 786 1042 q 1107 799 1039 917 q 1174 514 1174 680 q 1106 229 1174 348 q 912 48 1038 110 q 614 -14 785 -14 m 614 234 q 792 303 731 234 q 853 508 853 372 q 791 723 853 651 q 614 794 730 794 q 436 726 498 794 q 375 519 375 658 q 435 304 375 374 q 614 234 496 234 m 747 1101 q 678 1108 710 1101 q 602 1128 647 1115 q 533 1147 562 1140 q 474 1153 505 1153 q 392 1142 428 1153 q 317 1106 356 1131 l 317 1267 q 389 1308 351 1295 q 481 1321 428 1321 q 550 1314 518 1321 q 626 1293 583 1307 q 695 1274 668 1281 q 753 1268 723 1268 q 836 1279 800 1268 q 910 1315 872 1290 l 910 1153 q 839 1114 878 1126 q 747 1101 801 1101 m 317 1403 l 317 1576 l 910 1576 l 910 1403 l 317 1403 z "},"Œ":{"ha":1628,"x_min":53,"x_max":1574,"o":"m 1574 240 l 1574 0 l 976 0 q 900 -2 942 0 q 847 -5 859 -4 q 739 -9 771 -9 q 351 45 501 -9 q 127 214 201 99 q 53 514 53 328 q 224 909 53 782 q 732 1037 394 1037 q 849 1033 769 1037 q 976 1028 924 1028 l 1567 1028 l 1567 788 l 1072 788 l 1072 644 l 1494 644 l 1494 404 l 1072 404 l 1072 240 l 1574 240 m 761 784 q 662 787 728 787 q 500 759 563 787 q 406 671 437 731 q 374 512 374 610 q 406 356 374 415 q 500 268 437 296 q 662 241 563 241 q 761 243 728 241 l 761 784 z "},"P":{"ha":1007,"x_min":83,"x_max":958,"o":"m 83 1007 q 444 1042 265 1042 q 832 948 705 1042 q 958 656 958 855 q 836 368 958 465 q 480 271 715 271 l 438 272 q 399 272 424 272 l 399 0 l 83 0 l 83 1007 m 483 494 q 580 510 542 494 q 636 561 617 526 q 654 656 654 596 q 611 779 654 741 q 474 817 568 817 q 399 812 431 817 l 399 500 q 483 494 438 494 z "},"Þ":{"ha":1014,"x_min":83,"x_max":958,"o":"m 83 1028 l 399 1028 l 399 912 l 424 913 q 450 913 433 913 q 833 820 708 913 q 958 528 958 726 q 837 240 958 337 q 483 142 716 142 l 438 143 q 399 144 424 144 l 399 0 l 83 0 l 83 1028 m 483 367 q 613 403 572 367 q 654 527 654 440 q 611 651 654 613 q 474 690 569 690 q 399 684 431 690 l 399 371 q 483 367 442 367 z "},"Q":{"ha":1228,"x_min":53,"x_max":1174,"o":"m 1174 514 q 1088 201 1174 328 q 831 32 1001 75 q 1166 -29 985 -6 l 1117 -267 q 479 -93 713 -204 q 149 166 244 18 q 53 503 53 313 q 121 797 53 676 q 315 980 189 917 q 614 1042 441 1042 q 913 980 786 1042 q 1107 799 1039 917 q 1174 514 1174 680 m 375 519 q 435 303 375 372 q 614 234 494 234 q 792 303 731 234 q 853 508 853 372 q 791 723 853 651 q 614 794 730 794 q 436 726 498 794 q 375 519 375 658 z "},"R":{"ha":1042,"x_min":83,"x_max":1045,"o":"m 701 0 l 463 344 l 392 346 l 392 0 l 83 0 l 83 998 q 267 1030 165 1017 q 456 1042 369 1042 q 825 956 701 1042 q 949 694 949 871 q 901 516 949 590 q 765 399 853 442 l 1045 0 l 701 0 m 392 574 q 494 567 442 567 q 616 597 576 567 q 656 694 656 626 q 614 790 656 758 q 489 821 572 821 q 392 812 445 821 l 392 574 z "},"Ŕ":{"ha":1042,"x_min":83,"x_max":1045,"o":"m 701 0 l 463 344 l 392 346 l 392 0 l 83 0 l 83 998 q 267 1030 165 1017 q 456 1042 369 1042 q 825 956 701 1042 q 949 694 949 871 q 901 516 949 590 q 765 399 853 442 l 1045 0 l 701 0 m 392 574 q 494 567 442 567 q 616 597 576 567 q 656 694 656 626 q 614 790 656 758 q 489 821 572 821 q 392 812 445 821 l 392 574 m 381 1101 l 515 1321 l 839 1321 l 659 1101 l 381 1101 z "},"Ř":{"ha":1042,"x_min":83,"x_max":1045,"o":"m 701 0 l 463 344 l 392 346 l 392 0 l 83 0 l 83 998 q 267 1030 165 1017 q 456 1042 369 1042 q 825 956 701 1042 q 949 694 949 871 q 901 516 949 590 q 765 399 853 442 l 1045 0 l 701 0 m 392 574 q 494 567 442 567 q 616 597 576 567 q 656 694 656 626 q 614 790 656 758 q 489 821 572 821 q 392 812 445 821 l 392 574 m 623 1321 l 856 1321 l 650 1101 l 394 1101 l 188 1321 l 422 1321 l 522 1209 l 623 1321 z "},"Ŗ":{"ha":1042,"x_min":83,"x_max":1045,"o":"m 701 0 l 463 344 l 392 346 l 392 0 l 83 0 l 83 998 q 267 1030 165 1017 q 456 1042 369 1042 q 825 956 701 1042 q 949 694 949 871 q 901 516 949 590 q 765 399 853 442 l 1045 0 l 701 0 m 392 574 q 494 567 442 567 q 616 597 576 567 q 656 694 656 626 q 614 790 656 758 q 489 821 572 821 q 392 812 445 821 l 392 574 m 544 -72 q 710 -195 710 -72 q 691 -283 710 -237 q 644 -360 673 -329 l 456 -360 q 501 -257 491 -300 q 408 -228 437 -251 q 379 -166 379 -205 q 544 -72 379 -72 z "},"Ȑ":{"ha":1042,"x_min":83,"x_max":1045,"o":"m 701 0 l 463 344 l 392 346 l 392 0 l 83 0 l 83 998 q 267 1030 165 1017 q 456 1042 369 1042 q 825 956 701 1042 q 949 694 949 871 q 901 516 949 590 q 765 399 853 442 l 1045 0 l 701 0 m 392 574 q 494 567 442 567 q 616 597 576 567 q 656 694 656 626 q 614 790 656 758 q 489 821 572 821 q 392 812 445 821 l 392 574 m 252 1101 l 131 1321 l 365 1321 l 472 1101 l 252 1101 m 573 1101 l 451 1321 l 686 1321 l 792 1101 l 573 1101 z "},"Ṛ":{"ha":1042,"x_min":83,"x_max":1045,"o":"m 701 0 l 463 344 l 392 346 l 392 0 l 83 0 l 83 998 q 267 1030 165 1017 q 456 1042 369 1042 q 825 956 701 1042 q 949 694 949 871 q 901 516 949 590 q 765 399 853 442 l 1045 0 l 701 0 m 392 574 q 494 567 442 567 q 616 597 576 567 q 656 694 656 626 q 614 790 656 758 q 489 821 572 821 q 392 812 445 821 l 392 574 m 544 -322 q 409 -289 453 -322 q 364 -197 364 -256 q 409 -105 364 -138 q 544 -72 453 -72 q 680 -105 635 -72 q 725 -197 725 -138 q 680 -289 725 -256 q 544 -322 635 -322 z "},"Ȓ":{"ha":1042,"x_min":83,"x_max":1045,"o":"m 701 0 l 463 344 l 392 346 l 392 0 l 83 0 l 83 998 q 267 1030 165 1017 q 456 1042 369 1042 q 825 956 701 1042 q 949 694 949 871 q 901 516 949 590 q 765 399 853 442 l 1045 0 l 701 0 m 392 574 q 494 567 442 567 q 616 597 576 567 q 656 694 656 626 q 614 790 656 758 q 489 821 572 821 q 392 812 445 821 l 392 574 m 207 1101 q 300 1261 222 1202 q 522 1321 379 1321 q 744 1261 665 1321 q 838 1101 823 1202 l 655 1101 q 522 1181 635 1181 q 390 1101 410 1181 l 207 1101 z "},"Ṟ":{"ha":1042,"x_min":83,"x_max":1045,"o":"m 701 0 l 463 344 l 392 346 l 392 0 l 83 0 l 83 998 q 267 1030 165 1017 q 456 1042 369 1042 q 825 956 701 1042 q 949 694 949 871 q 901 516 949 590 q 765 399 853 442 l 1045 0 l 701 0 m 392 574 q 494 567 442 567 q 616 597 576 567 q 656 694 656 626 q 614 790 656 758 q 489 821 572 821 q 392 812 445 821 l 392 574 m 248 -276 l 248 -103 l 841 -103 l 841 -276 l 248 -276 z "},"S":{"ha":900,"x_min":37,"x_max":863,"o":"m 398 -14 q 67 33 217 -14 l 67 281 q 228 245 135 259 q 399 231 322 231 q 518 250 485 231 q 552 303 552 268 q 543 335 552 322 q 509 358 534 348 q 438 379 485 369 l 342 401 q 111 510 185 435 q 37 709 37 585 q 161 956 37 870 q 530 1042 285 1042 q 804 1010 683 1042 l 804 763 q 684 787 754 778 q 544 797 613 797 q 391 777 435 797 q 348 723 348 758 q 356 694 348 706 q 383 674 363 683 q 441 656 403 665 l 537 634 q 786 521 708 597 q 863 322 863 445 q 807 143 863 219 q 647 27 751 67 q 398 -14 542 -14 z "},"Ś":{"ha":900,"x_min":37,"x_max":863,"o":"m 398 -14 q 67 33 217 -14 l 67 281 q 228 245 135 259 q 399 231 322 231 q 518 250 485 231 q 552 303 552 268 q 543 335 552 322 q 509 358 534 348 q 438 379 485 369 l 342 401 q 111 510 185 435 q 37 709 37 585 q 161 956 37 870 q 530 1042 285 1042 q 804 1010 683 1042 l 804 763 q 684 787 754 778 q 544 797 613 797 q 391 777 435 797 q 348 723 348 758 q 356 694 348 706 q 383 674 363 683 q 441 656 403 665 l 537 634 q 786 521 708 597 q 863 322 863 445 q 807 143 863 219 q 647 27 751 67 q 398 -14 542 -14 m 319 1101 l 453 1321 l 776 1321 l 597 1101 l 319 1101 z "},"Ṥ":{"ha":900,"x_min":37,"x_max":863,"o":"m 398 -14 q 67 33 217 -14 l 67 281 q 228 245 135 259 q 399 231 322 231 q 518 250 485 231 q 552 303 552 268 q 543 335 552 322 q 509 358 534 348 q 438 379 485 369 l 342 401 q 111 510 185 435 q 37 709 37 585 q 161 956 37 870 q 530 1042 285 1042 q 804 1010 683 1042 l 804 763 q 684 787 754 778 q 544 797 613 797 q 391 777 435 797 q 348 723 348 758 q 356 694 348 706 q 383 674 363 683 q 441 656 403 665 l 537 634 q 786 521 708 597 q 863 322 863 445 q 807 143 863 219 q 647 27 751 67 q 398 -14 542 -14 m 251 1293 q 143 1319 178 1293 q 108 1393 108 1346 q 143 1467 108 1440 q 251 1493 178 1493 q 360 1467 324 1493 q 396 1393 396 1440 q 360 1319 396 1346 q 251 1293 325 1293 m 319 1101 l 453 1321 l 776 1321 l 597 1101 l 319 1101 z "},"Š":{"ha":900,"x_min":37,"x_max":863,"o":"m 398 -14 q 67 33 217 -14 l 67 281 q 228 245 135 259 q 399 231 322 231 q 518 250 485 231 q 552 303 552 268 q 543 335 552 322 q 509 358 534 348 q 438 379 485 369 l 342 401 q 111 510 185 435 q 37 709 37 585 q 161 956 37 870 q 530 1042 285 1042 q 804 1010 683 1042 l 804 763 q 684 787 754 778 q 544 797 613 797 q 391 777 435 797 q 348 723 348 758 q 356 694 348 706 q 383 674 363 683 q 441 656 403 665 l 537 634 q 786 521 708 597 q 863 322 863 445 q 807 143 863 219 q 647 27 751 67 q 398 -14 542 -14 m 560 1321 l 794 1321 l 588 1101 l 332 1101 l 126 1321 l 359 1321 l 460 1209 l 560 1321 z "},"Ṧ":{"ha":900,"x_min":37,"x_max":863,"o":"m 398 -14 q 67 33 217 -14 l 67 281 q 228 245 135 259 q 399 231 322 231 q 518 250 485 231 q 552 303 552 268 q 543 335 552 322 q 509 358 534 348 q 438 379 485 369 l 342 401 q 111 510 185 435 q 37 709 37 585 q 161 956 37 870 q 530 1042 285 1042 q 804 1010 683 1042 l 804 763 q 684 787 754 778 q 544 797 613 797 q 391 777 435 797 q 348 723 348 758 q 356 694 348 706 q 383 674 363 683 q 441 656 403 665 l 537 634 q 786 521 708 597 q 863 322 863 445 q 807 143 863 219 q 647 27 751 67 q 398 -14 542 -14 m 460 1349 q 351 1375 387 1349 q 316 1449 316 1401 q 351 1522 316 1496 q 460 1549 387 1549 q 568 1522 533 1549 q 603 1449 603 1496 q 568 1375 603 1401 q 460 1349 533 1349 m 560 1321 l 794 1321 l 588 1101 l 332 1101 l 126 1321 l 359 1321 l 460 1209 l 560 1321 z "},"Ş":{"ha":900,"x_min":37,"x_max":863,"o":"m 863 322 q 821 164 863 233 q 700 51 779 95 q 510 -7 620 8 l 510 -52 q 610 -95 577 -62 q 644 -181 644 -128 q 589 -283 644 -246 q 427 -319 535 -319 q 275 -298 347 -319 l 275 -192 q 342 -207 306 -202 q 412 -212 379 -212 q 472 -203 453 -212 q 492 -171 492 -193 q 472 -137 492 -147 q 412 -126 452 -126 l 372 -126 l 372 -14 q 67 33 205 -10 l 67 281 q 228 245 135 259 q 399 231 322 231 q 518 250 485 231 q 552 303 552 268 q 543 335 552 322 q 509 358 534 348 q 438 379 485 369 l 342 401 q 111 510 185 435 q 37 709 37 585 q 161 956 37 870 q 530 1042 285 1042 q 804 1010 683 1042 l 804 763 q 684 787 754 778 q 544 797 613 797 q 391 777 435 797 q 348 723 348 758 q 356 694 348 706 q 383 674 363 683 q 441 656 403 665 l 537 634 q 786 521 708 597 q 863 322 863 445 z "},"Ŝ":{"ha":900,"x_min":37,"x_max":863,"o":"m 398 -14 q 67 33 217 -14 l 67 281 q 228 245 135 259 q 399 231 322 231 q 518 250 485 231 q 552 303 552 268 q 543 335 552 322 q 509 358 534 348 q 438 379 485 369 l 342 401 q 111 510 185 435 q 37 709 37 585 q 161 956 37 870 q 530 1042 285 1042 q 804 1010 683 1042 l 804 763 q 684 787 754 778 q 544 797 613 797 q 391 777 435 797 q 348 723 348 758 q 356 694 348 706 q 383 674 363 683 q 441 656 403 665 l 537 634 q 786 521 708 597 q 863 322 863 445 q 807 143 863 219 q 647 27 751 67 q 398 -14 542 -14 m 794 1101 l 560 1101 l 460 1213 l 359 1101 l 126 1101 l 332 1321 l 588 1321 l 794 1101 z "},"Ș":{"ha":900,"x_min":37,"x_max":863,"o":"m 398 -14 q 67 33 217 -14 l 67 281 q 228 245 135 259 q 399 231 322 231 q 518 250 485 231 q 552 303 552 268 q 543 335 552 322 q 509 358 534 348 q 438 379 485 369 l 342 401 q 111 510 185 435 q 37 709 37 585 q 161 956 37 870 q 530 1042 285 1042 q 804 1010 683 1042 l 804 763 q 684 787 754 778 q 544 797 613 797 q 391 777 435 797 q 348 723 348 758 q 356 694 348 706 q 383 674 363 683 q 441 656 403 665 l 537 634 q 786 521 708 597 q 863 322 863 445 q 807 143 863 219 q 647 27 751 67 q 398 -14 542 -14 m 460 -72 q 625 -195 625 -72 q 607 -283 625 -237 q 560 -360 588 -329 l 372 -360 q 416 -257 406 -300 q 323 -228 352 -251 q 294 -166 294 -205 q 460 -72 294 -72 z "},"Ṡ":{"ha":900,"x_min":37,"x_max":863,"o":"m 398 -14 q 67 33 217 -14 l 67 281 q 228 245 135 259 q 399 231 322 231 q 518 250 485 231 q 552 303 552 268 q 543 335 552 322 q 509 358 534 348 q 438 379 485 369 l 342 401 q 111 510 185 435 q 37 709 37 585 q 161 956 37 870 q 530 1042 285 1042 q 804 1010 683 1042 l 804 763 q 684 787 754 778 q 544 797 613 797 q 391 777 435 797 q 348 723 348 758 q 356 694 348 706 q 383 674 363 683 q 441 656 403 665 l 537 634 q 786 521 708 597 q 863 322 863 445 q 807 143 863 219 q 647 27 751 67 q 398 -14 542 -14 m 460 1090 q 324 1123 369 1090 q 279 1215 279 1156 q 324 1307 279 1274 q 460 1340 369 1340 q 595 1307 551 1340 q 640 1215 640 1274 q 595 1123 640 1156 q 460 1090 551 1090 z "},"Ṣ":{"ha":900,"x_min":37,"x_max":863,"o":"m 398 -14 q 67 33 217 -14 l 67 281 q 228 245 135 259 q 399 231 322 231 q 518 250 485 231 q 552 303 552 268 q 543 335 552 322 q 509 358 534 348 q 438 379 485 369 l 342 401 q 111 510 185 435 q 37 709 37 585 q 161 956 37 870 q 530 1042 285 1042 q 804 1010 683 1042 l 804 763 q 684 787 754 778 q 544 797 613 797 q 391 777 435 797 q 348 723 348 758 q 356 694 348 706 q 383 674 363 683 q 441 656 403 665 l 537 634 q 786 521 708 597 q 863 322 863 445 q 807 143 863 219 q 647 27 751 67 q 398 -14 542 -14 m 460 -322 q 324 -289 369 -322 q 279 -197 279 -256 q 324 -105 279 -138 q 460 -72 369 -72 q 595 -105 551 -72 q 640 -197 640 -138 q 595 -289 640 -256 q 460 -322 551 -322 z "},"Ṩ":{"ha":900,"x_min":37,"x_max":863,"o":"m 398 -14 q 67 33 217 -14 l 67 281 q 228 245 135 259 q 399 231 322 231 q 518 250 485 231 q 552 303 552 268 q 543 335 552 322 q 509 358 534 348 q 438 379 485 369 l 342 401 q 111 510 185 435 q 37 709 37 585 q 161 956 37 870 q 530 1042 285 1042 q 804 1010 683 1042 l 804 763 q 684 787 754 778 q 544 797 613 797 q 391 777 435 797 q 348 723 348 758 q 356 694 348 706 q 383 674 363 683 q 441 656 403 665 l 537 634 q 786 521 708 597 q 863 322 863 445 q 807 143 863 219 q 647 27 751 67 q 398 -14 542 -14 m 460 -322 q 324 -289 369 -322 q 279 -197 279 -256 q 324 -105 279 -138 q 460 -72 369 -72 q 595 -105 551 -72 q 640 -197 640 -138 q 595 -289 640 -256 q 460 -322 551 -322 m 460 1090 q 324 1123 369 1090 q 279 1215 279 1156 q 324 1307 279 1274 q 460 1340 369 1340 q 595 1307 551 1340 q 640 1215 640 1274 q 595 1123 640 1156 q 460 1090 551 1090 z "},"ẞ":{"ha":1406,"x_min":83,"x_max":1369,"o":"m 1058 634 q 1295 520 1222 596 q 1369 322 1369 445 q 1315 143 1369 219 q 1159 27 1261 67 q 917 -14 1058 -14 q 756 -2 835 -14 q 609 30 677 9 l 609 278 q 761 244 673 257 q 914 231 849 231 q 1030 250 997 231 q 1063 303 1063 268 q 1055 335 1063 322 q 1025 359 1047 349 q 963 379 1003 369 l 872 401 q 651 510 722 435 q 581 709 581 585 q 590 790 581 754 q 540 797 567 797 q 435 757 471 797 q 399 644 399 717 l 399 0 l 83 0 l 83 607 q 198 927 83 813 q 540 1042 312 1042 q 776 997 672 1042 q 1060 1042 887 1042 q 1195 1034 1129 1042 q 1313 1014 1260 1026 l 1313 766 q 1200 788 1265 780 q 1078 797 1135 797 q 928 777 970 797 q 887 723 887 758 q 903 682 887 697 q 967 656 920 667 l 1058 634 z "},"Ə":{"ha":1206,"x_min":47,"x_max":1152,"o":"m 460 1042 q 981 908 809 1042 q 1152 500 1152 775 q 1086 226 1152 342 q 898 48 1021 110 q 608 -14 775 -14 q 310 48 436 -14 q 115 227 183 109 q 47 510 47 345 l 47 603 l 831 603 q 704 751 801 706 q 435 796 607 796 q 278 788 360 796 q 126 765 197 780 l 126 1013 q 290 1034 203 1027 q 460 1042 377 1042 m 611 220 q 763 258 708 220 q 835 385 817 296 l 376 385 q 451 259 394 297 q 611 220 507 220 z "},"T":{"ha":1003,"x_min":12,"x_max":992,"o":"m 344 0 l 344 776 l 12 776 l 12 1028 l 992 1028 l 992 776 l 660 776 l 660 0 l 344 0 z "},"Ŧ":{"ha":1003,"x_min":12,"x_max":992,"o":"m 992 776 l 660 776 l 660 581 l 872 581 l 872 391 l 660 391 l 660 0 l 344 0 l 344 391 l 132 391 l 132 581 l 344 581 l 344 776 l 12 776 l 12 1028 l 992 1028 l 992 776 z "},"Ť":{"ha":1003,"x_min":12,"x_max":992,"o":"m 344 0 l 344 776 l 12 776 l 12 1028 l 992 1028 l 992 776 l 660 776 l 660 0 l 344 0 m 603 1321 l 836 1321 l 630 1101 l 374 1101 l 168 1321 l 401 1321 l 502 1209 l 603 1321 z "},"Ţ":{"ha":1003,"x_min":12,"x_max":992,"o":"m 552 0 l 552 -52 q 653 -95 619 -62 q 686 -181 686 -128 q 632 -283 686 -246 q 469 -319 577 -319 q 317 -298 390 -319 l 317 -192 q 385 -207 348 -202 q 454 -212 422 -212 q 515 -203 495 -212 q 534 -171 534 -193 q 514 -137 534 -147 q 454 -126 494 -126 l 415 -126 l 415 0 l 344 0 l 344 776 l 12 776 l 12 1028 l 992 1028 l 992 776 l 660 776 l 660 0 l 552 0 z "},"Ț":{"ha":1003,"x_min":12,"x_max":992,"o":"m 344 0 l 344 776 l 12 776 l 12 1028 l 992 1028 l 992 776 l 660 776 l 660 0 l 344 0 m 502 -72 q 667 -195 667 -72 q 649 -283 667 -237 q 602 -360 631 -329 l 414 -360 q 458 -257 449 -300 q 366 -228 394 -251 q 337 -166 337 -205 q 502 -72 337 -72 z "},"Ṭ":{"ha":1003,"x_min":12,"x_max":992,"o":"m 344 0 l 344 776 l 12 776 l 12 1028 l 992 1028 l 992 776 l 660 776 l 660 0 l 344 0 m 502 -322 q 366 -289 411 -322 q 322 -197 322 -256 q 366 -105 322 -138 q 502 -72 411 -72 q 638 -105 593 -72 q 683 -197 683 -138 q 638 -289 683 -256 q 502 -322 593 -322 z "},"Ṯ":{"ha":1003,"x_min":12,"x_max":992,"o":"m 344 0 l 344 776 l 12 776 l 12 1028 l 992 1028 l 992 776 l 660 776 l 660 0 l 344 0 m 206 -276 l 206 -103 l 799 -103 l 799 -276 l 206 -276 z "},"U":{"ha":1147,"x_min":79,"x_max":1068,"o":"m 576 -14 q 199 107 319 -14 q 79 466 79 228 l 79 1028 l 394 1028 l 394 439 q 440 287 394 335 q 576 239 485 239 q 713 287 667 239 q 758 439 758 335 l 758 1028 l 1068 1028 l 1068 466 q 949 107 1068 228 q 576 -14 830 -14 z "},"Ú":{"ha":1147,"x_min":79,"x_max":1068,"o":"m 576 -14 q 199 107 319 -14 q 79 466 79 228 l 79 1028 l 394 1028 l 394 439 q 440 287 394 335 q 576 239 485 239 q 713 287 667 239 q 758 439 758 335 l 758 1028 l 1068 1028 l 1068 466 q 949 107 1068 228 q 576 -14 830 -14 m 435 1101 l 569 1321 l 893 1321 l 713 1101 l 435 1101 z "},"Ŭ":{"ha":1147,"x_min":79,"x_max":1068,"o":"m 576 -14 q 199 107 319 -14 q 79 466 79 228 l 79 1028 l 394 1028 l 394 439 q 440 287 394 335 q 576 239 485 239 q 713 287 667 239 q 758 439 758 335 l 758 1028 l 1068 1028 l 1068 466 q 949 107 1068 228 q 576 -14 830 -14 m 576 1101 q 355 1161 433 1101 q 261 1321 276 1220 l 444 1321 q 576 1242 464 1242 q 709 1321 689 1242 l 892 1321 q 798 1161 877 1220 q 576 1101 719 1101 z "},"Û":{"ha":1147,"x_min":79,"x_max":1068,"o":"m 576 -14 q 199 107 319 -14 q 79 466 79 228 l 79 1028 l 394 1028 l 394 439 q 440 287 394 335 q 576 239 485 239 q 713 287 667 239 q 758 439 758 335 l 758 1028 l 1068 1028 l 1068 466 q 949 107 1068 228 q 576 -14 830 -14 m 910 1101 l 677 1101 l 576 1213 l 476 1101 l 242 1101 l 449 1321 l 704 1321 l 910 1101 z "},"Ȕ":{"ha":1147,"x_min":79,"x_max":1068,"o":"m 576 -14 q 199 107 319 -14 q 79 466 79 228 l 79 1028 l 394 1028 l 394 439 q 440 287 394 335 q 576 239 485 239 q 713 287 667 239 q 758 439 758 335 l 758 1028 l 1068 1028 l 1068 466 q 949 107 1068 228 q 576 -14 830 -14 m 306 1101 l 185 1321 l 419 1321 l 526 1101 l 306 1101 m 627 1101 l 506 1321 l 740 1321 l 847 1101 l 627 1101 z "},"Ü":{"ha":1147,"x_min":79,"x_max":1068,"o":"m 576 -14 q 199 107 319 -14 q 79 466 79 228 l 79 1028 l 394 1028 l 394 439 q 440 287 394 335 q 576 239 485 239 q 713 287 667 239 q 758 439 758 335 l 758 1028 l 1068 1028 l 1068 466 q 949 107 1068 228 q 576 -14 830 -14 m 379 1090 q 263 1123 301 1090 q 224 1215 224 1155 q 263 1308 224 1276 q 379 1340 301 1340 q 495 1308 457 1340 q 533 1215 533 1276 q 495 1123 533 1155 q 379 1090 457 1090 m 774 1090 q 658 1123 696 1090 q 619 1215 619 1155 q 658 1308 619 1276 q 774 1340 696 1340 q 890 1308 851 1340 q 928 1215 928 1276 q 890 1123 928 1155 q 774 1090 851 1090 z "},"Ụ":{"ha":1147,"x_min":79,"x_max":1068,"o":"m 576 -14 q 199 107 319 -14 q 79 466 79 228 l 79 1028 l 394 1028 l 394 439 q 440 287 394 335 q 576 239 485 239 q 713 287 667 239 q 758 439 758 335 l 758 1028 l 1068 1028 l 1068 466 q 949 107 1068 228 q 576 -14 830 -14 m 576 -322 q 441 -289 485 -322 q 396 -197 396 -256 q 441 -105 396 -138 q 576 -72 485 -72 q 712 -105 667 -72 q 757 -197 757 -138 q 712 -289 757 -256 q 576 -322 667 -322 z "},"Ù":{"ha":1147,"x_min":79,"x_max":1068,"o":"m 576 -14 q 199 107 319 -14 q 79 466 79 228 l 79 1028 l 394 1028 l 394 439 q 440 287 394 335 q 576 239 485 239 q 713 287 667 239 q 758 439 758 335 l 758 1028 l 1068 1028 l 1068 466 q 949 107 1068 228 q 576 -14 830 -14 m 438 1101 l 258 1321 l 581 1321 l 715 1101 l 438 1101 z "},"Ủ":{"ha":1147,"x_min":79,"x_max":1068,"o":"m 576 -14 q 199 107 319 -14 q 79 466 79 228 l 79 1028 l 394 1028 l 394 439 q 440 287 394 335 q 576 239 485 239 q 713 287 667 239 q 758 439 758 335 l 758 1028 l 1068 1028 l 1068 466 q 949 107 1068 228 q 576 -14 830 -14 m 504 1101 q 527 1149 506 1132 q 585 1183 548 1166 q 616 1200 606 1193 q 626 1215 626 1207 q 549 1236 626 1236 q 411 1222 480 1236 l 411 1325 q 488 1336 443 1332 q 572 1340 533 1340 q 728 1315 678 1340 q 778 1238 778 1289 q 757 1186 778 1206 q 699 1146 737 1167 q 662 1122 674 1131 q 649 1101 651 1113 l 504 1101 z "},"Ư":{"ha":1149,"x_min":79,"x_max":1192,"o":"m 576 -14 q 199 107 319 -14 q 79 466 79 228 l 79 1028 l 394 1028 l 394 439 q 440 287 394 335 q 576 239 485 239 q 713 287 667 239 q 758 439 758 335 l 758 1028 l 852 1028 q 958 1052 924 1028 q 991 1136 991 1076 q 981 1233 991 1178 l 1178 1233 q 1192 1126 1192 1184 q 1159 992 1192 1045 q 1068 915 1127 939 l 1068 466 q 949 107 1068 228 q 576 -14 830 -14 z "},"Ứ":{"ha":1149,"x_min":79,"x_max":1192,"o":"m 576 -14 q 199 107 319 -14 q 79 466 79 228 l 79 1028 l 394 1028 l 394 439 q 440 287 394 335 q 576 239 485 239 q 713 287 667 239 q 758 439 758 335 l 758 1028 l 852 1028 q 958 1052 924 1028 q 991 1136 991 1076 q 981 1233 991 1178 l 1178 1233 q 1192 1126 1192 1184 q 1159 992 1192 1045 q 1068 915 1127 939 l 1068 466 q 949 107 1068 228 q 576 -14 830 -14 m 433 1101 l 567 1321 l 890 1321 l 710 1101 l 433 1101 z "},"Ự":{"ha":1149,"x_min":79,"x_max":1192,"o":"m 576 -14 q 199 107 319 -14 q 79 466 79 228 l 79 1028 l 394 1028 l 394 439 q 440 287 394 335 q 576 239 485 239 q 713 287 667 239 q 758 439 758 335 l 758 1028 l 852 1028 q 958 1052 924 1028 q 991 1136 991 1076 q 981 1233 991 1178 l 1178 1233 q 1192 1126 1192 1184 q 1159 992 1192 1045 q 1068 915 1127 939 l 1068 466 q 949 107 1068 228 q 576 -14 830 -14 m 574 -322 q 438 -289 483 -322 q 393 -197 393 -256 q 438 -105 393 -138 q 574 -72 483 -72 q 709 -105 665 -72 q 754 -197 754 -138 q 709 -289 754 -256 q 574 -322 665 -322 z "},"Ừ":{"ha":1149,"x_min":79,"x_max":1192,"o":"m 576 -14 q 199 107 319 -14 q 79 466 79 228 l 79 1028 l 394 1028 l 394 439 q 440 287 394 335 q 576 239 485 239 q 713 287 667 239 q 758 439 758 335 l 758 1028 l 852 1028 q 958 1052 924 1028 q 991 1136 991 1076 q 981 1233 991 1178 l 1178 1233 q 1192 1126 1192 1184 q 1159 992 1192 1045 q 1068 915 1127 939 l 1068 466 q 949 107 1068 228 q 576 -14 830 -14 m 435 1101 l 255 1321 l 578 1321 l 713 1101 l 435 1101 z "},"Ử":{"ha":1149,"x_min":79,"x_max":1192,"o":"m 576 -14 q 199 107 319 -14 q 79 466 79 228 l 79 1028 l 394 1028 l 394 439 q 440 287 394 335 q 576 239 485 239 q 713 287 667 239 q 758 439 758 335 l 758 1028 l 852 1028 q 958 1052 924 1028 q 991 1136 991 1076 q 981 1233 991 1178 l 1178 1233 q 1192 1126 1192 1184 q 1159 992 1192 1045 q 1068 915 1127 939 l 1068 466 q 949 107 1068 228 q 576 -14 830 -14 m 501 1101 q 524 1149 503 1132 q 582 1183 545 1166 q 613 1200 603 1193 q 623 1215 623 1207 q 546 1236 623 1236 q 408 1222 477 1236 l 408 1325 q 485 1336 440 1332 q 569 1340 531 1340 q 725 1315 675 1340 q 775 1238 775 1289 q 755 1186 775 1206 q 696 1146 734 1167 q 659 1122 671 1131 q 646 1101 648 1113 l 501 1101 z "},"Ữ":{"ha":1149,"x_min":79,"x_max":1192,"o":"m 576 -14 q 199 107 319 -14 q 79 466 79 228 l 79 1028 l 394 1028 l 394 439 q 440 287 394 335 q 576 239 485 239 q 713 287 667 239 q 758 439 758 335 l 758 1028 l 852 1028 q 958 1052 924 1028 q 991 1136 991 1076 q 981 1233 991 1178 l 1178 1233 q 1192 1126 1192 1184 q 1159 992 1192 1045 q 1068 915 1127 939 l 1068 466 q 949 107 1068 228 q 576 -14 830 -14 m 706 1101 q 638 1108 669 1101 q 562 1128 607 1115 q 493 1147 522 1140 q 434 1153 465 1153 q 352 1142 388 1153 q 277 1106 316 1131 l 277 1267 q 349 1308 310 1295 q 441 1321 388 1321 q 510 1314 478 1321 q 585 1293 542 1307 q 655 1274 628 1281 q 713 1268 683 1268 q 795 1279 760 1268 q 870 1315 831 1290 l 870 1153 q 799 1114 838 1126 q 706 1101 760 1101 z "},"Ű":{"ha":1147,"x_min":79,"x_max":1068,"o":"m 576 -14 q 199 107 319 -14 q 79 466 79 228 l 79 1028 l 394 1028 l 394 439 q 440 287 394 335 q 576 239 485 239 q 713 287 667 239 q 758 439 758 335 l 758 1028 l 1068 1028 l 1068 466 q 949 107 1068 228 q 576 -14 830 -14 m 306 1101 l 413 1321 l 647 1321 l 526 1101 l 306 1101 m 627 1101 l 733 1321 l 968 1321 l 847 1101 l 627 1101 z "},"Ȗ":{"ha":1147,"x_min":79,"x_max":1068,"o":"m 576 -14 q 199 107 319 -14 q 79 466 79 228 l 79 1028 l 394 1028 l 394 439 q 440 287 394 335 q 576 239 485 239 q 713 287 667 239 q 758 439 758 335 l 758 1028 l 1068 1028 l 1068 466 q 949 107 1068 228 q 576 -14 830 -14 m 261 1101 q 355 1261 276 1202 q 576 1321 433 1321 q 798 1261 719 1321 q 892 1101 877 1202 l 709 1101 q 576 1181 689 1181 q 444 1101 464 1181 l 261 1101 z "},"Ū":{"ha":1147,"x_min":79,"x_max":1068,"o":"m 576 -14 q 199 107 319 -14 q 79 466 79 228 l 79 1028 l 394 1028 l 394 439 q 440 287 394 335 q 576 239 485 239 q 713 287 667 239 q 758 439 758 335 l 758 1028 l 1068 1028 l 1068 466 q 949 107 1068 228 q 576 -14 830 -14 m 280 1126 l 280 1298 l 873 1298 l 873 1126 l 280 1126 z "},"Ṻ":{"ha":1147,"x_min":79,"x_max":1068,"o":"m 576 -14 q 199 107 319 -14 q 79 466 79 228 l 79 1028 l 394 1028 l 394 439 q 440 287 394 335 q 576 239 485 239 q 713 287 667 239 q 758 439 758 335 l 758 1028 l 1068 1028 l 1068 466 q 949 107 1068 228 q 576 -14 830 -14 m 280 1126 l 280 1298 l 873 1298 l 873 1126 l 280 1126 m 379 1368 q 263 1400 301 1368 q 224 1493 224 1433 q 263 1586 224 1553 q 379 1618 301 1618 q 495 1586 457 1618 q 533 1493 533 1553 q 495 1400 533 1433 q 379 1368 457 1368 m 774 1368 q 658 1400 696 1368 q 619 1493 619 1433 q 658 1586 619 1553 q 774 1618 696 1618 q 890 1586 851 1618 q 928 1493 928 1553 q 890 1400 928 1433 q 774 1368 851 1368 z "},"Ų":{"ha":1147,"x_min":79,"x_max":1068,"o":"m 1068 1028 l 1068 466 q 1000 173 1068 286 q 791 15 933 59 q 664 -36 710 -11 q 601 -86 619 -62 q 583 -140 583 -111 q 683 -206 583 -206 q 774 -190 724 -206 l 774 -299 q 636 -319 708 -319 q 469 -278 525 -319 q 413 -163 413 -236 q 435 -80 413 -118 q 506 -11 456 -42 q 182 125 285 5 q 79 466 79 244 l 79 1028 l 394 1028 l 394 439 q 440 287 394 335 q 576 239 485 239 q 713 287 667 239 q 758 439 758 335 l 758 1028 l 1068 1028 z "},"Ů":{"ha":1147,"x_min":79,"x_max":1068,"o":"m 576 -14 q 199 107 319 -14 q 79 466 79 228 l 79 1028 l 394 1028 l 394 439 q 440 287 394 335 q 576 239 485 239 q 713 287 667 239 q 758 439 758 335 l 758 1028 l 1068 1028 l 1068 466 q 949 107 1068 228 q 576 -14 830 -14 m 576 1090 q 495 1110 531 1090 q 439 1165 459 1130 q 418 1243 418 1199 q 439 1322 418 1287 q 495 1376 459 1356 q 576 1396 531 1396 q 658 1376 622 1396 q 714 1322 694 1356 q 735 1243 735 1287 q 714 1165 735 1199 q 658 1110 694 1130 q 576 1090 622 1090 m 576 1186 q 616 1202 601 1186 q 631 1243 631 1217 q 616 1284 631 1269 q 576 1300 601 1300 q 537 1284 552 1300 q 522 1243 522 1269 q 537 1202 522 1217 q 576 1186 552 1186 z "},"Ũ":{"ha":1147,"x_min":79,"x_max":1068,"o":"m 576 -14 q 199 107 319 -14 q 79 466 79 228 l 79 1028 l 394 1028 l 394 439 q 440 287 394 335 q 576 239 485 239 q 713 287 667 239 q 758 439 758 335 l 758 1028 l 1068 1028 l 1068 466 q 949 107 1068 228 q 576 -14 830 -14 m 709 1101 q 641 1108 672 1101 q 565 1128 610 1115 q 496 1147 524 1140 q 437 1153 467 1153 q 355 1142 390 1153 q 280 1106 319 1131 l 280 1267 q 352 1308 313 1295 q 444 1321 390 1321 q 513 1314 481 1321 q 588 1293 545 1307 q 658 1274 631 1281 q 716 1268 685 1268 q 798 1279 763 1268 q 873 1315 834 1290 l 873 1153 q 802 1114 840 1126 q 709 1101 763 1101 z "},"Ṹ":{"ha":1147,"x_min":79,"x_max":1068,"o":"m 576 -14 q 199 107 319 -14 q 79 466 79 228 l 79 1028 l 394 1028 l 394 439 q 440 287 394 335 q 576 239 485 239 q 713 287 667 239 q 758 439 758 335 l 758 1028 l 1068 1028 l 1068 466 q 949 107 1068 228 q 576 -14 830 -14 m 419 1379 l 553 1540 l 914 1540 l 734 1379 l 419 1379 m 709 1101 q 641 1108 672 1101 q 565 1128 610 1115 q 496 1147 524 1140 q 437 1153 467 1153 q 355 1142 390 1153 q 280 1106 319 1131 l 280 1267 q 352 1308 313 1295 q 444 1321 390 1321 q 513 1314 481 1321 q 588 1293 545 1307 q 658 1274 631 1281 q 716 1268 685 1268 q 798 1279 763 1268 q 873 1315 834 1290 l 873 1153 q 802 1114 840 1126 q 709 1101 763 1101 z "},"V":{"ha":1128,"x_min":0,"x_max":1128,"o":"m 820 1028 l 1128 1028 l 795 0 l 333 0 l 0 1028 l 331 1028 l 572 242 l 820 1028 z "},"W":{"ha":1783,"x_min":13,"x_max":1769,"o":"m 1471 1028 l 1769 1028 l 1487 0 l 1086 0 l 896 700 l 697 0 l 297 0 l 13 1028 l 331 1028 l 520 287 l 728 1028 l 1072 1028 l 1273 273 l 1471 1028 z "},"Ẃ":{"ha":1783,"x_min":13,"x_max":1769,"o":"m 1471 1028 l 1769 1028 l 1487 0 l 1086 0 l 896 700 l 697 0 l 297 0 l 13 1028 l 331 1028 l 520 287 l 728 1028 l 1072 1028 l 1273 273 l 1471 1028 m 751 1101 l 885 1321 l 1208 1321 l 1028 1101 l 751 1101 z "},"Ŵ":{"ha":1783,"x_min":13,"x_max":1769,"o":"m 1471 1028 l 1769 1028 l 1487 0 l 1086 0 l 896 700 l 697 0 l 297 0 l 13 1028 l 331 1028 l 520 287 l 728 1028 l 1072 1028 l 1273 273 l 1471 1028 m 1226 1101 l 992 1101 l 892 1213 l 791 1101 l 558 1101 l 764 1321 l 1019 1321 l 1226 1101 z "},"Ẅ":{"ha":1783,"x_min":13,"x_max":1769,"o":"m 1471 1028 l 1769 1028 l 1487 0 l 1086 0 l 896 700 l 697 0 l 297 0 l 13 1028 l 331 1028 l 520 287 l 728 1028 l 1072 1028 l 1273 273 l 1471 1028 m 694 1090 q 578 1123 617 1090 q 540 1215 540 1155 q 578 1308 540 1276 q 694 1340 617 1340 q 810 1308 772 1340 q 849 1215 849 1276 q 810 1123 849 1155 q 694 1090 772 1090 m 1089 1090 q 973 1123 1011 1090 q 935 1215 935 1155 q 973 1308 935 1276 q 1089 1340 1011 1340 q 1205 1308 1167 1340 q 1244 1215 1244 1276 q 1205 1123 1244 1155 q 1089 1090 1167 1090 z "},"Ẁ":{"ha":1783,"x_min":13,"x_max":1769,"o":"m 1471 1028 l 1769 1028 l 1487 0 l 1086 0 l 896 700 l 697 0 l 297 0 l 13 1028 l 331 1028 l 520 287 l 728 1028 l 1072 1028 l 1273 273 l 1471 1028 m 753 1101 l 573 1321 l 897 1321 l 1031 1101 l 753 1101 z "},"X":{"ha":1053,"x_min":-44,"x_max":1097,"o":"m 710 542 l 1097 0 l 749 0 l 522 326 l 297 0 l -44 0 l 340 538 l -12 1028 l 337 1028 l 527 756 l 717 1028 l 1056 1028 l 710 542 z "},"Y":{"ha":1003,"x_min":-44,"x_max":1036,"o":"m 1036 1028 l 662 423 l 662 0 l 347 0 l 347 418 l -44 1028 l 289 1028 l 510 674 l 727 1028 l 1036 1028 z "},"Ý":{"ha":1003,"x_min":-44,"x_max":1036,"o":"m 1036 1028 l 662 423 l 662 0 l 347 0 l 347 418 l -44 1028 l 289 1028 l 510 674 l 727 1028 l 1036 1028 m 360 1101 l 494 1321 l 818 1321 l 638 1101 l 360 1101 z "},"Ŷ":{"ha":1003,"x_min":-44,"x_max":1036,"o":"m 1036 1028 l 662 423 l 662 0 l 347 0 l 347 418 l -44 1028 l 289 1028 l 510 674 l 727 1028 l 1036 1028 m 835 1101 l 602 1101 l 501 1213 l 401 1101 l 167 1101 l 374 1321 l 629 1321 l 835 1101 z "},"Ÿ":{"ha":1003,"x_min":-44,"x_max":1036,"o":"m 1036 1028 l 662 423 l 662 0 l 347 0 l 347 418 l -44 1028 l 289 1028 l 510 674 l 727 1028 l 1036 1028 m 304 1090 q 188 1123 226 1090 q 149 1215 149 1155 q 188 1308 149 1276 q 304 1340 226 1340 q 420 1308 382 1340 q 458 1215 458 1276 q 420 1123 458 1155 q 304 1090 382 1090 m 699 1090 q 583 1123 621 1090 q 544 1215 544 1155 q 583 1308 544 1276 q 699 1340 621 1340 q 815 1308 776 1340 q 853 1215 853 1276 q 815 1123 853 1155 q 699 1090 776 1090 z "},"Ẏ":{"ha":1003,"x_min":-44,"x_max":1036,"o":"m 1036 1028 l 662 423 l 662 0 l 347 0 l 347 418 l -44 1028 l 289 1028 l 510 674 l 727 1028 l 1036 1028 m 501 1090 q 366 1123 410 1090 q 321 1215 321 1156 q 366 1307 321 1274 q 501 1340 410 1340 q 637 1307 592 1340 q 682 1215 682 1274 q 637 1123 682 1156 q 501 1090 592 1090 z "},"Ỵ":{"ha":1003,"x_min":-44,"x_max":1036,"o":"m 1036 1028 l 662 423 l 662 0 l 347 0 l 347 418 l -44 1028 l 289 1028 l 510 674 l 727 1028 l 1036 1028 m 501 -322 q 365 -289 410 -322 q 320 -197 320 -256 q 365 -105 320 -138 q 501 -72 410 -72 q 636 -105 592 -72 q 681 -197 681 -138 q 636 -289 681 -256 q 501 -322 592 -322 z "},"Ỳ":{"ha":1003,"x_min":-44,"x_max":1036,"o":"m 1036 1028 l 662 423 l 662 0 l 347 0 l 347 418 l -44 1028 l 289 1028 l 510 674 l 727 1028 l 1036 1028 m 363 1101 l 183 1321 l 506 1321 l 640 1101 l 363 1101 z "},"Ỷ":{"ha":1003,"x_min":-44,"x_max":1036,"o":"m 1036 1028 l 662 423 l 662 0 l 347 0 l 347 418 l -44 1028 l 289 1028 l 510 674 l 727 1028 l 1036 1028 m 429 1101 q 452 1149 431 1132 q 510 1183 473 1166 q 541 1200 531 1193 q 551 1215 551 1207 q 474 1236 551 1236 q 336 1222 405 1236 l 336 1325 q 413 1336 368 1332 q 497 1340 458 1340 q 653 1315 603 1340 q 703 1238 703 1289 q 682 1186 703 1206 q 624 1146 662 1167 q 587 1122 599 1131 q 574 1101 576 1113 l 429 1101 z "},"Ȳ":{"ha":1003,"x_min":-44,"x_max":1036,"o":"m 1036 1028 l 662 423 l 662 0 l 347 0 l 347 418 l -44 1028 l 289 1028 l 510 674 l 727 1028 l 1036 1028 m 205 1126 l 205 1298 l 798 1298 l 798 1126 l 205 1126 z "},"Ỹ":{"ha":1003,"x_min":-44,"x_max":1036,"o":"m 1036 1028 l 662 423 l 662 0 l 347 0 l 347 418 l -44 1028 l 289 1028 l 510 674 l 727 1028 l 1036 1028 m 634 1101 q 566 1108 597 1101 q 490 1128 535 1115 q 421 1147 449 1140 q 362 1153 392 1153 q 280 1142 315 1153 q 205 1106 244 1131 l 205 1267 q 277 1308 238 1295 q 369 1321 315 1321 q 438 1314 406 1321 q 513 1293 470 1307 q 583 1274 556 1281 q 641 1268 610 1268 q 723 1279 688 1268 q 798 1315 759 1290 l 798 1153 q 727 1114 765 1126 q 634 1101 688 1101 z "},"Z":{"ha":965,"x_min":49,"x_max":915,"o":"m 456 251 l 915 251 l 915 0 l 49 0 l 49 170 l 501 776 l 56 776 l 56 1028 l 908 1028 l 908 858 l 456 251 z "},"Ź":{"ha":965,"x_min":49,"x_max":915,"o":"m 456 251 l 915 251 l 915 0 l 49 0 l 49 170 l 501 776 l 56 776 l 56 1028 l 908 1028 l 908 858 l 456 251 m 342 1101 l 476 1321 l 800 1321 l 620 1101 l 342 1101 z "},"Ž":{"ha":965,"x_min":49,"x_max":915,"o":"m 456 251 l 915 251 l 915 0 l 49 0 l 49 170 l 501 776 l 56 776 l 56 1028 l 908 1028 l 908 858 l 456 251 m 584 1321 l 817 1321 l 611 1101 l 356 1101 l 149 1321 l 383 1321 l 483 1209 l 584 1321 z "},"Ż":{"ha":965,"x_min":49,"x_max":915,"o":"m 456 251 l 915 251 l 915 0 l 49 0 l 49 170 l 501 776 l 56 776 l 56 1028 l 908 1028 l 908 858 l 456 251 m 483 1090 q 348 1123 392 1090 q 303 1215 303 1156 q 348 1307 303 1274 q 483 1340 392 1340 q 619 1307 574 1340 q 664 1215 664 1274 q 619 1123 664 1156 q 483 1090 574 1090 z "},"Ẓ":{"ha":965,"x_min":49,"x_max":915,"o":"m 456 251 l 915 251 l 915 0 l 49 0 l 49 170 l 501 776 l 56 776 l 56 1028 l 908 1028 l 908 858 l 456 251 m 482 -322 q 346 -289 391 -322 q 301 -197 301 -256 q 346 -105 301 -138 q 482 -72 391 -72 q 618 -105 573 -72 q 663 -197 663 -138 q 618 -289 663 -256 q 482 -322 573 -322 z "},"a":{"ha":875,"x_min":35,"x_max":806,"o":"m 389 776 q 631 742 540 776 q 763 628 721 707 q 806 411 806 549 l 806 0 l 552 0 l 531 67 l 518 67 q 314 -15 451 -15 q 163 14 225 -15 q 68 96 100 44 q 35 215 35 149 q 124 393 35 330 q 399 465 212 456 l 502 470 q 455 534 494 515 q 332 553 417 553 q 222 545 283 553 q 110 522 160 537 l 110 742 q 249 768 174 759 q 389 776 324 776 m 417 187 q 505 206 470 187 l 505 311 l 432 308 q 361 289 383 305 q 339 243 339 272 q 359 202 339 217 q 417 187 379 187 z "},"á":{"ha":875,"x_min":35,"x_max":806,"o":"m 389 776 q 631 742 540 776 q 763 628 721 707 q 806 411 806 549 l 806 0 l 552 0 l 531 67 l 518 67 q 314 -15 451 -15 q 163 14 225 -15 q 68 96 100 44 q 35 215 35 149 q 124 393 35 330 q 399 465 212 456 l 502 470 q 455 534 494 515 q 332 553 417 553 q 222 545 283 553 q 110 522 160 537 l 110 742 q 249 768 174 759 q 389 776 324 776 m 417 187 q 505 206 470 187 l 505 311 l 432 308 q 361 289 383 305 q 339 243 339 272 q 359 202 339 217 q 417 187 379 187 m 291 847 l 462 1122 l 793 1122 l 578 847 l 291 847 z "},"ă":{"ha":875,"x_min":35,"x_max":806,"o":"m 389 776 q 631 742 540 776 q 763 628 721 707 q 806 411 806 549 l 806 0 l 552 0 l 531 67 l 518 67 q 314 -15 451 -15 q 163 14 225 -15 q 68 96 100 44 q 35 215 35 149 q 124 393 35 330 q 399 465 212 456 l 502 470 q 455 534 494 515 q 332 553 417 553 q 222 545 283 553 q 110 522 160 537 l 110 742 q 249 768 174 759 q 389 776 324 776 m 417 187 q 505 206 470 187 l 505 311 l 432 308 q 361 289 383 305 q 339 243 339 272 q 359 202 339 217 q 417 187 379 187 m 435 851 q 219 918 296 851 q 134 1108 142 985 l 315 1108 q 349 1026 320 1053 q 435 999 378 999 q 520 1026 491 999 q 555 1108 549 1053 l 735 1108 q 651 918 728 985 q 435 851 574 851 z "},"ắ":{"ha":875,"x_min":35,"x_max":806,"o":"m 389 776 q 631 742 540 776 q 763 628 721 707 q 806 411 806 549 l 806 0 l 552 0 l 531 67 l 518 67 q 314 -15 451 -15 q 163 14 225 -15 q 68 96 100 44 q 35 215 35 149 q 124 393 35 330 q 399 465 212 456 l 502 470 q 455 534 494 515 q 332 553 417 553 q 222 545 283 553 q 110 522 160 537 l 110 742 q 249 768 174 759 q 389 776 324 776 m 417 187 q 505 206 470 187 l 505 311 l 432 308 q 361 289 383 305 q 339 243 339 272 q 359 202 339 217 q 417 187 379 187 m 327 1110 l 461 1297 l 718 1297 l 538 1110 l 327 1110 m 435 856 q 213 915 292 856 q 119 1075 134 974 l 302 1075 q 435 996 322 996 q 567 1075 547 996 l 750 1075 q 657 915 735 974 q 435 856 578 856 z "},"ặ":{"ha":875,"x_min":35,"x_max":806,"o":"m 389 776 q 631 742 540 776 q 763 628 721 707 q 806 411 806 549 l 806 0 l 552 0 l 531 67 l 518 67 q 314 -15 451 -15 q 163 14 225 -15 q 68 96 100 44 q 35 215 35 149 q 124 393 35 330 q 399 465 212 456 l 502 470 q 455 534 494 515 q 332 553 417 553 q 222 545 283 553 q 110 522 160 537 l 110 742 q 249 768 174 759 q 389 776 324 776 m 417 187 q 505 206 470 187 l 505 311 l 432 308 q 361 289 383 305 q 339 243 339 272 q 359 202 339 217 q 417 187 379 187 m 435 -347 q 317 -311 357 -347 q 278 -210 278 -274 q 317 -109 278 -145 q 435 -72 357 -72 q 552 -109 512 -72 q 592 -210 592 -145 q 552 -311 592 -274 q 435 -347 512 -347 m 435 851 q 219 918 296 851 q 134 1108 142 985 l 315 1108 q 349 1026 320 1053 q 435 999 378 999 q 520 1026 491 999 q 555 1108 549 1053 l 735 1108 q 651 918 728 985 q 435 851 574 851 z "},"ằ":{"ha":875,"x_min":35,"x_max":806,"o":"m 389 776 q 631 742 540 776 q 763 628 721 707 q 806 411 806 549 l 806 0 l 552 0 l 531 67 l 518 67 q 314 -15 451 -15 q 163 14 225 -15 q 68 96 100 44 q 35 215 35 149 q 124 393 35 330 q 399 465 212 456 l 502 470 q 455 534 494 515 q 332 553 417 553 q 222 545 283 553 q 110 522 160 537 l 110 742 q 249 768 174 759 q 389 776 324 776 m 417 187 q 505 206 470 187 l 505 311 l 432 308 q 361 289 383 305 q 339 243 339 272 q 359 202 339 217 q 417 187 379 187 m 331 1110 l 151 1297 l 408 1297 l 542 1110 l 331 1110 m 435 856 q 213 915 292 856 q 119 1075 134 974 l 302 1075 q 435 996 322 996 q 567 1075 547 996 l 750 1075 q 657 915 735 974 q 435 856 578 856 z "},"ẳ":{"ha":875,"x_min":35,"x_max":806,"o":"m 389 776 q 631 742 540 776 q 763 628 721 707 q 806 411 806 549 l 806 0 l 552 0 l 531 67 l 518 67 q 314 -15 451 -15 q 163 14 225 -15 q 68 96 100 44 q 35 215 35 149 q 124 393 35 330 q 399 465 212 456 l 502 470 q 455 534 494 515 q 332 553 417 553 q 222 545 283 553 q 110 522 160 537 l 110 742 q 249 768 174 759 q 389 776 324 776 m 417 187 q 505 206 470 187 l 505 311 l 432 308 q 361 289 383 305 q 339 243 339 272 q 359 202 339 217 q 417 187 379 187 m 363 1110 q 385 1150 365 1135 q 442 1180 406 1165 q 474 1195 465 1190 q 484 1208 484 1201 q 407 1226 484 1226 q 269 1214 337 1226 l 269 1301 q 348 1311 302 1308 q 431 1315 393 1315 q 586 1293 536 1315 q 636 1226 636 1271 q 625 1193 636 1208 q 598 1169 614 1178 q 557 1147 583 1160 q 521 1128 533 1135 q 507 1110 509 1120 l 363 1110 m 435 856 q 213 915 292 856 q 119 1075 134 974 l 302 1075 q 435 996 322 996 q 567 1075 547 996 l 750 1075 q 657 915 735 974 q 435 856 578 856 z "},"ẵ":{"ha":875,"x_min":35,"x_max":806,"o":"m 389 776 q 631 742 540 776 q 763 628 721 707 q 806 411 806 549 l 806 0 l 552 0 l 531 67 l 518 67 q 314 -15 451 -15 q 163 14 225 -15 q 68 96 100 44 q 35 215 35 149 q 124 393 35 330 q 399 465 212 456 l 502 470 q 455 534 494 515 q 332 553 417 553 q 222 545 283 553 q 110 522 160 537 l 110 742 q 249 768 174 759 q 389 776 324 776 m 417 187 q 505 206 470 187 l 505 311 l 432 308 q 361 289 383 305 q 339 243 339 272 q 359 202 339 217 q 417 187 379 187 m 576 1108 q 503 1114 537 1108 q 422 1131 470 1119 q 350 1147 381 1142 q 287 1153 319 1153 q 199 1143 237 1153 q 119 1113 160 1133 l 119 1251 q 195 1286 154 1275 q 294 1297 236 1297 q 366 1291 333 1297 q 447 1273 399 1285 q 523 1257 494 1262 q 583 1251 551 1251 q 671 1261 633 1251 q 750 1292 709 1271 l 750 1153 q 675 1119 715 1129 q 576 1108 634 1108 m 435 856 q 213 915 292 856 q 119 1075 134 974 l 302 1075 q 435 996 322 996 q 567 1075 547 996 l 750 1075 q 657 915 735 974 q 435 856 578 856 z "},"â":{"ha":875,"x_min":35,"x_max":806,"o":"m 389 776 q 631 742 540 776 q 763 628 721 707 q 806 411 806 549 l 806 0 l 552 0 l 531 67 l 518 67 q 314 -15 451 -15 q 163 14 225 -15 q 68 96 100 44 q 35 215 35 149 q 124 393 35 330 q 399 465 212 456 l 502 470 q 455 534 494 515 q 332 553 417 553 q 222 545 283 553 q 110 522 160 537 l 110 742 q 249 768 174 759 q 389 776 324 776 m 417 187 q 505 206 470 187 l 505 311 l 432 308 q 361 289 383 305 q 339 243 339 272 q 359 202 339 217 q 417 187 379 187 m 738 847 l 519 847 l 435 983 l 350 847 l 132 847 l 314 1122 l 556 1122 l 738 847 z "},"ấ":{"ha":875,"x_min":35,"x_max":996,"o":"m 389 776 q 631 742 540 776 q 763 628 721 707 q 806 411 806 549 l 806 0 l 552 0 l 531 67 l 518 67 q 314 -15 451 -15 q 163 14 225 -15 q 68 96 100 44 q 35 215 35 149 q 124 393 35 330 q 399 465 212 456 l 502 470 q 455 534 494 515 q 332 553 417 553 q 222 545 283 553 q 110 522 160 537 l 110 742 q 249 768 174 759 q 389 776 324 776 m 417 187 q 505 206 470 187 l 505 311 l 432 308 q 361 289 383 305 q 339 243 339 272 q 359 202 339 217 q 417 187 379 187 m 739 1297 l 996 1297 l 817 1110 l 605 1110 l 739 1297 m 314 1122 l 556 1122 l 738 847 l 519 847 l 435 983 l 350 847 l 132 847 l 314 1122 z "},"ậ":{"ha":875,"x_min":35,"x_max":806,"o":"m 389 776 q 631 742 540 776 q 763 628 721 707 q 806 411 806 549 l 806 0 l 552 0 l 531 67 l 518 67 q 314 -15 451 -15 q 163 14 225 -15 q 68 96 100 44 q 35 215 35 149 q 124 393 35 330 q 399 465 212 456 l 502 470 q 455 534 494 515 q 332 553 417 553 q 222 545 283 553 q 110 522 160 537 l 110 742 q 249 768 174 759 q 389 776 324 776 m 417 187 q 505 206 470 187 l 505 311 l 432 308 q 361 289 383 305 q 339 243 339 272 q 359 202 339 217 q 417 187 379 187 m 435 -347 q 317 -311 357 -347 q 278 -210 278 -274 q 317 -109 278 -145 q 435 -72 357 -72 q 552 -109 512 -72 q 592 -210 592 -145 q 552 -311 592 -274 q 435 -347 512 -347 m 738 847 l 519 847 l 435 983 l 350 847 l 132 847 l 314 1122 l 556 1122 l 738 847 z "},"ầ":{"ha":875,"x_min":35,"x_max":844,"o":"m 389 776 q 631 742 540 776 q 763 628 721 707 q 806 411 806 549 l 806 0 l 552 0 l 531 67 l 518 67 q 314 -15 451 -15 q 163 14 225 -15 q 68 96 100 44 q 35 215 35 149 q 124 393 35 330 q 399 465 212 456 l 502 470 q 455 534 494 515 q 332 553 417 553 q 222 545 283 553 q 110 522 160 537 l 110 742 q 249 768 174 759 q 389 776 324 776 m 417 187 q 505 206 470 187 l 505 311 l 432 308 q 361 289 383 305 q 339 243 339 272 q 359 202 339 217 q 417 187 379 187 m 844 1110 l 633 1110 l 453 1297 l 710 1297 l 844 1110 m 314 1122 l 556 1122 l 738 847 l 519 847 l 435 983 l 350 847 l 132 847 l 314 1122 z "},"ẩ":{"ha":875,"x_min":35,"x_max":850,"o":"m 389 776 q 631 742 540 776 q 763 628 721 707 q 806 411 806 549 l 806 0 l 552 0 l 531 67 l 518 67 q 314 -15 451 -15 q 163 14 225 -15 q 68 96 100 44 q 35 215 35 149 q 124 393 35 330 q 399 465 212 456 l 502 470 q 455 534 494 515 q 332 553 417 553 q 222 545 283 553 q 110 522 160 537 l 110 742 q 249 768 174 759 q 389 776 324 776 m 417 187 q 505 206 470 187 l 505 311 l 432 308 q 361 289 383 305 q 339 243 339 272 q 359 202 339 217 q 417 187 379 187 m 665 1315 q 806 1295 762 1315 q 850 1228 850 1274 q 835 1193 850 1206 q 792 1164 820 1179 q 752 1139 766 1150 q 735 1110 738 1127 l 604 1110 q 626 1158 606 1141 q 680 1189 647 1174 q 701 1200 695 1196 q 708 1208 708 1203 q 692 1223 708 1219 q 642 1228 676 1228 q 519 1217 577 1228 l 519 1301 q 589 1311 546 1308 q 665 1315 631 1315 m 314 1122 l 556 1122 l 738 847 l 519 847 l 435 983 l 350 847 l 132 847 l 314 1122 z "},"ẫ":{"ha":875,"x_min":35,"x_max":806,"o":"m 389 776 q 631 742 540 776 q 763 628 721 707 q 806 411 806 549 l 806 0 l 552 0 l 531 67 l 518 67 q 314 -15 451 -15 q 163 14 225 -15 q 68 96 100 44 q 35 215 35 149 q 124 393 35 330 q 399 465 212 456 l 502 470 q 455 534 494 515 q 332 553 417 553 q 222 545 283 553 q 110 522 160 537 l 110 742 q 249 768 174 759 q 389 776 324 776 m 417 187 q 505 206 470 187 l 505 311 l 432 308 q 361 289 383 305 q 339 243 339 272 q 359 202 339 217 q 417 187 379 187 m 567 1108 q 499 1114 531 1108 q 423 1131 468 1119 q 354 1147 383 1142 q 295 1153 326 1153 q 214 1143 249 1153 q 138 1113 178 1133 l 138 1251 q 210 1286 172 1275 q 302 1297 249 1297 q 370 1291 339 1297 q 447 1273 401 1285 q 515 1257 487 1263 q 574 1251 544 1251 q 656 1261 620 1251 q 731 1292 692 1271 l 731 1153 q 660 1119 699 1129 q 567 1108 622 1108 m 769 849 l 535 849 l 435 960 l 334 849 l 101 849 l 307 1068 l 563 1068 l 769 849 z "},"ȁ":{"ha":875,"x_min":35,"x_max":806,"o":"m 389 776 q 631 742 540 776 q 763 628 721 707 q 806 411 806 549 l 806 0 l 552 0 l 531 67 l 518 67 q 314 -15 451 -15 q 163 14 225 -15 q 68 96 100 44 q 35 215 35 149 q 124 393 35 330 q 399 465 212 456 l 502 470 q 455 534 494 515 q 332 553 417 553 q 222 545 283 553 q 110 522 160 537 l 110 742 q 249 768 174 759 q 389 776 324 776 m 417 187 q 505 206 470 187 l 505 311 l 432 308 q 361 289 383 305 q 339 243 339 272 q 359 202 339 217 q 417 187 379 187 m 165 847 l 40 1122 l 274 1122 l 384 847 l 165 847 m 485 847 l 360 1122 l 595 1122 l 705 847 l 485 847 z "},"ä":{"ha":875,"x_min":35,"x_max":806,"o":"m 389 776 q 631 742 540 776 q 763 628 721 707 q 806 411 806 549 l 806 0 l 552 0 l 531 67 l 518 67 q 314 -15 451 -15 q 163 14 225 -15 q 68 96 100 44 q 35 215 35 149 q 124 393 35 330 q 399 465 212 456 l 502 470 q 455 534 494 515 q 332 553 417 553 q 222 545 283 553 q 110 522 160 537 l 110 742 q 249 768 174 759 q 389 776 324 776 m 417 187 q 505 206 470 187 l 505 311 l 432 308 q 361 289 383 305 q 339 243 339 272 q 359 202 339 217 q 417 187 379 187 m 244 842 q 126 880 166 842 q 87 985 87 917 q 126 1090 87 1053 q 244 1127 166 1127 q 361 1090 322 1127 q 401 985 401 1053 q 361 880 401 917 q 244 842 322 842 m 626 842 q 508 880 548 842 q 469 985 469 917 q 508 1090 469 1053 q 626 1127 548 1127 q 743 1090 703 1127 q 783 985 783 1053 q 743 880 783 917 q 626 842 703 842 z "},"ạ":{"ha":875,"x_min":35,"x_max":806,"o":"m 389 776 q 631 742 540 776 q 763 628 721 707 q 806 411 806 549 l 806 0 l 552 0 l 531 67 l 518 67 q 314 -15 451 -15 q 163 14 225 -15 q 68 96 100 44 q 35 215 35 149 q 124 393 35 330 q 399 465 212 456 l 502 470 q 455 534 494 515 q 332 553 417 553 q 222 545 283 553 q 110 522 160 537 l 110 742 q 249 768 174 759 q 389 776 324 776 m 417 187 q 505 206 470 187 l 505 311 l 432 308 q 361 289 383 305 q 339 243 339 272 q 359 202 339 217 q 417 187 379 187 m 435 -347 q 317 -311 357 -347 q 278 -210 278 -274 q 317 -109 278 -145 q 435 -72 357 -72 q 552 -109 512 -72 q 592 -210 592 -145 q 552 -311 592 -274 q 435 -347 512 -347 z "},"à":{"ha":875,"x_min":35,"x_max":806,"o":"m 389 776 q 631 742 540 776 q 763 628 721 707 q 806 411 806 549 l 806 0 l 552 0 l 531 67 l 518 67 q 314 -15 451 -15 q 163 14 225 -15 q 68 96 100 44 q 35 215 35 149 q 124 393 35 330 q 399 465 212 456 l 502 470 q 455 534 494 515 q 332 553 417 553 q 222 545 283 553 q 110 522 160 537 l 110 742 q 249 768 174 759 q 389 776 324 776 m 417 187 q 505 206 470 187 l 505 311 l 432 308 q 361 289 383 305 q 339 243 339 272 q 359 202 339 217 q 417 187 379 187 m 291 847 l 76 1122 l 408 1122 l 578 847 l 291 847 z "},"ả":{"ha":875,"x_min":35,"x_max":806,"o":"m 389 776 q 631 742 540 776 q 763 628 721 707 q 806 411 806 549 l 806 0 l 552 0 l 531 67 l 518 67 q 314 -15 451 -15 q 163 14 225 -15 q 68 96 100 44 q 35 215 35 149 q 124 393 35 330 q 399 465 212 456 l 502 470 q 455 534 494 515 q 332 553 417 553 q 222 545 283 553 q 110 522 160 537 l 110 742 q 249 768 174 759 q 389 776 324 776 m 417 187 q 505 206 470 187 l 505 311 l 432 308 q 361 289 383 305 q 339 243 339 272 q 359 202 339 217 q 417 187 379 187 m 363 847 q 375 897 364 876 q 400 931 386 918 q 435 958 415 944 q 462 980 454 972 q 470 999 470 988 q 456 1018 470 1012 q 407 1024 442 1024 q 283 1007 350 1024 l 283 1113 q 354 1126 312 1121 q 431 1131 396 1131 q 576 1103 529 1131 q 622 1018 622 1076 q 614 974 622 992 q 593 944 605 956 q 560 917 581 933 q 522 884 535 899 q 507 847 510 870 l 363 847 z "},"ȃ":{"ha":875,"x_min":35,"x_max":806,"o":"m 389 776 q 631 742 540 776 q 763 628 721 707 q 806 411 806 549 l 806 0 l 552 0 l 531 67 l 518 67 q 314 -15 451 -15 q 163 14 225 -15 q 68 96 100 44 q 35 215 35 149 q 124 393 35 330 q 399 465 212 456 l 502 470 q 455 534 494 515 q 332 553 417 553 q 222 545 283 553 q 110 522 160 537 l 110 742 q 249 768 174 759 q 389 776 324 776 m 417 187 q 505 206 470 187 l 505 311 l 432 308 q 361 289 383 305 q 339 243 339 272 q 359 202 339 217 q 417 187 379 187 m 134 867 q 218 1057 142 991 q 435 1124 295 1124 q 650 1057 573 1124 q 735 867 728 990 l 555 867 q 520 950 549 922 q 435 977 491 977 q 349 950 378 977 q 315 867 320 923 l 134 867 z "},"ā":{"ha":875,"x_min":35,"x_max":806,"o":"m 389 776 q 631 742 540 776 q 763 628 721 707 q 806 411 806 549 l 806 0 l 552 0 l 531 67 l 518 67 q 314 -15 451 -15 q 163 14 225 -15 q 68 96 100 44 q 35 215 35 149 q 124 393 35 330 q 399 465 212 456 l 502 470 q 455 534 494 515 q 332 553 417 553 q 222 545 283 553 q 110 522 160 537 l 110 742 q 249 768 174 759 q 389 776 324 776 m 417 187 q 505 206 470 187 l 505 311 l 432 308 q 361 289 383 305 q 339 243 339 272 q 359 202 339 217 q 417 187 379 187 m 156 899 l 156 1072 l 713 1072 l 713 899 l 156 899 z "},"ą":{"ha":875,"x_min":35,"x_max":816,"o":"m 734 -206 q 816 -190 774 -206 l 816 -299 q 756 -314 785 -309 q 688 -319 726 -319 q 531 -278 585 -319 q 478 -163 478 -236 q 502 -73 478 -114 q 583 0 526 -32 l 552 0 l 531 67 l 518 67 q 314 -15 451 -15 q 163 14 225 -15 q 68 96 100 44 q 35 215 35 149 q 124 393 35 330 q 399 465 212 456 l 502 470 q 455 534 494 515 q 332 553 417 553 q 222 545 283 553 q 110 522 160 537 l 110 742 q 249 768 174 759 q 389 776 324 776 q 631 742 540 776 q 763 628 721 707 q 806 411 806 549 l 806 0 q 683 -65 718 -31 q 649 -142 649 -99 q 670 -189 649 -172 q 734 -206 692 -206 m 417 187 q 505 206 470 187 l 505 311 l 432 308 q 361 289 383 305 q 339 243 339 272 q 359 202 339 217 q 417 187 379 187 z "},"å":{"ha":875,"x_min":35,"x_max":806,"o":"m 389 776 q 631 742 540 776 q 763 628 721 707 q 806 411 806 549 l 806 0 l 552 0 l 531 67 l 518 67 q 314 -15 451 -15 q 163 14 225 -15 q 68 96 100 44 q 35 215 35 149 q 124 393 35 330 q 399 465 212 456 l 502 470 q 455 534 494 515 q 332 553 417 553 q 222 545 283 553 q 110 522 160 537 l 110 742 q 249 768 174 759 q 389 776 324 776 m 417 187 q 505 206 470 187 l 505 311 l 432 308 q 361 289 383 305 q 339 243 339 272 q 359 202 339 217 q 417 187 379 187 m 435 843 q 353 863 390 843 q 297 917 317 883 q 276 996 276 952 q 297 1074 276 1040 q 353 1129 317 1109 q 435 1149 390 1149 q 516 1129 480 1149 q 573 1074 552 1109 q 593 996 593 1040 q 573 917 593 952 q 516 863 552 883 q 435 843 480 843 m 435 939 q 474 955 459 939 q 489 996 489 970 q 474 1037 489 1022 q 435 1053 459 1053 q 395 1037 410 1053 q 381 996 381 1022 q 395 955 381 970 q 435 939 410 939 z "},"ǻ":{"ha":875,"x_min":35,"x_max":806,"o":"m 389 776 q 631 742 540 776 q 763 628 721 707 q 806 411 806 549 l 806 0 l 552 0 l 531 67 l 518 67 q 314 -15 451 -15 q 163 14 225 -15 q 68 96 100 44 q 35 215 35 149 q 124 393 35 330 q 399 465 212 456 l 502 470 q 455 534 494 515 q 332 553 417 553 q 222 545 283 553 q 110 522 160 537 l 110 742 q 249 768 174 759 q 389 776 324 776 m 417 187 q 505 206 470 187 l 505 311 l 432 308 q 361 289 383 305 q 339 243 339 272 q 359 202 339 217 q 417 187 379 187 m 576 1067 q 593 996 593 1036 q 573 917 593 952 q 516 863 552 883 q 435 843 480 843 q 353 863 390 843 q 297 917 317 883 q 276 996 276 952 q 297 1074 276 1040 q 353 1129 317 1109 q 435 1149 390 1149 q 449 1148 444 1149 l 517 1236 l 722 1236 l 576 1067 m 435 939 q 474 955 459 939 q 489 996 489 970 q 474 1037 489 1022 q 435 1053 459 1053 q 395 1037 410 1053 q 381 996 381 1022 q 395 955 381 970 q 435 939 410 939 z "},"ã":{"ha":875,"x_min":35,"x_max":806,"o":"m 389 776 q 631 742 540 776 q 763 628 721 707 q 806 411 806 549 l 806 0 l 552 0 l 531 67 l 518 67 q 314 -15 451 -15 q 163 14 225 -15 q 68 96 100 44 q 35 215 35 149 q 124 393 35 330 q 399 465 212 456 l 502 470 q 455 534 494 515 q 332 553 417 553 q 222 545 283 553 q 110 522 160 537 l 110 742 q 249 768 174 759 q 389 776 324 776 m 417 187 q 505 206 470 187 l 505 311 l 432 308 q 361 289 383 305 q 339 243 339 272 q 359 202 339 217 q 417 187 379 187 m 555 863 q 493 873 522 863 q 422 900 464 882 q 359 925 385 917 q 308 933 334 933 q 230 918 265 933 q 156 869 194 903 l 156 1049 q 227 1094 189 1080 q 315 1108 265 1108 q 376 1098 347 1108 q 447 1071 406 1089 q 510 1046 485 1054 q 562 1038 535 1038 q 640 1053 605 1038 q 713 1101 675 1067 l 713 922 q 643 877 681 891 q 555 863 605 863 z "},"æ":{"ha":1319,"x_min":35,"x_max":1284,"o":"m 1284 299 l 808 299 q 833 244 813 263 q 900 215 853 224 q 1031 206 947 206 q 1235 225 1123 206 l 1235 7 q 984 -15 1111 -15 q 764 9 856 -15 q 615 85 672 34 q 489 9 558 34 q 342 -15 419 -15 q 171 14 240 -15 q 69 96 102 44 q 35 217 35 149 q 125 398 35 333 q 400 463 215 463 l 504 463 q 481 515 499 496 q 426 544 463 535 q 331 553 390 553 q 222 545 283 553 q 110 522 161 537 l 110 742 q 375 776 242 776 q 553 756 480 776 q 672 692 626 736 q 783 755 720 733 q 922 776 847 776 q 1118 728 1037 776 q 1242 589 1199 680 q 1284 371 1284 498 l 1284 299 m 903 592 q 831 562 854 592 q 806 463 807 532 l 1001 463 q 975 561 999 531 q 903 592 952 592 m 339 241 q 359 201 339 215 q 419 187 379 187 q 476 194 451 187 q 528 220 501 202 q 510 303 517 253 l 431 303 q 360 287 382 303 q 339 241 339 271 z "},"ǽ":{"ha":1319,"x_min":35,"x_max":1284,"o":"m 1284 299 l 808 299 q 833 244 813 263 q 900 215 853 224 q 1031 206 947 206 q 1235 225 1123 206 l 1235 7 q 984 -15 1111 -15 q 764 9 856 -15 q 615 85 672 34 q 489 9 558 34 q 342 -15 419 -15 q 171 14 240 -15 q 69 96 102 44 q 35 217 35 149 q 125 398 35 333 q 400 463 215 463 l 504 463 q 481 515 499 496 q 426 544 463 535 q 331 553 390 553 q 222 545 283 553 q 110 522 161 537 l 110 742 q 375 776 242 776 q 553 756 480 776 q 672 692 626 736 q 783 755 720 733 q 922 776 847 776 q 1118 728 1037 776 q 1242 589 1199 680 q 1284 371 1284 498 l 1284 299 m 903 592 q 831 562 854 592 q 806 463 807 532 l 1001 463 q 975 561 999 531 q 903 592 952 592 m 339 241 q 359 201 339 215 q 419 187 379 187 q 476 194 451 187 q 528 220 501 202 q 510 303 517 253 l 431 303 q 360 287 382 303 q 339 241 339 271 m 519 847 l 690 1122 l 1021 1122 l 806 847 l 519 847 z "},"b":{"ha":967,"x_min":74,"x_max":926,"o":"m 436 -15 q 247 -3 341 -15 q 74 34 153 9 l 74 1122 l 383 1122 l 383 695 l 396 695 q 603 776 472 776 q 766 734 693 776 q 883 607 840 692 q 926 400 926 522 q 803 92 926 199 q 436 -15 680 -15 m 462 213 q 581 252 542 213 q 619 378 619 292 q 585 495 619 460 q 485 531 551 531 q 383 509 426 531 l 383 221 q 462 213 419 213 z "},"c":{"ha":768,"x_min":42,"x_max":726,"o":"m 510 -15 q 162 86 282 -15 q 42 379 42 188 q 98 597 42 508 q 262 731 153 685 q 527 776 371 776 q 726 758 638 776 l 726 522 q 565 535 634 535 q 406 497 456 535 q 357 381 357 459 q 406 264 357 302 q 551 226 454 226 q 629 231 590 226 q 726 248 668 236 l 726 13 q 627 -8 683 0 q 510 -15 571 -15 z "},"ć":{"ha":768,"x_min":42,"x_max":775,"o":"m 510 -15 q 162 86 282 -15 q 42 379 42 188 q 98 597 42 508 q 262 731 153 685 q 527 776 371 776 q 726 758 638 776 l 726 522 q 565 535 634 535 q 406 497 456 535 q 357 381 357 459 q 406 264 357 302 q 551 226 454 226 q 629 231 590 226 q 726 248 668 236 l 726 13 q 627 -8 683 0 q 510 -15 571 -15 m 273 847 l 444 1122 l 775 1122 l 560 847 l 273 847 z "},"č":{"ha":768,"x_min":42,"x_max":726,"o":"m 510 -15 q 162 86 282 -15 q 42 379 42 188 q 98 597 42 508 q 262 731 153 685 q 527 776 371 776 q 726 758 638 776 l 726 522 q 565 535 634 535 q 406 497 456 535 q 357 381 357 459 q 406 264 357 302 q 551 226 454 226 q 629 231 590 226 q 726 248 668 236 l 726 13 q 627 -8 683 0 q 510 -15 571 -15 m 501 1122 l 719 1122 l 538 847 l 296 847 l 114 1122 l 332 1122 l 417 987 l 501 1122 z "},"ç":{"ha":768,"x_min":42,"x_max":726,"o":"m 565 535 q 406 497 456 535 q 357 381 357 459 q 406 264 357 302 q 551 226 454 226 q 629 231 590 226 q 726 248 668 236 l 726 13 q 628 -8 683 0 q 513 -15 572 -15 l 513 -53 q 602 -98 572 -65 q 633 -184 633 -132 q 581 -284 633 -248 q 430 -319 529 -319 q 292 -298 356 -319 l 292 -192 q 352 -207 317 -202 q 415 -212 387 -212 q 464 -203 448 -212 q 481 -170 481 -193 q 464 -137 481 -147 q 415 -126 447 -126 l 375 -126 l 375 -5 q 127 121 212 24 q 42 379 42 219 q 98 597 42 508 q 262 731 153 685 q 527 776 371 776 q 726 758 638 776 l 726 522 q 565 535 634 535 z "},"ḉ":{"ha":768,"x_min":42,"x_max":775,"o":"m 775 1122 l 560 847 l 273 847 l 444 1122 l 775 1122 m 42 379 q 98 597 42 508 q 262 731 153 685 q 527 776 371 776 q 726 758 638 776 l 726 522 q 565 535 634 535 q 406 497 456 535 q 357 381 357 459 q 406 264 357 302 q 551 226 454 226 q 629 231 590 226 q 726 248 668 236 l 726 13 q 628 -8 683 0 q 513 -15 572 -15 l 513 -53 q 602 -98 572 -65 q 633 -184 633 -132 q 581 -284 633 -248 q 430 -319 529 -319 q 292 -298 356 -319 l 292 -192 q 352 -207 317 -202 q 415 -212 387 -212 q 464 -203 448 -212 q 481 -170 481 -193 q 464 -137 481 -147 q 415 -126 447 -126 l 375 -126 l 375 -5 q 127 121 212 24 q 42 379 42 219 z "},"ĉ":{"ha":768,"x_min":42,"x_max":726,"o":"m 510 -15 q 162 86 282 -15 q 42 379 42 188 q 98 597 42 508 q 262 731 153 685 q 527 776 371 776 q 726 758 638 776 l 726 522 q 565 535 634 535 q 406 497 456 535 q 357 381 357 459 q 406 264 357 302 q 551 226 454 226 q 629 231 590 226 q 726 248 668 236 l 726 13 q 627 -8 683 0 q 510 -15 571 -15 m 719 847 l 501 847 l 417 983 l 332 847 l 114 847 l 296 1122 l 538 1122 l 719 847 z "},"ċ":{"ha":768,"x_min":42,"x_max":726,"o":"m 510 -15 q 162 86 282 -15 q 42 379 42 188 q 98 597 42 508 q 262 731 153 685 q 527 776 371 776 q 726 758 638 776 l 726 522 q 565 535 634 535 q 406 497 456 535 q 357 381 357 459 q 406 264 357 302 q 551 226 454 226 q 629 231 590 226 q 726 248 668 236 l 726 13 q 627 -8 683 0 q 510 -15 571 -15 m 417 838 q 233 985 233 838 q 417 1131 233 1131 q 600 985 600 1131 q 417 838 600 838 z "},"d":{"ha":967,"x_min":42,"x_max":894,"o":"m 388 -13 q 213 27 291 -13 q 88 152 135 67 q 42 365 42 238 q 95 588 42 495 q 249 729 148 681 q 494 778 351 778 q 585 774 531 778 l 585 1122 l 894 1122 l 894 0 l 636 0 l 619 76 l 606 76 q 512 10 567 34 q 388 -13 457 -13 m 479 232 q 536 239 508 232 q 585 260 565 247 l 585 542 q 506 549 542 549 q 386 510 425 549 q 348 387 348 472 q 382 268 348 303 q 479 232 415 232 z "},"ð":{"ha":948,"x_min":42,"x_max":910,"o":"m 742 901 q 865 672 821 792 q 910 436 910 551 q 797 97 910 210 q 474 -16 684 -16 q 243 31 340 -16 q 94 168 146 78 q 42 381 42 257 q 91 593 42 506 q 231 724 141 680 q 442 768 322 768 q 513 760 482 768 q 451 852 484 810 l 128 797 l 98 960 l 315 997 q 151 1122 239 1065 l 523 1122 q 614 1047 568 1090 l 852 1088 l 882 925 l 742 901 m 474 215 q 569 253 538 215 q 600 379 600 291 q 569 508 600 469 q 474 547 538 547 q 378 508 409 547 q 348 380 348 469 q 378 253 348 292 q 474 215 409 215 z "},"ď":{"ha":967,"x_min":42,"x_max":1158,"o":"m 388 -13 q 213 27 291 -13 q 88 152 135 67 q 42 365 42 238 q 95 588 42 495 q 249 729 148 681 q 494 778 351 778 q 585 774 531 778 l 585 1122 l 894 1122 l 894 0 l 636 0 l 619 76 l 606 76 q 512 10 567 34 q 388 -13 457 -13 m 479 232 q 536 239 508 232 q 585 260 565 247 l 585 542 q 506 549 542 549 q 386 510 425 549 q 348 387 348 472 q 382 268 348 303 q 479 232 415 232 m 935 819 q 954 967 949 899 q 960 1122 960 1036 l 1158 1122 q 1141 957 1158 1036 q 1097 819 1125 878 l 935 819 z "},"đ":{"ha":967,"x_min":42,"x_max":967,"o":"m 967 851 l 894 851 l 894 0 l 636 0 l 619 76 l 606 76 q 512 10 567 34 q 388 -13 457 -13 q 213 27 291 -13 q 88 152 135 67 q 42 365 42 238 q 95 588 42 495 q 249 729 148 681 q 494 778 351 778 q 585 774 531 778 l 585 851 l 326 851 l 326 1031 l 585 1031 l 585 1122 l 894 1122 l 894 1031 l 967 1031 l 967 851 m 585 542 q 506 549 542 549 q 386 510 425 549 q 348 387 348 472 q 382 268 348 303 q 479 232 415 232 q 536 239 508 232 q 585 260 565 247 l 585 542 z "},"ḍ":{"ha":967,"x_min":42,"x_max":894,"o":"m 388 -13 q 213 27 291 -13 q 88 152 135 67 q 42 365 42 238 q 95 588 42 495 q 249 729 148 681 q 494 778 351 778 q 585 774 531 778 l 585 1122 l 894 1122 l 894 0 l 636 0 l 619 76 l 606 76 q 512 10 567 34 q 388 -13 457 -13 m 479 232 q 536 239 508 232 q 585 260 565 247 l 585 542 q 506 549 542 549 q 386 510 425 549 q 348 387 348 472 q 382 268 348 303 q 479 232 415 232 m 493 -347 q 376 -311 415 -347 q 336 -210 336 -274 q 376 -109 336 -145 q 493 -72 415 -72 q 610 -109 570 -72 q 650 -210 650 -145 q 610 -311 650 -274 q 493 -347 570 -347 z "},"ḏ":{"ha":967,"x_min":42,"x_max":894,"o":"m 388 -13 q 213 27 291 -13 q 88 152 135 67 q 42 365 42 238 q 95 588 42 495 q 249 729 148 681 q 494 778 351 778 q 585 774 531 778 l 585 1122 l 894 1122 l 894 0 l 636 0 l 619 76 l 606 76 q 512 10 567 34 q 388 -13 457 -13 m 479 232 q 536 239 508 232 q 585 260 565 247 l 585 542 q 506 549 542 549 q 386 510 425 549 q 348 387 348 472 q 382 268 348 303 q 479 232 415 232 m 215 -292 l 215 -122 l 772 -122 l 772 -292 l 215 -292 z "},"ǳ":{"ha":1783,"x_min":42,"x_max":1743,"o":"m 388 -13 q 213 27 291 -13 q 88 152 135 67 q 42 365 42 238 q 95 588 42 495 q 249 729 148 681 q 494 778 351 778 q 585 774 531 778 l 585 1122 l 894 1122 l 894 0 l 636 0 l 619 76 l 606 76 q 512 10 567 34 q 388 -13 457 -13 m 479 232 q 536 239 508 232 q 585 260 565 247 l 585 542 q 506 549 542 549 q 386 510 425 549 q 348 387 348 472 q 382 268 348 303 q 479 232 415 232 m 1421 240 l 1743 240 l 1743 0 l 1022 0 l 1022 198 l 1338 524 l 1029 524 l 1029 764 l 1736 764 l 1736 566 l 1421 240 z "},"ǆ":{"ha":1783,"x_min":42,"x_max":1743,"o":"m 388 -13 q 213 27 291 -13 q 88 152 135 67 q 42 365 42 238 q 95 588 42 495 q 249 729 148 681 q 494 778 351 778 q 585 774 531 778 l 585 1122 l 894 1122 l 894 0 l 636 0 l 619 76 l 606 76 q 512 10 567 34 q 388 -13 457 -13 m 479 232 q 536 239 508 232 q 585 260 565 247 l 585 542 q 506 549 542 549 q 386 510 425 549 q 348 387 348 472 q 382 268 348 303 q 479 232 415 232 m 1421 240 l 1743 240 l 1743 0 l 1022 0 l 1022 198 l 1338 524 l 1029 524 l 1029 764 l 1736 764 l 1736 566 l 1421 240 m 1468 1122 l 1686 1122 l 1504 847 l 1263 847 l 1081 1122 l 1299 1122 l 1383 987 l 1468 1122 z "},"e":{"ha":864,"x_min":42,"x_max":829,"o":"m 829 299 l 347 299 q 373 244 352 263 q 442 215 394 224 q 576 206 490 206 q 781 225 668 206 l 781 7 q 528 -15 656 -15 q 251 27 358 -15 q 93 156 144 69 q 42 381 42 243 q 89 591 42 502 q 227 728 135 681 q 450 776 319 776 q 659 728 574 776 q 786 589 744 679 q 829 371 829 498 l 829 299 m 446 592 q 370 562 394 592 q 345 463 347 532 l 546 463 q 520 562 544 532 q 446 592 497 592 z "},"é":{"ha":864,"x_min":42,"x_max":829,"o":"m 829 299 l 347 299 q 373 244 352 263 q 442 215 394 224 q 576 206 490 206 q 781 225 668 206 l 781 7 q 528 -15 656 -15 q 251 27 358 -15 q 93 156 144 69 q 42 381 42 243 q 89 591 42 502 q 227 728 135 681 q 450 776 319 776 q 659 728 574 776 q 786 589 744 679 q 829 371 829 498 l 829 299 m 446 592 q 370 562 394 592 q 345 463 347 532 l 546 463 q 520 562 544 532 q 446 592 497 592 m 301 847 l 472 1122 l 803 1122 l 588 847 l 301 847 z "},"ĕ":{"ha":864,"x_min":42,"x_max":829,"o":"m 829 299 l 347 299 q 373 244 352 263 q 442 215 394 224 q 576 206 490 206 q 781 225 668 206 l 781 7 q 528 -15 656 -15 q 251 27 358 -15 q 93 156 144 69 q 42 381 42 243 q 89 591 42 502 q 227 728 135 681 q 450 776 319 776 q 659 728 574 776 q 786 589 744 679 q 829 371 829 498 l 829 299 m 446 592 q 370 562 394 592 q 345 463 347 532 l 546 463 q 520 562 544 532 q 446 592 497 592 m 444 851 q 228 918 306 851 q 144 1108 151 985 l 324 1108 q 359 1026 330 1053 q 444 999 388 999 q 530 1026 501 999 q 565 1108 559 1053 l 745 1108 q 660 918 738 985 q 444 851 583 851 z "},"ě":{"ha":864,"x_min":42,"x_max":829,"o":"m 829 299 l 347 299 q 373 244 352 263 q 442 215 394 224 q 576 206 490 206 q 781 225 668 206 l 781 7 q 528 -15 656 -15 q 251 27 358 -15 q 93 156 144 69 q 42 381 42 243 q 89 591 42 502 q 227 728 135 681 q 450 776 319 776 q 659 728 574 776 q 786 589 744 679 q 829 371 829 498 l 829 299 m 446 592 q 370 562 394 592 q 345 463 347 532 l 546 463 q 520 562 544 532 q 446 592 497 592 m 529 1122 l 747 1122 l 565 847 l 324 847 l 142 1122 l 360 1122 l 444 987 l 529 1122 z "},"ḝ":{"ha":864,"x_min":42,"x_max":829,"o":"m 444 851 q 228 918 306 851 q 144 1108 151 985 l 324 1108 q 359 1026 330 1053 q 444 999 388 999 q 530 1026 501 999 q 565 1108 559 1053 l 745 1108 q 660 918 738 985 q 444 851 583 851 m 829 299 l 347 299 q 373 244 352 263 q 442 215 394 224 q 576 206 490 206 q 781 225 668 206 l 781 7 q 528 -15 656 -15 l 522 -15 l 522 -53 q 612 -98 582 -65 q 642 -184 642 -132 q 591 -284 642 -248 q 440 -319 539 -319 q 301 -298 366 -319 l 301 -192 q 362 -207 327 -202 q 424 -212 397 -212 q 474 -203 458 -212 q 490 -170 490 -193 q 474 -137 490 -147 q 424 -126 457 -126 l 385 -126 l 385 -6 q 124 113 207 18 q 42 381 42 207 q 89 591 42 502 q 227 728 135 681 q 450 776 319 776 q 659 728 574 776 q 786 589 744 679 q 829 371 829 498 l 829 299 m 446 592 q 370 562 394 592 q 345 463 347 532 l 546 463 q 520 562 544 532 q 446 592 497 592 z "},"ê":{"ha":864,"x_min":42,"x_max":829,"o":"m 829 299 l 347 299 q 373 244 352 263 q 442 215 394 224 q 576 206 490 206 q 781 225 668 206 l 781 7 q 528 -15 656 -15 q 251 27 358 -15 q 93 156 144 69 q 42 381 42 243 q 89 591 42 502 q 227 728 135 681 q 450 776 319 776 q 659 728 574 776 q 786 589 744 679 q 829 371 829 498 l 829 299 m 446 592 q 370 562 394 592 q 345 463 347 532 l 546 463 q 520 562 544 532 q 446 592 497 592 m 747 847 l 529 847 l 444 983 l 360 847 l 142 847 l 324 1122 l 565 1122 l 747 847 z "},"ế":{"ha":864,"x_min":42,"x_max":1006,"o":"m 829 299 l 347 299 q 373 244 352 263 q 442 215 394 224 q 576 206 490 206 q 781 225 668 206 l 781 7 q 528 -15 656 -15 q 251 27 358 -15 q 93 156 144 69 q 42 381 42 243 q 89 591 42 502 q 227 728 135 681 q 450 776 319 776 q 659 728 574 776 q 786 589 744 679 q 829 371 829 498 l 829 299 m 446 592 q 370 562 394 592 q 345 463 347 532 l 546 463 q 520 562 544 532 q 446 592 497 592 m 749 1297 l 1006 1297 l 826 1110 l 615 1110 l 749 1297 m 324 1122 l 565 1122 l 747 847 l 529 847 l 444 983 l 360 847 l 142 847 l 324 1122 z "},"ệ":{"ha":864,"x_min":42,"x_max":829,"o":"m 829 299 l 347 299 q 373 244 352 263 q 442 215 394 224 q 576 206 490 206 q 781 225 668 206 l 781 7 q 528 -15 656 -15 q 251 27 358 -15 q 93 156 144 69 q 42 381 42 243 q 89 591 42 502 q 227 728 135 681 q 450 776 319 776 q 659 728 574 776 q 786 589 744 679 q 829 371 829 498 l 829 299 m 446 592 q 370 562 394 592 q 345 463 347 532 l 546 463 q 520 562 544 532 q 446 592 497 592 m 444 -347 q 327 -311 367 -347 q 288 -210 288 -274 q 327 -109 288 -145 q 444 -72 367 -72 q 561 -109 522 -72 q 601 -210 601 -145 q 561 -311 601 -274 q 444 -347 522 -347 m 747 847 l 529 847 l 444 983 l 360 847 l 142 847 l 324 1122 l 565 1122 l 747 847 z "},"ề":{"ha":864,"x_min":42,"x_max":854,"o":"m 829 299 l 347 299 q 373 244 352 263 q 442 215 394 224 q 576 206 490 206 q 781 225 668 206 l 781 7 q 528 -15 656 -15 q 251 27 358 -15 q 93 156 144 69 q 42 381 42 243 q 89 591 42 502 q 227 728 135 681 q 450 776 319 776 q 659 728 574 776 q 786 589 744 679 q 829 371 829 498 l 829 299 m 446 592 q 370 562 394 592 q 345 463 347 532 l 546 463 q 520 562 544 532 q 446 592 497 592 m 854 1110 l 642 1110 l 463 1297 l 719 1297 l 854 1110 m 324 1122 l 565 1122 l 747 847 l 529 847 l 444 983 l 360 847 l 142 847 l 324 1122 z "},"ể":{"ha":864,"x_min":42,"x_max":860,"o":"m 829 299 l 347 299 q 373 244 352 263 q 442 215 394 224 q 576 206 490 206 q 781 225 668 206 l 781 7 q 528 -15 656 -15 q 251 27 358 -15 q 93 156 144 69 q 42 381 42 243 q 89 591 42 502 q 227 728 135 681 q 450 776 319 776 q 659 728 574 776 q 786 589 744 679 q 829 371 829 498 l 829 299 m 446 592 q 370 562 394 592 q 345 463 347 532 l 546 463 q 520 562 544 532 q 446 592 497 592 m 675 1315 q 816 1295 772 1315 q 860 1228 860 1274 q 845 1193 860 1206 q 801 1164 830 1179 q 762 1139 776 1150 q 744 1110 748 1127 l 614 1110 q 636 1158 616 1141 q 690 1189 656 1174 q 711 1200 705 1196 q 717 1208 717 1203 q 701 1223 717 1219 q 651 1228 685 1228 q 529 1217 587 1228 l 529 1301 q 598 1311 556 1308 q 675 1315 641 1315 m 324 1122 l 565 1122 l 747 847 l 529 847 l 444 983 l 360 847 l 142 847 l 324 1122 z "},"ễ":{"ha":864,"x_min":42,"x_max":829,"o":"m 829 299 l 347 299 q 373 244 352 263 q 442 215 394 224 q 576 206 490 206 q 781 225 668 206 l 781 7 q 528 -15 656 -15 q 251 27 358 -15 q 93 156 144 69 q 42 381 42 243 q 89 591 42 502 q 227 728 135 681 q 450 776 319 776 q 659 728 574 776 q 786 589 744 679 q 829 371 829 498 l 829 299 m 446 592 q 370 562 394 592 q 345 463 347 532 l 546 463 q 520 562 544 532 q 446 592 497 592 m 577 1108 q 509 1114 540 1108 q 433 1131 478 1119 q 364 1147 392 1142 q 305 1153 335 1153 q 223 1143 259 1153 q 148 1113 188 1133 l 148 1251 q 220 1286 181 1275 q 312 1297 258 1297 q 380 1291 349 1297 q 456 1273 411 1285 q 525 1257 497 1263 q 584 1251 553 1251 q 666 1261 630 1251 q 741 1292 701 1271 l 741 1153 q 670 1119 708 1129 q 577 1108 631 1108 m 778 849 l 545 849 l 444 960 l 344 849 l 110 849 l 317 1068 l 572 1068 l 778 849 z "},"ȅ":{"ha":864,"x_min":42,"x_max":829,"o":"m 829 299 l 347 299 q 373 244 352 263 q 442 215 394 224 q 576 206 490 206 q 781 225 668 206 l 781 7 q 528 -15 656 -15 q 251 27 358 -15 q 93 156 144 69 q 42 381 42 243 q 89 591 42 502 q 227 728 135 681 q 450 776 319 776 q 659 728 574 776 q 786 589 744 679 q 829 371 829 498 l 829 299 m 446 592 q 370 562 394 592 q 345 463 347 532 l 546 463 q 520 562 544 532 q 446 592 497 592 m 174 847 l 49 1122 l 284 1122 l 394 847 l 174 847 m 495 847 l 370 1122 l 605 1122 l 715 847 l 495 847 z "},"ë":{"ha":864,"x_min":42,"x_max":829,"o":"m 829 299 l 347 299 q 373 244 352 263 q 442 215 394 224 q 576 206 490 206 q 781 225 668 206 l 781 7 q 528 -15 656 -15 q 251 27 358 -15 q 93 156 144 69 q 42 381 42 243 q 89 591 42 502 q 227 728 135 681 q 450 776 319 776 q 659 728 574 776 q 786 589 744 679 q 829 371 829 498 l 829 299 m 446 592 q 370 562 394 592 q 345 463 347 532 l 546 463 q 520 562 544 532 q 446 592 497 592 m 253 842 q 136 880 176 842 q 97 985 97 917 q 136 1090 97 1053 q 253 1127 176 1127 q 371 1090 331 1127 q 410 985 410 1053 q 371 880 410 917 q 253 842 331 842 m 635 842 q 518 880 558 842 q 478 985 478 917 q 518 1090 478 1053 q 635 1127 558 1127 q 753 1090 713 1127 q 792 985 792 1053 q 753 880 792 917 q 635 842 713 842 z "},"ė":{"ha":864,"x_min":42,"x_max":829,"o":"m 829 299 l 347 299 q 373 244 352 263 q 442 215 394 224 q 576 206 490 206 q 781 225 668 206 l 781 7 q 528 -15 656 -15 q 251 27 358 -15 q 93 156 144 69 q 42 381 42 243 q 89 591 42 502 q 227 728 135 681 q 450 776 319 776 q 659 728 574 776 q 786 589 744 679 q 829 371 829 498 l 829 299 m 446 592 q 370 562 394 592 q 345 463 347 532 l 546 463 q 520 562 544 532 q 446 592 497 592 m 444 838 q 261 985 261 838 q 444 1131 261 1131 q 628 985 628 1131 q 444 838 628 838 z "},"ẹ":{"ha":864,"x_min":42,"x_max":829,"o":"m 829 299 l 347 299 q 373 244 352 263 q 442 215 394 224 q 576 206 490 206 q 781 225 668 206 l 781 7 q 528 -15 656 -15 q 251 27 358 -15 q 93 156 144 69 q 42 381 42 243 q 89 591 42 502 q 227 728 135 681 q 450 776 319 776 q 659 728 574 776 q 786 589 744 679 q 829 371 829 498 l 829 299 m 446 592 q 370 562 394 592 q 345 463 347 532 l 546 463 q 520 562 544 532 q 446 592 497 592 m 444 -347 q 327 -311 367 -347 q 288 -210 288 -274 q 327 -109 288 -145 q 444 -72 367 -72 q 561 -109 522 -72 q 601 -210 601 -145 q 561 -311 601 -274 q 444 -347 522 -347 z "},"è":{"ha":864,"x_min":42,"x_max":829,"o":"m 829 299 l 347 299 q 373 244 352 263 q 442 215 394 224 q 576 206 490 206 q 781 225 668 206 l 781 7 q 528 -15 656 -15 q 251 27 358 -15 q 93 156 144 69 q 42 381 42 243 q 89 591 42 502 q 227 728 135 681 q 450 776 319 776 q 659 728 574 776 q 786 589 744 679 q 829 371 829 498 l 829 299 m 446 592 q 370 562 394 592 q 345 463 347 532 l 546 463 q 520 562 544 532 q 446 592 497 592 m 301 847 l 86 1122 l 417 1122 l 588 847 l 301 847 z "},"ẻ":{"ha":864,"x_min":42,"x_max":829,"o":"m 829 299 l 347 299 q 373 244 352 263 q 442 215 394 224 q 576 206 490 206 q 781 225 668 206 l 781 7 q 528 -15 656 -15 q 251 27 358 -15 q 93 156 144 69 q 42 381 42 243 q 89 591 42 502 q 227 728 135 681 q 450 776 319 776 q 659 728 574 776 q 786 589 744 679 q 829 371 829 498 l 829 299 m 446 592 q 370 562 394 592 q 345 463 347 532 l 546 463 q 520 562 544 532 q 446 592 497 592 m 372 847 q 385 897 374 876 q 410 931 396 918 q 445 958 424 944 q 472 980 464 972 q 480 999 480 988 q 466 1018 480 1012 q 417 1024 451 1024 q 293 1007 360 1024 l 293 1113 q 364 1126 322 1121 q 440 1131 406 1131 q 585 1103 539 1131 q 632 1018 632 1076 q 623 974 632 992 q 602 944 615 956 q 570 917 590 933 q 532 884 544 899 q 517 847 519 870 l 372 847 z "},"ȇ":{"ha":864,"x_min":42,"x_max":829,"o":"m 829 299 l 347 299 q 373 244 352 263 q 442 215 394 224 q 576 206 490 206 q 781 225 668 206 l 781 7 q 528 -15 656 -15 q 251 27 358 -15 q 93 156 144 69 q 42 381 42 243 q 89 591 42 502 q 227 728 135 681 q 450 776 319 776 q 659 728 574 776 q 786 589 744 679 q 829 371 829 498 l 829 299 m 446 592 q 370 562 394 592 q 345 463 347 532 l 546 463 q 520 562 544 532 q 446 592 497 592 m 144 867 q 228 1057 151 991 q 444 1124 305 1124 q 660 1057 583 1124 q 745 867 738 990 l 565 867 q 530 950 559 922 q 444 977 501 977 q 359 950 388 977 q 324 867 330 923 l 144 867 z "},"ē":{"ha":864,"x_min":42,"x_max":829,"o":"m 829 299 l 347 299 q 373 244 352 263 q 442 215 394 224 q 576 206 490 206 q 781 225 668 206 l 781 7 q 528 -15 656 -15 q 251 27 358 -15 q 93 156 144 69 q 42 381 42 243 q 89 591 42 502 q 227 728 135 681 q 450 776 319 776 q 659 728 574 776 q 786 589 744 679 q 829 371 829 498 l 829 299 m 446 592 q 370 562 394 592 q 345 463 347 532 l 546 463 q 520 562 544 532 q 446 592 497 592 m 166 899 l 166 1072 l 723 1072 l 723 899 l 166 899 z "},"ḗ":{"ha":864,"x_min":42,"x_max":829,"o":"m 829 299 l 347 299 q 373 244 352 263 q 442 215 394 224 q 576 206 490 206 q 781 225 668 206 l 781 7 q 528 -15 656 -15 q 251 27 358 -15 q 93 156 144 69 q 42 381 42 243 q 89 591 42 502 q 227 728 135 681 q 450 776 319 776 q 659 728 574 776 q 786 589 744 679 q 829 371 829 498 l 829 299 m 446 592 q 370 562 394 592 q 345 463 347 532 l 546 463 q 520 562 544 532 q 446 592 497 592 m 166 899 l 166 1072 l 723 1072 l 723 899 l 166 899 m 303 1168 l 438 1388 l 761 1388 l 581 1168 l 303 1168 z "},"ḕ":{"ha":864,"x_min":42,"x_max":829,"o":"m 829 299 l 347 299 q 373 244 352 263 q 442 215 394 224 q 576 206 490 206 q 781 225 668 206 l 781 7 q 528 -15 656 -15 q 251 27 358 -15 q 93 156 144 69 q 42 381 42 243 q 89 591 42 502 q 227 728 135 681 q 450 776 319 776 q 659 728 574 776 q 786 589 744 679 q 829 371 829 498 l 829 299 m 446 592 q 370 562 394 592 q 345 463 347 532 l 546 463 q 520 562 544 532 q 446 592 497 592 m 166 899 l 166 1072 l 723 1072 l 723 899 l 166 899 m 306 1168 l 126 1388 l 449 1388 l 583 1168 l 306 1168 z "},"ę":{"ha":864,"x_min":42,"x_max":829,"o":"m 829 299 l 347 299 q 373 244 352 263 q 442 215 394 224 q 576 206 490 206 q 781 225 668 206 l 781 7 q 651 -61 688 -24 q 613 -142 613 -98 q 635 -189 613 -172 q 699 -206 656 -206 q 781 -190 739 -206 l 781 -299 q 720 -314 749 -309 q 652 -319 691 -319 q 495 -278 549 -319 q 442 -163 442 -236 q 461 -83 442 -119 q 523 -15 480 -46 q 248 28 354 -15 q 92 157 142 70 q 42 381 42 244 q 89 591 42 502 q 227 728 135 681 q 450 776 319 776 q 659 728 574 776 q 786 589 744 679 q 829 371 829 498 l 829 299 m 446 585 q 370 555 394 585 q 345 456 347 525 l 546 456 q 520 555 544 525 q 446 585 497 585 z "},"ẽ":{"ha":864,"x_min":42,"x_max":829,"o":"m 829 299 l 347 299 q 373 244 352 263 q 442 215 394 224 q 576 206 490 206 q 781 225 668 206 l 781 7 q 528 -15 656 -15 q 251 27 358 -15 q 93 156 144 69 q 42 381 42 243 q 89 591 42 502 q 227 728 135 681 q 450 776 319 776 q 659 728 574 776 q 786 589 744 679 q 829 371 829 498 l 829 299 m 446 592 q 370 562 394 592 q 345 463 347 532 l 546 463 q 520 562 544 532 q 446 592 497 592 m 565 863 q 503 873 532 863 q 432 900 474 882 q 369 925 394 917 q 317 933 344 933 q 239 918 274 933 q 166 869 204 903 l 166 1049 q 236 1094 199 1080 q 324 1108 274 1108 q 386 1098 357 1108 q 457 1071 415 1089 q 520 1046 494 1054 q 572 1038 545 1038 q 650 1053 615 1038 q 723 1101 685 1067 l 723 922 q 652 877 690 891 q 565 863 615 863 z "},"ə":{"ha":864,"x_min":35,"x_max":822,"o":"m 335 779 q 613 737 506 779 q 771 608 720 695 q 822 383 822 521 q 775 173 822 262 q 637 35 728 83 q 414 -12 545 -12 q 205 36 290 -12 q 77 175 120 85 q 35 393 35 266 l 35 465 l 517 465 q 491 520 512 501 q 422 549 469 540 q 288 558 374 558 q 83 539 196 558 l 83 757 q 335 779 208 779 m 418 172 q 493 202 469 172 q 519 301 517 232 l 318 301 q 344 202 320 232 q 418 172 367 172 z "},"f":{"ha":639,"x_min":27,"x_max":673,"o":"m 601 898 q 488 869 524 898 q 453 783 453 841 l 453 764 l 637 764 l 637 524 l 453 524 l 453 0 l 146 0 l 146 524 l 27 524 l 27 764 l 146 764 l 146 772 q 193 965 146 883 q 332 1092 241 1047 q 549 1136 422 1136 q 673 1128 610 1136 l 673 894 q 601 898 633 898 z "},"g":{"ha":967,"x_min":42,"x_max":894,"o":"m 401 -319 q 98 -287 237 -319 l 98 -53 q 244 -81 172 -72 q 376 -90 317 -90 q 537 -57 489 -90 q 585 49 585 -23 l 585 83 l 572 83 q 364 1 496 1 q 203 44 276 1 q 85 168 129 86 q 42 366 42 251 q 96 586 42 494 q 261 727 151 678 q 533 776 371 776 q 723 764 625 776 q 894 728 820 751 l 894 109 q 841 -134 894 -40 q 680 -274 788 -228 q 401 -319 571 -319 m 482 246 q 585 268 541 246 l 585 541 q 506 549 546 549 q 348 390 348 549 q 382 279 348 313 q 482 246 416 246 z "},"ǵ":{"ha":967,"x_min":42,"x_max":894,"o":"m 401 -319 q 98 -287 237 -319 l 98 -53 q 244 -81 172 -72 q 376 -90 317 -90 q 537 -57 489 -90 q 585 49 585 -23 l 585 83 l 572 83 q 364 1 496 1 q 203 44 276 1 q 85 168 129 86 q 42 366 42 251 q 96 586 42 494 q 261 727 151 678 q 533 776 371 776 q 723 764 625 776 q 894 728 820 751 l 894 109 q 841 -134 894 -40 q 680 -274 788 -228 q 401 -319 571 -319 m 482 246 q 585 268 541 246 l 585 541 q 506 549 546 549 q 348 390 348 549 q 382 279 348 313 q 482 246 416 246 m 362 847 l 533 1122 l 864 1122 l 649 847 l 362 847 z "},"ğ":{"ha":967,"x_min":42,"x_max":894,"o":"m 401 -319 q 98 -287 237 -319 l 98 -53 q 244 -81 172 -72 q 376 -90 317 -90 q 537 -57 489 -90 q 585 49 585 -23 l 585 83 l 572 83 q 364 1 496 1 q 203 44 276 1 q 85 168 129 86 q 42 366 42 251 q 96 586 42 494 q 261 727 151 678 q 533 776 371 776 q 723 764 625 776 q 894 728 820 751 l 894 109 q 841 -134 894 -40 q 680 -274 788 -228 q 401 -319 571 -319 m 482 246 q 585 268 541 246 l 585 541 q 506 549 546 549 q 348 390 348 549 q 382 279 348 313 q 482 246 416 246 m 506 851 q 290 918 367 851 q 205 1108 213 985 l 385 1108 q 420 1026 391 1053 q 506 999 449 999 q 591 1026 562 999 q 626 1108 620 1053 l 806 1108 q 722 918 799 985 q 506 851 644 851 z "},"ǧ":{"ha":967,"x_min":42,"x_max":894,"o":"m 401 -319 q 98 -287 237 -319 l 98 -53 q 244 -81 172 -72 q 376 -90 317 -90 q 537 -57 489 -90 q 585 49 585 -23 l 585 83 l 572 83 q 364 1 496 1 q 203 44 276 1 q 85 168 129 86 q 42 366 42 251 q 96 586 42 494 q 261 727 151 678 q 533 776 371 776 q 723 764 625 776 q 894 728 820 751 l 894 109 q 841 -134 894 -40 q 680 -274 788 -228 q 401 -319 571 -319 m 482 246 q 585 268 541 246 l 585 541 q 506 549 546 549 q 348 390 348 549 q 382 279 348 313 q 482 246 416 246 m 590 1122 l 808 1122 l 626 847 l 385 847 l 203 1122 l 421 1122 l 506 987 l 590 1122 z "},"ĝ":{"ha":967,"x_min":42,"x_max":894,"o":"m 401 -319 q 98 -287 237 -319 l 98 -53 q 244 -81 172 -72 q 376 -90 317 -90 q 537 -57 489 -90 q 585 49 585 -23 l 585 83 l 572 83 q 364 1 496 1 q 203 44 276 1 q 85 168 129 86 q 42 366 42 251 q 96 586 42 494 q 261 727 151 678 q 533 776 371 776 q 723 764 625 776 q 894 728 820 751 l 894 109 q 841 -134 894 -40 q 680 -274 788 -228 q 401 -319 571 -319 m 482 246 q 585 268 541 246 l 585 541 q 506 549 546 549 q 348 390 348 549 q 382 279 348 313 q 482 246 416 246 m 808 847 l 590 847 l 506 983 l 421 847 l 203 847 l 385 1122 l 626 1122 l 808 847 z "},"ģ":{"ha":967,"x_min":42,"x_max":894,"o":"m 401 -319 q 98 -287 237 -319 l 98 -53 q 244 -81 172 -72 q 376 -90 317 -90 q 537 -57 489 -90 q 585 49 585 -23 l 585 83 l 572 83 q 364 1 496 1 q 203 44 276 1 q 85 168 129 86 q 42 366 42 251 q 96 586 42 494 q 261 727 151 678 q 533 776 371 776 q 723 764 625 776 q 894 728 820 751 l 894 109 q 841 -134 894 -40 q 680 -274 788 -228 q 401 -319 571 -319 m 482 246 q 585 268 541 246 l 585 541 q 506 549 546 549 q 348 390 348 549 q 382 279 348 313 q 482 246 416 246 m 549 1026 q 642 998 613 1021 q 671 935 671 974 q 506 842 671 842 q 340 965 340 842 q 358 1053 340 1007 q 406 1130 376 1099 l 594 1130 q 549 1026 560 1071 z "},"ġ":{"ha":967,"x_min":42,"x_max":894,"o":"m 401 -319 q 98 -287 237 -319 l 98 -53 q 244 -81 172 -72 q 376 -90 317 -90 q 537 -57 489 -90 q 585 49 585 -23 l 585 83 l 572 83 q 364 1 496 1 q 203 44 276 1 q 85 168 129 86 q 42 366 42 251 q 96 586 42 494 q 261 727 151 678 q 533 776 371 776 q 723 764 625 776 q 894 728 820 751 l 894 109 q 841 -134 894 -40 q 680 -274 788 -228 q 401 -319 571 -319 m 482 246 q 585 268 541 246 l 585 541 q 506 549 546 549 q 348 390 348 549 q 382 279 348 313 q 482 246 416 246 m 506 838 q 322 985 322 838 q 506 1131 322 1131 q 689 985 689 1131 q 506 838 689 838 z "},"ḡ":{"ha":967,"x_min":42,"x_max":894,"o":"m 401 -319 q 98 -287 237 -319 l 98 -53 q 244 -81 172 -72 q 376 -90 317 -90 q 537 -57 489 -90 q 585 49 585 -23 l 585 83 l 572 83 q 364 1 496 1 q 203 44 276 1 q 85 168 129 86 q 42 366 42 251 q 96 586 42 494 q 261 727 151 678 q 533 776 371 776 q 723 764 625 776 q 894 728 820 751 l 894 109 q 841 -134 894 -40 q 680 -274 788 -228 q 401 -319 571 -319 m 482 246 q 585 268 541 246 l 585 541 q 506 549 546 549 q 348 390 348 549 q 382 279 348 313 q 482 246 416 246 m 227 899 l 227 1072 l 784 1072 l 784 899 l 227 899 z "},"h":{"ha":952,"x_min":74,"x_max":883,"o":"m 74 1122 l 383 1122 l 383 695 l 396 695 q 488 756 435 735 q 603 776 541 776 q 747 741 685 776 q 846 631 810 706 q 883 440 883 556 l 883 0 l 574 0 l 574 420 q 554 495 574 474 q 491 517 533 517 q 431 506 460 517 q 383 477 401 495 l 383 0 l 74 0 l 74 1122 z "},"ħ":{"ha":952,"x_min":1,"x_max":883,"o":"m 603 776 q 747 741 685 776 q 846 631 810 706 q 883 440 883 556 l 883 0 l 574 0 l 574 420 q 554 495 574 474 q 491 517 533 517 q 431 506 460 517 q 383 477 401 495 l 383 0 l 74 0 l 74 847 l 1 847 l 1 1028 l 74 1028 l 74 1122 l 383 1122 l 383 1028 l 642 1028 l 642 847 l 383 847 l 383 695 l 396 695 q 488 756 435 735 q 603 776 541 776 z "},"ḫ":{"ha":952,"x_min":74,"x_max":883,"o":"m 74 1122 l 383 1122 l 383 695 l 396 695 q 488 756 435 735 q 603 776 541 776 q 747 741 685 776 q 846 631 810 706 q 883 440 883 556 l 883 0 l 574 0 l 574 420 q 554 495 574 474 q 491 517 533 517 q 431 506 460 517 q 383 477 401 495 l 383 0 l 74 0 l 74 1122 m 479 -334 q 320 -306 386 -334 q 217 -224 253 -278 q 178 -97 181 -171 l 359 -97 q 479 -188 364 -188 q 599 -97 594 -188 l 780 -97 q 741 -224 777 -171 q 639 -306 705 -278 q 479 -334 572 -334 z "},"ĥ":{"ha":952,"x_min":74,"x_max":883,"o":"m 74 1122 l 383 1122 l 383 695 l 396 695 q 488 756 435 735 q 603 776 541 776 q 747 741 685 776 q 846 631 810 706 q 883 440 883 556 l 883 0 l 574 0 l 574 420 q 554 495 574 474 q 491 517 533 517 q 431 506 460 517 q 383 477 401 495 l 383 0 l 74 0 l 74 1122 m 813 1168 l 580 1168 l 479 1280 l 378 1168 l 145 1168 l 351 1388 l 607 1388 l 813 1168 z "},"ḥ":{"ha":952,"x_min":74,"x_max":883,"o":"m 74 1122 l 383 1122 l 383 695 l 396 695 q 488 756 435 735 q 603 776 541 776 q 747 741 685 776 q 846 631 810 706 q 883 440 883 556 l 883 0 l 574 0 l 574 420 q 554 495 574 474 q 491 517 533 517 q 431 506 460 517 q 383 477 401 495 l 383 0 l 74 0 l 74 1122 m 479 -347 q 362 -311 401 -347 q 322 -210 322 -274 q 362 -109 322 -145 q 479 -72 401 -72 q 596 -109 556 -72 q 636 -210 636 -145 q 596 -311 636 -274 q 479 -347 556 -347 z "},"i":{"ha":457,"x_min":45,"x_max":412,"o":"m 74 0 l 74 764 l 383 764 l 383 0 l 74 0 m 228 838 q 45 985 45 838 q 228 1131 45 1131 q 412 985 412 1131 q 228 838 412 838 z "},"ı":{"ha":457,"x_min":74,"x_max":383,"o":"m 74 0 l 74 764 l 383 764 l 383 0 l 74 0 z "},"í":{"ha":457,"x_min":74,"x_max":587,"o":"m 74 0 l 74 764 l 383 764 l 383 0 l 74 0 m 85 847 l 256 1122 l 587 1122 l 372 847 l 85 847 z "},"ĭ":{"ha":457,"x_min":-72,"x_max":529,"o":"m 74 0 l 74 764 l 383 764 l 383 0 l 74 0 m 228 851 q 13 918 90 851 q -72 1108 -65 985 l 108 1108 q 143 1026 114 1053 q 228 999 172 999 q 314 1026 285 999 q 349 1108 343 1053 l 529 1108 q 444 918 522 985 q 228 851 367 851 z "},"î":{"ha":457,"x_min":-74,"x_max":531,"o":"m 74 0 l 74 764 l 383 764 l 383 0 l 74 0 m 531 847 l 313 847 l 228 983 l 144 847 l -74 847 l 108 1122 l 349 1122 l 531 847 z "},"ȉ":{"ha":457,"x_min":-167,"x_max":499,"o":"m 74 0 l 74 764 l 383 764 l 383 0 l 74 0 m -42 847 l -167 1122 l 68 1122 l 178 847 l -42 847 m 279 847 l 154 1122 l 389 1122 l 499 847 l 279 847 z "},"ï":{"ha":457,"x_min":-119,"x_max":576,"o":"m 74 0 l 74 764 l 383 764 l 383 0 l 74 0 m 38 842 q -80 880 -40 842 q -119 985 -119 917 q -80 1090 -119 1053 q 38 1127 -40 1127 q 155 1090 115 1127 q 194 985 194 1053 q 155 880 194 917 q 38 842 115 842 m 419 842 q 302 880 342 842 q 263 985 263 917 q 302 1090 263 1053 q 419 1127 342 1127 q 537 1090 497 1127 q 576 985 576 1053 q 537 880 576 917 q 419 842 497 842 z "},"ḯ":{"ha":457,"x_min":-119,"x_max":576,"o":"m 74 0 l 74 764 l 383 764 l 383 0 l 74 0 m 38 842 q -80 880 -40 842 q -119 985 -119 917 q -80 1090 -119 1053 q 38 1127 -40 1127 q 155 1090 115 1127 q 194 985 194 1053 q 155 880 194 917 q 38 842 115 842 m 419 842 q 302 880 342 842 q 263 985 263 917 q 302 1090 263 1053 q 419 1127 342 1127 q 537 1090 497 1127 q 576 985 576 1053 q 537 880 576 917 q 419 842 497 842 m 88 1168 l 222 1388 l 545 1388 l 365 1168 l 88 1168 z "},"ị":{"ha":457,"x_min":45,"x_max":412,"o":"m 74 0 l 74 764 l 383 764 l 383 0 l 74 0 m 228 838 q 45 985 45 838 q 228 1131 45 1131 q 412 985 412 1131 q 228 838 412 838 m 228 -347 q 111 -311 151 -347 q 72 -210 72 -274 q 111 -109 72 -145 q 228 -72 151 -72 q 345 -109 306 -72 q 385 -210 385 -145 q 345 -311 385 -274 q 228 -347 306 -347 z "},"ì":{"ha":457,"x_min":-130,"x_max":383,"o":"m 74 0 l 74 764 l 383 764 l 383 0 l 74 0 m 85 847 l -130 1122 l 201 1122 l 372 847 l 85 847 z "},"ỉ":{"ha":457,"x_min":74,"x_max":416,"o":"m 74 0 l 74 764 l 383 764 l 383 0 l 74 0 m 156 847 q 169 897 158 876 q 194 931 180 918 q 229 958 208 944 q 256 980 248 972 q 264 999 264 988 q 250 1018 264 1012 q 201 1024 235 1024 q 77 1007 144 1024 l 77 1113 q 148 1126 106 1121 q 224 1131 190 1131 q 369 1103 323 1131 q 416 1018 416 1076 q 407 974 416 992 q 386 944 399 956 q 354 917 374 933 q 316 884 328 899 q 301 847 303 870 l 156 847 z "},"ȋ":{"ha":457,"x_min":-72,"x_max":529,"o":"m 74 0 l 74 764 l 383 764 l 383 0 l 74 0 m -72 867 q 12 1057 -65 991 q 228 1124 89 1124 q 444 1057 367 1124 q 529 867 522 990 l 349 867 q 314 950 343 922 q 228 977 285 977 q 143 950 172 977 q 108 867 114 923 l -72 867 z "},"ī":{"ha":457,"x_min":-50,"x_max":507,"o":"m 74 0 l 74 764 l 383 764 l 383 0 l 74 0 m -50 899 l -50 1072 l 507 1072 l 507 899 l -50 899 z "},"į":{"ha":457,"x_min":45,"x_max":412,"o":"m 228 838 q 45 985 45 838 q 228 1131 45 1131 q 412 985 412 1131 q 228 838 412 838 m 226 -142 q 248 -189 226 -172 q 311 -206 269 -206 q 393 -190 351 -206 l 393 -299 q 333 -314 362 -309 q 265 -319 303 -319 q 108 -278 162 -319 q 55 -163 55 -236 q 79 -73 55 -114 q 160 0 103 -32 l 74 0 l 74 764 l 383 764 l 383 0 q 260 -65 295 -31 q 226 -142 226 -99 z "},"ĩ":{"ha":457,"x_min":-50,"x_max":507,"o":"m 74 0 l 74 764 l 383 764 l 383 0 l 74 0 m 349 863 q 287 873 316 863 q 216 900 258 882 q 153 925 178 917 q 101 933 128 933 q 23 918 58 933 q -50 869 -12 903 l -50 1049 q 20 1094 -17 1080 q 108 1108 58 1108 q 170 1098 141 1108 q 241 1071 199 1089 q 304 1046 278 1054 q 356 1038 329 1038 q 434 1053 399 1038 q 507 1101 469 1067 l 507 922 q 436 877 474 891 q 349 863 399 863 z "},"j":{"ha":457,"x_min":-26,"x_max":406,"o":"m -26 -201 q 52 -57 31 -131 q 74 125 74 16 l 74 764 l 383 764 l 383 136 q 334 -109 383 1 q 168 -331 285 -220 l -26 -201 m 223 838 q 40 985 40 838 q 223 1131 40 1131 q 406 985 406 1131 q 223 838 406 838 z "},"ȷ":{"ha":457,"x_min":-26,"x_max":383,"o":"m -26 -201 q 52 -57 31 -131 q 74 125 74 16 l 74 764 l 383 764 l 383 136 q 334 -109 383 1 q 168 -331 285 -220 l -26 -201 z "},"ĵ":{"ha":457,"x_min":-80,"x_max":526,"o":"m -26 -201 q 52 -57 31 -131 q 74 125 74 16 l 74 764 l 383 764 l 383 136 q 334 -109 383 1 q 168 -331 285 -220 l -26 -201 m 526 847 l 308 847 l 223 983 l 138 847 l -80 847 l 102 1122 l 344 1122 l 526 847 z "},"k":{"ha":947,"x_min":74,"x_max":974,"o":"m 641 0 l 460 270 l 383 270 l 383 0 l 74 0 l 74 1122 l 383 1122 l 383 516 l 459 516 l 622 764 l 949 764 l 715 400 l 974 0 l 641 0 z "},"ķ":{"ha":947,"x_min":74,"x_max":974,"o":"m 641 0 l 460 270 l 383 270 l 383 0 l 74 0 l 74 1122 l 383 1122 l 383 516 l 459 516 l 622 764 l 949 764 l 715 400 l 974 0 l 641 0 m 491 -72 q 656 -195 656 -72 q 638 -283 656 -237 q 591 -360 619 -329 l 403 -360 q 447 -257 438 -300 q 355 -228 383 -251 q 326 -166 326 -205 q 491 -72 326 -72 z "},"ĸ":{"ha":947,"x_min":74,"x_max":974,"o":"m 641 0 l 460 270 l 383 270 l 383 0 l 74 0 l 74 764 l 383 764 l 383 516 l 459 516 l 622 764 l 949 764 l 715 400 l 974 0 l 641 0 z "},"l":{"ha":456,"x_min":74,"x_max":383,"o":"m 74 0 l 74 1122 l 383 1122 l 383 0 l 74 0 z "},"ĺ":{"ha":456,"x_min":74,"x_max":545,"o":"m 74 0 l 74 1122 l 383 1122 l 383 0 l 74 0 m 88 1168 l 222 1388 l 545 1388 l 365 1168 l 88 1168 z "},"ľ":{"ha":456,"x_min":74,"x_max":647,"o":"m 74 0 l 74 1122 l 383 1122 l 383 0 l 74 0 m 424 819 q 443 967 438 899 q 449 1122 449 1036 l 647 1122 q 630 957 647 1036 q 586 819 614 878 l 424 819 z "},"ļ":{"ha":456,"x_min":62,"x_max":392,"o":"m 74 0 l 74 1122 l 383 1122 l 383 0 l 74 0 m 227 -72 q 392 -195 392 -72 q 374 -283 392 -237 q 327 -360 356 -329 l 139 -360 q 183 -257 174 -300 q 91 -228 119 -251 q 62 -166 62 -205 q 227 -72 62 -72 z "},"ŀ":{"ha":763,"x_min":74,"x_max":792,"o":"m 74 0 l 74 1122 l 383 1122 l 383 0 l 74 0 m 608 405 q 426 551 426 405 q 608 698 426 698 q 792 551 792 698 q 608 405 792 405 z "},"ḷ":{"ha":456,"x_min":70,"x_max":384,"o":"m 74 0 l 74 1122 l 383 1122 l 383 0 l 74 0 m 227 -347 q 110 -311 149 -347 q 70 -210 70 -274 q 110 -109 70 -145 q 227 -72 149 -72 q 344 -109 304 -72 q 384 -210 384 -145 q 344 -311 384 -274 q 227 -347 304 -347 z "},"ǉ":{"ha":913,"x_min":74,"x_max":863,"o":"m 74 0 l 74 1122 l 383 1122 l 383 0 l 74 0 m 431 -201 q 509 -57 487 -131 q 531 125 531 16 l 531 764 l 839 764 l 839 136 q 790 -109 839 1 q 624 -331 741 -220 l 431 -201 m 679 838 q 496 985 496 838 q 679 1131 496 1131 q 863 985 863 1131 q 679 838 863 838 z "},"ḻ":{"ha":456,"x_min":-51,"x_max":506,"o":"m 74 0 l 74 1122 l 383 1122 l 383 0 l 74 0 m -51 -292 l -51 -122 l 506 -122 l 506 -292 l -51 -292 z "},"ł":{"ha":515,"x_min":-30,"x_max":545,"o":"m 545 532 l 412 468 l 412 0 l 103 0 l 103 321 l 51 296 l -30 460 l 103 524 l 103 1122 l 412 1122 l 412 671 l 465 696 l 545 532 z "},"m":{"ha":1390,"x_min":74,"x_max":1321,"o":"m 1031 776 q 1243 694 1165 776 q 1321 439 1321 612 l 1321 0 l 1013 0 l 1013 422 q 993 495 1013 474 q 936 517 973 517 q 851 490 884 517 q 853 447 853 463 l 853 0 l 551 0 l 551 422 q 533 496 551 474 q 478 517 515 517 q 423 506 449 517 q 383 477 398 495 l 383 0 l 74 0 l 74 764 l 326 764 l 346 694 l 359 694 q 455 755 399 734 q 581 776 511 776 q 700 753 647 776 q 789 683 753 730 q 903 753 841 731 q 1031 776 965 776 z "},"ṃ":{"ha":1390,"x_min":74,"x_max":1321,"o":"m 1031 776 q 1243 694 1165 776 q 1321 439 1321 612 l 1321 0 l 1013 0 l 1013 422 q 993 495 1013 474 q 936 517 973 517 q 851 490 884 517 q 853 447 853 463 l 853 0 l 551 0 l 551 422 q 533 496 551 474 q 478 517 515 517 q 423 506 449 517 q 383 477 398 495 l 383 0 l 74 0 l 74 764 l 326 764 l 346 694 l 359 694 q 455 755 399 734 q 581 776 511 776 q 700 753 647 776 q 789 683 753 730 q 903 753 841 731 q 1031 776 965 776 m 702 -347 q 585 -311 624 -347 q 545 -210 545 -274 q 585 -109 545 -145 q 702 -72 624 -72 q 819 -109 779 -72 q 859 -210 859 -145 q 819 -311 859 -274 q 702 -347 779 -347 z "},"n":{"ha":952,"x_min":74,"x_max":883,"o":"m 74 764 l 326 764 l 346 694 l 359 694 q 460 755 401 734 q 588 776 519 776 q 803 694 724 776 q 883 440 883 612 l 883 0 l 574 0 l 574 421 q 554 496 574 474 q 491 517 533 517 q 430 506 459 517 q 383 477 401 495 l 383 0 l 74 0 l 74 764 z "},"ń":{"ha":952,"x_min":74,"x_max":883,"o":"m 74 764 l 326 764 l 346 694 l 359 694 q 460 755 401 734 q 588 776 519 776 q 803 694 724 776 q 883 440 883 612 l 883 0 l 574 0 l 574 421 q 554 496 574 474 q 491 517 533 517 q 430 506 459 517 q 383 477 401 495 l 383 0 l 74 0 l 74 764 m 335 847 l 506 1122 l 838 1122 l 623 847 l 335 847 z "},"ŉ":{"ha":952,"x_min":8,"x_max":883,"o":"m 74 764 l 326 764 l 346 694 l 359 694 q 460 755 401 734 q 588 776 519 776 q 803 694 724 776 q 883 440 883 612 l 883 0 l 574 0 l 574 421 q 554 496 574 474 q 491 517 533 517 q 430 506 459 517 q 383 477 401 495 l 383 0 l 74 0 l 74 764 m 174 1130 q 339 1007 339 1130 q 320 919 339 965 q 274 842 302 873 l 85 842 q 129 945 119 903 q 37 974 65 951 q 8 1036 8 997 q 174 1130 8 1130 z "},"ň":{"ha":952,"x_min":74,"x_max":883,"o":"m 74 764 l 326 764 l 346 694 l 359 694 q 460 755 401 734 q 588 776 519 776 q 803 694 724 776 q 883 440 883 612 l 883 0 l 574 0 l 574 421 q 554 496 574 474 q 491 517 533 517 q 430 506 459 517 q 383 477 401 495 l 383 0 l 74 0 l 74 764 m 564 1122 l 782 1122 l 600 847 l 358 847 l 176 1122 l 394 1122 l 479 987 l 564 1122 z "},"ņ":{"ha":952,"x_min":74,"x_max":883,"o":"m 74 764 l 326 764 l 346 694 l 359 694 q 460 755 401 734 q 588 776 519 776 q 803 694 724 776 q 883 440 883 612 l 883 0 l 574 0 l 574 421 q 554 496 574 474 q 491 517 533 517 q 430 506 459 517 q 383 477 401 495 l 383 0 l 74 0 l 74 764 m 479 -72 q 644 -195 644 -72 q 626 -283 644 -237 q 579 -360 608 -329 l 391 -360 q 435 -257 426 -300 q 343 -228 372 -251 q 314 -166 314 -205 q 479 -72 314 -72 z "},"ṅ":{"ha":952,"x_min":74,"x_max":883,"o":"m 74 764 l 326 764 l 346 694 l 359 694 q 460 755 401 734 q 588 776 519 776 q 803 694 724 776 q 883 440 883 612 l 883 0 l 574 0 l 574 421 q 554 496 574 474 q 491 517 533 517 q 430 506 459 517 q 383 477 401 495 l 383 0 l 74 0 l 74 764 m 479 838 q 296 985 296 838 q 479 1131 296 1131 q 663 985 663 1131 q 479 838 663 838 z "},"ṇ":{"ha":952,"x_min":74,"x_max":883,"o":"m 74 764 l 326 764 l 346 694 l 359 694 q 460 755 401 734 q 588 776 519 776 q 803 694 724 776 q 883 440 883 612 l 883 0 l 574 0 l 574 421 q 554 496 574 474 q 491 517 533 517 q 430 506 459 517 q 383 477 401 495 l 383 0 l 74 0 l 74 764 m 479 -347 q 362 -311 401 -347 q 322 -210 322 -274 q 362 -109 322 -145 q 479 -72 401 -72 q 596 -109 556 -72 q 636 -210 636 -145 q 596 -311 636 -274 q 479 -347 556 -347 z "},"ŋ":{"ha":952,"x_min":74,"x_max":883,"o":"m 474 -201 q 552 -58 531 -131 q 574 125 574 15 l 574 422 q 554 497 574 475 q 491 519 533 519 q 430 508 460 519 q 383 478 401 497 l 383 0 l 74 0 l 74 764 l 326 764 l 346 694 l 359 694 q 460 755 401 734 q 588 776 519 776 q 803 694 724 776 q 883 440 883 612 l 883 136 q 834 -109 883 1 q 669 -331 785 -220 l 474 -201 z "},"ǌ":{"ha":1409,"x_min":74,"x_max":1358,"o":"m 74 764 l 326 764 l 346 694 l 359 694 q 460 755 401 734 q 588 776 519 776 q 803 694 724 776 q 883 440 883 612 l 883 0 l 574 0 l 574 421 q 554 496 574 474 q 491 517 533 517 q 430 506 459 517 q 383 477 401 495 l 383 0 l 74 0 l 74 764 m 926 -201 q 1005 -57 983 -131 q 1026 125 1026 16 l 1026 764 l 1335 764 l 1335 136 q 1286 -109 1335 1 q 1120 -331 1237 -220 l 926 -201 m 1175 838 q 992 985 992 838 q 1175 1131 992 1131 q 1358 985 1358 1131 q 1175 838 1358 838 z "},"ṉ":{"ha":952,"x_min":74,"x_max":883,"o":"m 74 764 l 326 764 l 346 694 l 359 694 q 460 755 401 734 q 588 776 519 776 q 803 694 724 776 q 883 440 883 612 l 883 0 l 574 0 l 574 421 q 554 496 574 474 q 491 517 533 517 q 430 506 459 517 q 383 477 401 495 l 383 0 l 74 0 l 74 764 m 201 -292 l 201 -122 l 758 -122 l 758 -292 l 201 -292 z "},"ñ":{"ha":952,"x_min":74,"x_max":883,"o":"m 74 764 l 326 764 l 346 694 l 359 694 q 460 755 401 734 q 588 776 519 776 q 803 694 724 776 q 883 440 883 612 l 883 0 l 574 0 l 574 421 q 554 496 574 474 q 491 517 533 517 q 430 506 459 517 q 383 477 401 495 l 383 0 l 74 0 l 74 764 m 599 863 q 538 873 567 863 q 467 900 508 882 q 404 925 429 917 q 352 933 378 933 q 274 918 309 933 q 201 869 239 903 l 201 1049 q 271 1094 233 1080 q 359 1108 309 1108 q 421 1098 392 1108 q 492 1071 450 1089 q 555 1046 529 1054 q 606 1038 580 1038 q 684 1053 649 1038 q 758 1101 719 1067 l 758 922 q 687 877 725 891 q 599 863 649 863 z "},"o":{"ha":948,"x_min":42,"x_max":906,"o":"m 474 -15 q 244 31 342 -15 q 94 167 147 78 q 42 381 42 256 q 92 596 42 507 q 240 731 143 685 q 474 776 337 776 q 708 730 611 776 q 856 595 805 684 q 906 381 906 506 q 853 167 906 256 q 703 31 801 78 q 474 -15 606 -15 m 474 215 q 569 253 538 215 q 600 381 600 292 q 569 508 600 470 q 474 546 538 546 q 379 508 410 546 q 348 381 348 471 q 379 253 348 292 q 474 215 410 215 z "},"ó":{"ha":948,"x_min":42,"x_max":906,"o":"m 474 -15 q 244 31 342 -15 q 94 167 147 78 q 42 381 42 256 q 92 596 42 507 q 240 731 143 685 q 474 776 337 776 q 708 730 611 776 q 856 595 805 684 q 906 381 906 506 q 853 167 906 256 q 703 31 801 78 q 474 -15 606 -15 m 474 215 q 569 253 538 215 q 600 381 600 292 q 569 508 600 470 q 474 546 538 546 q 379 508 410 546 q 348 381 348 471 q 379 253 348 292 q 474 215 410 215 m 330 847 l 501 1122 l 832 1122 l 617 847 l 330 847 z "},"ŏ":{"ha":948,"x_min":42,"x_max":906,"o":"m 474 -15 q 244 31 342 -15 q 94 167 147 78 q 42 381 42 256 q 92 596 42 507 q 240 731 143 685 q 474 776 337 776 q 708 730 611 776 q 856 595 805 684 q 906 381 906 506 q 853 167 906 256 q 703 31 801 78 q 474 -15 606 -15 m 474 215 q 569 253 538 215 q 600 381 600 292 q 569 508 600 470 q 474 546 538 546 q 379 508 410 546 q 348 381 348 471 q 379 253 348 292 q 474 215 410 215 m 474 851 q 258 918 335 851 q 173 1108 181 985 l 353 1108 q 388 1026 359 1053 q 474 999 417 999 q 559 1026 530 999 q 594 1108 588 1053 l 774 1108 q 690 918 767 985 q 474 851 613 851 z "},"ô":{"ha":948,"x_min":42,"x_max":906,"o":"m 474 -15 q 244 31 342 -15 q 94 167 147 78 q 42 381 42 256 q 92 596 42 507 q 240 731 143 685 q 474 776 337 776 q 708 730 611 776 q 856 595 805 684 q 906 381 906 506 q 853 167 906 256 q 703 31 801 78 q 474 -15 606 -15 m 474 215 q 569 253 538 215 q 600 381 600 292 q 569 508 600 470 q 474 546 538 546 q 379 508 410 546 q 348 381 348 471 q 379 253 348 292 q 474 215 410 215 m 776 847 l 558 847 l 474 983 l 389 847 l 171 847 l 353 1122 l 594 1122 l 776 847 z "},"ố":{"ha":948,"x_min":42,"x_max":1035,"o":"m 474 -15 q 244 31 342 -15 q 94 167 147 78 q 42 381 42 256 q 92 596 42 507 q 240 731 143 685 q 474 776 337 776 q 708 730 611 776 q 856 595 805 684 q 906 381 906 506 q 853 167 906 256 q 703 31 801 78 q 474 -15 606 -15 m 474 215 q 569 253 538 215 q 600 381 600 292 q 569 508 600 470 q 474 546 538 546 q 379 508 410 546 q 348 381 348 471 q 379 253 348 292 q 474 215 410 215 m 778 1297 l 1035 1297 l 856 1110 l 644 1110 l 778 1297 m 353 1122 l 594 1122 l 776 847 l 558 847 l 474 983 l 389 847 l 171 847 l 353 1122 z "},"ộ":{"ha":948,"x_min":42,"x_max":906,"o":"m 474 -15 q 244 31 342 -15 q 94 167 147 78 q 42 381 42 256 q 92 596 42 507 q 240 731 143 685 q 474 776 337 776 q 708 730 611 776 q 856 595 805 684 q 906 381 906 506 q 853 167 906 256 q 703 31 801 78 q 474 -15 606 -15 m 474 215 q 569 253 538 215 q 600 381 600 292 q 569 508 600 470 q 474 546 538 546 q 379 508 410 546 q 348 381 348 471 q 379 253 348 292 q 474 215 410 215 m 474 -347 q 356 -311 396 -347 q 317 -210 317 -274 q 356 -109 317 -145 q 474 -72 396 -72 q 591 -109 551 -72 q 631 -210 631 -145 q 591 -311 631 -274 q 474 -347 551 -347 m 776 847 l 558 847 l 474 983 l 389 847 l 171 847 l 353 1122 l 594 1122 l 776 847 z "},"ồ":{"ha":948,"x_min":42,"x_max":906,"o":"m 474 -15 q 244 31 342 -15 q 94 167 147 78 q 42 381 42 256 q 92 596 42 507 q 240 731 143 685 q 474 776 337 776 q 708 730 611 776 q 856 595 805 684 q 906 381 906 506 q 853 167 906 256 q 703 31 801 78 q 474 -15 606 -15 m 474 215 q 569 253 538 215 q 600 381 600 292 q 569 508 600 470 q 474 546 538 546 q 379 508 410 546 q 348 381 348 471 q 379 253 348 292 q 474 215 410 215 m 883 1110 l 672 1110 l 492 1297 l 749 1297 l 883 1110 m 353 1122 l 594 1122 l 776 847 l 558 847 l 474 983 l 389 847 l 171 847 l 353 1122 z "},"ổ":{"ha":948,"x_min":42,"x_max":906,"o":"m 474 -15 q 244 31 342 -15 q 94 167 147 78 q 42 381 42 256 q 92 596 42 507 q 240 731 143 685 q 474 776 337 776 q 708 730 611 776 q 856 595 805 684 q 906 381 906 506 q 853 167 906 256 q 703 31 801 78 q 474 -15 606 -15 m 474 215 q 569 253 538 215 q 600 381 600 292 q 569 508 600 470 q 474 546 538 546 q 379 508 410 546 q 348 381 348 471 q 379 253 348 292 q 474 215 410 215 m 704 1315 q 845 1295 801 1315 q 889 1228 889 1274 q 874 1193 889 1206 q 831 1164 859 1179 q 791 1139 805 1150 q 774 1110 777 1127 l 643 1110 q 665 1158 645 1141 q 719 1189 685 1174 q 740 1200 734 1196 q 747 1208 747 1203 q 731 1223 747 1219 q 681 1228 715 1228 q 558 1217 616 1228 l 558 1301 q 627 1311 585 1308 q 704 1315 670 1315 m 353 1122 l 594 1122 l 776 847 l 558 847 l 474 983 l 389 847 l 171 847 l 353 1122 z "},"ỗ":{"ha":948,"x_min":42,"x_max":906,"o":"m 474 -15 q 244 31 342 -15 q 94 167 147 78 q 42 381 42 256 q 92 596 42 507 q 240 731 143 685 q 474 776 337 776 q 708 730 611 776 q 856 595 805 684 q 906 381 906 506 q 853 167 906 256 q 703 31 801 78 q 474 -15 606 -15 m 474 215 q 569 253 538 215 q 600 381 600 292 q 569 508 600 470 q 474 546 538 546 q 379 508 410 546 q 348 381 348 471 q 379 253 348 292 q 474 215 410 215 m 606 1108 q 538 1114 569 1108 q 462 1131 507 1119 q 393 1147 422 1142 q 334 1153 365 1153 q 252 1143 288 1153 q 177 1113 217 1133 l 177 1251 q 249 1286 210 1275 q 341 1297 288 1297 q 409 1291 378 1297 q 485 1273 440 1285 q 554 1257 526 1263 q 613 1251 583 1251 q 695 1261 659 1251 q 770 1292 731 1271 l 770 1153 q 699 1119 738 1129 q 606 1108 660 1108 m 808 849 l 574 849 l 474 960 l 373 849 l 140 849 l 346 1068 l 601 1068 l 808 849 z "},"ȍ":{"ha":948,"x_min":42,"x_max":906,"o":"m 474 -15 q 244 31 342 -15 q 94 167 147 78 q 42 381 42 256 q 92 596 42 507 q 240 731 143 685 q 474 776 337 776 q 708 730 611 776 q 856 595 805 684 q 906 381 906 506 q 853 167 906 256 q 703 31 801 78 q 474 -15 606 -15 m 474 215 q 569 253 538 215 q 600 381 600 292 q 569 508 600 470 q 474 546 538 546 q 379 508 410 546 q 348 381 348 471 q 379 253 348 292 q 474 215 410 215 m 203 847 l 78 1122 l 313 1122 l 423 847 l 203 847 m 524 847 l 399 1122 l 634 1122 l 744 847 l 524 847 z "},"ö":{"ha":948,"x_min":42,"x_max":906,"o":"m 474 -15 q 244 31 342 -15 q 94 167 147 78 q 42 381 42 256 q 92 596 42 507 q 240 731 143 685 q 474 776 337 776 q 708 730 611 776 q 856 595 805 684 q 906 381 906 506 q 853 167 906 256 q 703 31 801 78 q 474 -15 606 -15 m 474 215 q 569 253 538 215 q 600 381 600 292 q 569 508 600 470 q 474 546 538 546 q 379 508 410 546 q 348 381 348 471 q 379 253 348 292 q 474 215 410 215 m 283 842 q 165 880 205 842 q 126 985 126 917 q 165 1090 126 1053 q 283 1127 205 1127 q 400 1090 360 1127 q 440 985 440 1053 q 400 880 440 917 q 283 842 360 842 m 665 842 q 547 880 587 842 q 508 985 508 917 q 547 1090 508 1053 q 665 1127 587 1127 q 782 1090 742 1127 q 822 985 822 1053 q 782 880 822 917 q 665 842 742 842 z "},"ȫ":{"ha":948,"x_min":42,"x_max":906,"o":"m 474 -15 q 244 31 342 -15 q 94 167 147 78 q 42 381 42 256 q 92 596 42 507 q 240 731 143 685 q 474 776 337 776 q 708 730 611 776 q 856 595 805 684 q 906 381 906 506 q 853 167 906 256 q 703 31 801 78 q 474 -15 606 -15 m 474 215 q 569 253 538 215 q 600 381 600 292 q 569 508 600 470 q 474 546 538 546 q 379 508 410 546 q 348 381 348 471 q 379 253 348 292 q 474 215 410 215 m 283 842 q 165 880 205 842 q 126 985 126 917 q 165 1090 126 1053 q 283 1127 205 1127 q 400 1090 360 1127 q 440 985 440 1053 q 400 880 440 917 q 283 842 360 842 m 665 842 q 547 880 587 842 q 508 985 508 917 q 547 1090 508 1053 q 665 1127 587 1127 q 782 1090 742 1127 q 822 985 822 1053 q 782 880 822 917 q 665 842 742 842 m 195 1188 l 195 1360 l 752 1360 l 752 1188 l 195 1188 z "},"ȱ":{"ha":948,"x_min":42,"x_max":906,"o":"m 474 -15 q 244 31 342 -15 q 94 167 147 78 q 42 381 42 256 q 92 596 42 507 q 240 731 143 685 q 474 776 337 776 q 708 730 611 776 q 856 595 805 684 q 906 381 906 506 q 853 167 906 256 q 703 31 801 78 q 474 -15 606 -15 m 474 215 q 569 253 538 215 q 600 381 600 292 q 569 508 600 470 q 474 546 538 546 q 379 508 410 546 q 348 381 348 471 q 379 253 348 292 q 474 215 410 215 m 474 838 q 290 985 290 838 q 474 1131 290 1131 q 657 985 657 1131 q 474 838 657 838 m 195 1191 l 195 1363 l 752 1363 l 752 1191 l 195 1191 z "},"ọ":{"ha":948,"x_min":42,"x_max":906,"o":"m 474 -15 q 244 31 342 -15 q 94 167 147 78 q 42 381 42 256 q 92 596 42 507 q 240 731 143 685 q 474 776 337 776 q 708 730 611 776 q 856 595 805 684 q 906 381 906 506 q 853 167 906 256 q 703 31 801 78 q 474 -15 606 -15 m 474 215 q 569 253 538 215 q 600 381 600 292 q 569 508 600 470 q 474 546 538 546 q 379 508 410 546 q 348 381 348 471 q 379 253 348 292 q 474 215 410 215 m 474 -347 q 356 -311 396 -347 q 317 -210 317 -274 q 356 -109 317 -145 q 474 -72 396 -72 q 591 -109 551 -72 q 631 -210 631 -145 q 591 -311 631 -274 q 474 -347 551 -347 z "},"ò":{"ha":948,"x_min":42,"x_max":906,"o":"m 474 -15 q 244 31 342 -15 q 94 167 147 78 q 42 381 42 256 q 92 596 42 507 q 240 731 143 685 q 474 776 337 776 q 708 730 611 776 q 856 595 805 684 q 906 381 906 506 q 853 167 906 256 q 703 31 801 78 q 474 -15 606 -15 m 474 215 q 569 253 538 215 q 600 381 600 292 q 569 508 600 470 q 474 546 538 546 q 379 508 410 546 q 348 381 348 471 q 379 253 348 292 q 474 215 410 215 m 330 847 l 115 1122 l 447 1122 l 617 847 l 330 847 z "},"ỏ":{"ha":948,"x_min":42,"x_max":906,"o":"m 474 -15 q 244 31 342 -15 q 94 167 147 78 q 42 381 42 256 q 92 596 42 507 q 240 731 143 685 q 474 776 337 776 q 708 730 611 776 q 856 595 805 684 q 906 381 906 506 q 853 167 906 256 q 703 31 801 78 q 474 -15 606 -15 m 474 215 q 569 253 538 215 q 600 381 600 292 q 569 508 600 470 q 474 546 538 546 q 379 508 410 546 q 348 381 348 471 q 379 253 348 292 q 474 215 410 215 m 401 847 q 414 897 403 876 q 439 931 425 918 q 474 958 453 944 q 501 980 493 972 q 509 999 509 988 q 495 1018 509 1012 q 446 1024 481 1024 q 322 1007 389 1024 l 322 1113 q 393 1126 351 1121 q 469 1131 435 1131 q 615 1103 568 1131 q 661 1018 661 1076 q 652 974 661 992 q 632 944 644 956 q 599 917 619 933 q 561 884 574 899 q 546 847 549 870 l 401 847 z "},"ơ":{"ha":948,"x_min":42,"x_max":950,"o":"m 950 863 q 915 726 950 780 q 814 651 879 673 q 906 381 906 550 q 853 167 906 256 q 703 31 801 78 q 474 -15 606 -15 q 244 31 342 -15 q 94 167 147 78 q 42 381 42 256 q 93 596 42 507 q 243 731 144 685 q 484 776 342 776 q 581 772 519 776 q 633 768 613 768 q 730 792 698 768 q 762 873 762 816 q 753 969 762 913 l 938 969 q 950 863 950 919 m 474 215 q 569 253 538 215 q 600 381 600 292 q 569 508 600 470 q 474 546 538 546 q 379 508 410 546 q 348 381 348 471 q 379 253 348 292 q 474 215 410 215 z "},"ớ":{"ha":948,"x_min":42,"x_max":950,"o":"m 815 1122 l 608 847 l 331 847 l 496 1122 l 815 1122 m 950 863 q 915 726 950 780 q 814 651 879 673 q 906 381 906 550 q 853 167 906 256 q 703 31 801 78 q 474 -15 606 -15 q 244 31 342 -15 q 94 167 147 78 q 42 381 42 256 q 93 596 42 507 q 243 731 144 685 q 484 776 342 776 q 581 772 519 776 q 633 768 613 768 q 730 792 698 768 q 762 873 762 816 q 753 969 762 913 l 938 969 q 950 863 950 919 m 474 215 q 569 253 538 215 q 600 381 600 292 q 569 508 600 470 q 474 546 538 546 q 379 508 410 546 q 348 381 348 471 q 379 253 348 292 q 474 215 410 215 z "},"ợ":{"ha":948,"x_min":42,"x_max":950,"o":"m 950 863 q 915 726 950 780 q 814 651 879 673 q 906 381 906 550 q 853 167 906 256 q 703 31 801 78 q 474 -15 606 -15 q 244 31 342 -15 q 94 167 147 78 q 42 381 42 256 q 93 596 42 507 q 243 731 144 685 q 484 776 342 776 q 581 772 519 776 q 633 768 613 768 q 730 792 698 768 q 762 873 762 816 q 753 969 762 913 l 938 969 q 950 863 950 919 m 474 215 q 569 253 538 215 q 600 381 600 292 q 569 508 600 470 q 474 546 538 546 q 379 508 410 546 q 348 381 348 471 q 379 253 348 292 q 474 215 410 215 m 474 -347 q 356 -311 396 -347 q 317 -210 317 -274 q 356 -109 317 -145 q 474 -72 396 -72 q 591 -109 551 -72 q 631 -210 631 -145 q 591 -311 631 -274 q 474 -347 551 -347 z "},"ờ":{"ha":948,"x_min":42,"x_max":950,"o":"m 950 863 q 915 726 950 780 q 814 651 879 673 q 906 381 906 550 q 853 167 906 256 q 703 31 801 78 q 474 -15 606 -15 q 244 31 342 -15 q 94 167 147 78 q 42 381 42 256 q 93 596 42 507 q 243 731 144 685 q 484 776 342 776 q 581 772 519 776 q 633 768 613 768 q 730 792 698 768 q 762 873 762 816 q 753 969 762 913 l 938 969 q 950 863 950 919 m 474 215 q 569 253 538 215 q 600 381 600 292 q 569 508 600 470 q 474 546 538 546 q 379 508 410 546 q 348 381 348 471 q 379 253 348 292 q 474 215 410 215 m 326 847 l 112 1122 l 443 1122 l 614 847 l 326 847 z "},"ở":{"ha":948,"x_min":42,"x_max":950,"o":"m 950 863 q 915 726 950 780 q 814 651 879 673 q 906 381 906 550 q 853 167 906 256 q 703 31 801 78 q 474 -15 606 -15 q 244 31 342 -15 q 94 167 147 78 q 42 381 42 256 q 93 596 42 507 q 243 731 144 685 q 484 776 342 776 q 581 772 519 776 q 633 768 613 768 q 730 792 698 768 q 762 873 762 816 q 753 969 762 913 l 938 969 q 950 863 950 919 m 474 215 q 569 253 538 215 q 600 381 600 292 q 569 508 600 470 q 474 546 538 546 q 379 508 410 546 q 348 381 348 471 q 379 253 348 292 q 474 215 410 215 m 398 847 q 410 897 399 876 q 436 931 422 918 q 471 958 450 944 q 498 980 490 972 q 506 999 506 988 q 491 1018 506 1012 q 442 1024 477 1024 q 319 1007 385 1024 l 319 1113 q 389 1126 347 1121 q 466 1131 431 1131 q 611 1103 565 1131 q 658 1018 658 1076 q 649 974 658 992 q 628 944 640 956 q 596 917 616 933 q 558 884 570 899 q 542 847 545 870 l 398 847 z "},"ỡ":{"ha":948,"x_min":42,"x_max":950,"o":"m 576 863 q 517 873 544 863 q 452 900 490 882 q 394 925 417 917 q 345 933 371 933 q 272 918 306 933 q 202 869 239 903 l 202 1049 q 270 1094 234 1080 q 351 1108 306 1108 q 410 1098 382 1108 q 475 1071 438 1089 q 533 1047 509 1055 q 582 1038 556 1038 q 655 1053 622 1038 q 724 1101 689 1068 l 724 922 q 657 877 693 891 q 576 863 622 863 m 950 863 q 915 726 950 780 q 814 651 879 673 q 906 381 906 550 q 853 167 906 256 q 703 31 801 78 q 474 -15 606 -15 q 244 31 342 -15 q 94 167 147 78 q 42 381 42 256 q 93 596 42 507 q 243 731 144 685 q 484 776 342 776 q 581 772 519 776 q 633 768 613 768 q 730 792 698 768 q 762 873 762 816 q 753 969 762 913 l 938 969 q 950 863 950 919 m 474 215 q 569 253 538 215 q 600 381 600 292 q 569 508 600 470 q 474 546 538 546 q 379 508 410 546 q 348 381 348 471 q 379 253 348 292 q 474 215 410 215 z "},"ő":{"ha":948,"x_min":42,"x_max":906,"o":"m 474 -15 q 244 31 342 -15 q 94 167 147 78 q 42 381 42 256 q 92 596 42 507 q 240 731 143 685 q 474 776 337 776 q 708 730 611 776 q 856 595 805 684 q 906 381 906 506 q 853 167 906 256 q 703 31 801 78 q 474 -15 606 -15 m 474 215 q 569 253 538 215 q 600 381 600 292 q 569 508 600 470 q 474 546 538 546 q 379 508 410 546 q 348 381 348 471 q 379 253 348 292 q 474 215 410 215 m 203 847 l 313 1122 l 548 1122 l 423 847 l 203 847 m 524 847 l 634 1122 l 869 1122 l 744 847 l 524 847 z "},"ȏ":{"ha":948,"x_min":42,"x_max":906,"o":"m 474 -15 q 244 31 342 -15 q 94 167 147 78 q 42 381 42 256 q 92 596 42 507 q 240 731 143 685 q 474 776 337 776 q 708 730 611 776 q 856 595 805 684 q 906 381 906 506 q 853 167 906 256 q 703 31 801 78 q 474 -15 606 -15 m 474 215 q 569 253 538 215 q 600 381 600 292 q 569 508 600 470 q 474 546 538 546 q 379 508 410 546 q 348 381 348 471 q 379 253 348 292 q 474 215 410 215 m 173 867 q 257 1057 181 991 q 474 1124 334 1124 q 689 1057 612 1124 q 774 867 767 990 l 594 867 q 559 950 588 922 q 474 977 530 977 q 388 950 417 977 q 353 867 359 923 l 173 867 z "},"ō":{"ha":948,"x_min":42,"x_max":906,"o":"m 474 -15 q 244 31 342 -15 q 94 167 147 78 q 42 381 42 256 q 92 596 42 507 q 240 731 143 685 q 474 776 337 776 q 708 730 611 776 q 856 595 805 684 q 906 381 906 506 q 853 167 906 256 q 703 31 801 78 q 474 -15 606 -15 m 474 215 q 569 253 538 215 q 600 381 600 292 q 569 508 600 470 q 474 546 538 546 q 379 508 410 546 q 348 381 348 471 q 379 253 348 292 q 474 215 410 215 m 195 899 l 195 1072 l 752 1072 l 752 899 l 195 899 z "},"ṓ":{"ha":948,"x_min":42,"x_max":906,"o":"m 474 -15 q 244 31 342 -15 q 94 167 147 78 q 42 381 42 256 q 92 596 42 507 q 240 731 143 685 q 474 776 337 776 q 708 730 611 776 q 856 595 805 684 q 906 381 906 506 q 853 167 906 256 q 703 31 801 78 q 474 -15 606 -15 m 474 215 q 569 253 538 215 q 600 381 600 292 q 569 508 600 470 q 474 546 538 546 q 379 508 410 546 q 348 381 348 471 q 379 253 348 292 q 474 215 410 215 m 195 899 l 195 1072 l 752 1072 l 752 899 l 195 899 m 333 1168 l 467 1388 l 790 1388 l 610 1168 l 333 1168 z "},"ṑ":{"ha":948,"x_min":42,"x_max":906,"o":"m 474 -15 q 244 31 342 -15 q 94 167 147 78 q 42 381 42 256 q 92 596 42 507 q 240 731 143 685 q 474 776 337 776 q 708 730 611 776 q 856 595 805 684 q 906 381 906 506 q 853 167 906 256 q 703 31 801 78 q 474 -15 606 -15 m 474 215 q 569 253 538 215 q 600 381 600 292 q 569 508 600 470 q 474 546 538 546 q 379 508 410 546 q 348 381 348 471 q 379 253 348 292 q 474 215 410 215 m 195 899 l 195 1072 l 752 1072 l 752 899 l 195 899 m 335 1168 l 155 1388 l 478 1388 l 613 1168 l 335 1168 z "},"ǫ":{"ha":948,"x_min":42,"x_max":906,"o":"m 474 776 q 708 730 611 776 q 856 595 805 684 q 906 381 906 506 q 841 148 906 242 q 657 12 776 53 q 546 -37 585 -13 q 491 -86 506 -62 q 476 -137 476 -110 q 498 -188 476 -170 q 562 -206 519 -206 q 644 -190 602 -206 l 644 -299 q 583 -314 613 -309 q 515 -319 554 -319 q 359 -278 412 -319 q 306 -163 306 -236 q 327 -78 306 -116 q 393 -10 348 -40 q 205 53 284 3 q 84 186 126 103 q 42 381 42 269 q 92 596 42 507 q 240 731 143 685 q 474 776 337 776 m 474 215 q 569 253 538 215 q 600 381 600 292 q 569 508 600 470 q 474 546 538 546 q 379 508 410 546 q 348 381 348 471 q 379 253 348 292 q 474 215 410 215 z "},"ø":{"ha":948,"x_min":42,"x_max":906,"o":"m 788 678 q 876 552 846 627 q 906 381 906 477 q 853 167 906 256 q 703 31 801 78 q 474 -15 606 -15 q 284 15 369 -15 l 228 -58 l 117 30 l 160 87 q 72 212 103 138 q 42 381 42 286 q 92 596 42 507 q 240 731 143 685 q 474 776 337 776 q 663 748 580 776 l 719 822 l 831 734 l 788 678 m 474 549 q 375 511 407 549 q 342 381 342 473 q 348 314 342 345 l 522 544 q 474 549 499 549 m 474 212 q 573 251 541 212 q 606 381 606 290 q 599 450 606 420 l 424 218 q 474 212 446 212 z "},"ǿ":{"ha":948,"x_min":42,"x_max":906,"o":"m 788 678 q 876 552 846 627 q 906 381 906 477 q 853 167 906 256 q 703 31 801 78 q 474 -15 606 -15 q 284 15 369 -15 l 228 -58 l 117 30 l 160 87 q 72 212 103 138 q 42 381 42 286 q 92 596 42 507 q 240 731 143 685 q 474 776 337 776 q 663 748 580 776 l 719 822 l 831 734 l 788 678 m 474 549 q 375 511 407 549 q 342 381 342 473 q 348 314 342 345 l 522 544 q 474 549 499 549 m 474 212 q 573 251 541 212 q 606 381 606 290 q 599 450 606 420 l 424 218 q 474 212 446 212 m 328 847 l 499 1122 l 830 1122 l 615 847 l 328 847 z "},"õ":{"ha":948,"x_min":42,"x_max":906,"o":"m 474 -15 q 244 31 342 -15 q 94 167 147 78 q 42 381 42 256 q 92 596 42 507 q 240 731 143 685 q 474 776 337 776 q 708 730 611 776 q 856 595 805 684 q 906 381 906 506 q 853 167 906 256 q 703 31 801 78 q 474 -15 606 -15 m 474 215 q 569 253 538 215 q 600 381 600 292 q 569 508 600 470 q 474 546 538 546 q 379 508 410 546 q 348 381 348 471 q 379 253 348 292 q 474 215 410 215 m 594 863 q 532 873 561 863 q 461 900 503 882 q 398 925 424 917 q 347 933 373 933 q 268 918 303 933 q 195 869 233 903 l 195 1049 q 266 1094 228 1080 q 353 1108 303 1108 q 415 1098 386 1108 q 486 1071 444 1089 q 549 1046 524 1054 q 601 1038 574 1038 q 679 1053 644 1038 q 752 1101 714 1067 l 752 922 q 682 877 719 891 q 594 863 644 863 z "},"ṍ":{"ha":948,"x_min":42,"x_max":906,"o":"m 474 -15 q 244 31 342 -15 q 94 167 147 78 q 42 381 42 256 q 92 596 42 507 q 240 731 143 685 q 474 776 337 776 q 708 730 611 776 q 856 595 805 684 q 906 381 906 506 q 853 167 906 256 q 703 31 801 78 q 474 -15 606 -15 m 474 215 q 569 253 538 215 q 600 381 600 292 q 569 508 600 470 q 474 546 538 546 q 379 508 410 546 q 348 381 348 471 q 379 253 348 292 q 474 215 410 215 m 594 863 q 532 873 561 863 q 461 900 503 882 q 398 925 424 917 q 347 933 373 933 q 268 918 303 933 q 195 869 233 903 l 195 1049 q 266 1094 228 1080 q 353 1108 303 1108 q 415 1098 386 1108 q 486 1071 444 1089 q 549 1046 524 1054 q 601 1038 574 1038 q 679 1053 644 1038 q 752 1101 714 1067 l 752 922 q 682 877 719 891 q 594 863 644 863 m 333 1168 l 467 1388 l 790 1388 l 610 1168 l 333 1168 z "},"ṏ":{"ha":948,"x_min":42,"x_max":906,"o":"m 474 -15 q 244 31 342 -15 q 94 167 147 78 q 42 381 42 256 q 92 596 42 507 q 240 731 143 685 q 474 776 337 776 q 708 730 611 776 q 856 595 805 684 q 906 381 906 506 q 853 167 906 256 q 703 31 801 78 q 474 -15 606 -15 m 474 215 q 569 253 538 215 q 600 381 600 292 q 569 508 600 470 q 474 546 538 546 q 379 508 410 546 q 348 381 348 471 q 379 253 348 292 q 474 215 410 215 m 594 863 q 532 873 561 863 q 461 900 503 882 q 398 925 424 917 q 347 933 373 933 q 268 918 303 933 q 195 869 233 903 l 195 1049 q 266 1094 228 1080 q 353 1108 303 1108 q 415 1098 386 1108 q 486 1071 444 1089 q 549 1046 524 1054 q 601 1038 574 1038 q 679 1053 644 1038 q 752 1101 714 1067 l 752 922 q 682 877 719 891 q 594 863 644 863 m 283 1131 q 165 1168 205 1131 q 126 1274 126 1206 q 165 1379 126 1342 q 283 1416 205 1416 q 400 1379 360 1416 q 440 1274 440 1342 q 400 1168 440 1206 q 283 1131 360 1131 m 665 1131 q 547 1168 587 1131 q 508 1274 508 1206 q 547 1379 508 1342 q 665 1416 587 1416 q 782 1379 742 1416 q 822 1274 822 1342 q 782 1168 822 1206 q 665 1131 742 1131 z "},"ȭ":{"ha":948,"x_min":42,"x_max":906,"o":"m 474 -15 q 244 31 342 -15 q 94 167 147 78 q 42 381 42 256 q 92 596 42 507 q 240 731 143 685 q 474 776 337 776 q 708 730 611 776 q 856 595 805 684 q 906 381 906 506 q 853 167 906 256 q 703 31 801 78 q 474 -15 606 -15 m 474 215 q 569 253 538 215 q 600 381 600 292 q 569 508 600 470 q 474 546 538 546 q 379 508 410 546 q 348 381 348 471 q 379 253 348 292 q 474 215 410 215 m 594 863 q 532 873 561 863 q 461 900 503 882 q 398 925 424 917 q 347 933 373 933 q 268 918 303 933 q 195 869 233 903 l 195 1049 q 266 1094 228 1080 q 353 1108 303 1108 q 415 1098 386 1108 q 486 1071 444 1089 q 549 1046 524 1054 q 601 1038 574 1038 q 679 1053 644 1038 q 752 1101 714 1067 l 752 922 q 682 877 719 891 q 594 863 644 863 m 195 1188 l 195 1360 l 752 1360 l 752 1188 l 195 1188 z "},"œ":{"ha":1418,"x_min":42,"x_max":1384,"o":"m 1384 299 l 908 299 q 933 244 913 263 q 1000 215 953 224 q 1130 206 1047 206 q 1335 225 1222 206 l 1335 7 q 1083 -15 1212 -15 q 877 8 962 -15 q 738 78 792 31 q 460 -15 635 -15 q 240 31 335 -15 q 94 167 146 78 q 42 381 42 256 q 92 595 42 506 q 235 730 142 684 q 460 776 329 776 q 753 671 653 776 q 870 749 802 722 q 1022 776 938 776 q 1218 728 1137 776 q 1342 589 1299 680 q 1384 371 1384 498 l 1384 299 m 1003 592 q 931 562 954 592 q 906 463 907 532 l 1100 463 q 1075 561 1099 531 q 1003 592 1052 592 m 474 215 q 569 253 538 215 q 600 381 600 292 q 569 508 600 470 q 474 546 538 546 q 379 508 410 546 q 348 381 348 471 q 379 253 348 292 q 474 215 410 215 z "},"p":{"ha":967,"x_min":74,"x_max":926,"o":"m 74 764 l 331 764 l 349 687 l 362 687 q 455 753 400 729 q 579 776 510 776 q 755 736 676 776 q 880 610 833 695 q 926 397 926 525 q 873 175 926 268 q 718 34 820 83 q 474 -15 617 -15 q 383 -10 437 -15 l 383 -306 l 74 -306 l 74 764 m 462 214 q 581 253 542 214 q 619 376 619 292 q 586 495 619 460 q 488 531 552 531 q 431 524 459 531 q 383 503 403 517 l 383 221 q 462 214 426 214 z "},"þ":{"ha":967,"x_min":74,"x_max":926,"o":"m 74 1122 l 383 1122 l 383 695 l 396 695 q 603 776 472 776 q 766 734 693 776 q 883 606 840 692 q 926 397 926 521 q 873 175 926 268 q 718 34 820 83 q 474 -15 617 -15 q 383 -10 437 -15 l 383 -306 l 74 -306 l 74 1122 m 462 214 q 581 253 542 214 q 619 376 619 292 q 585 495 619 460 q 486 531 551 531 q 430 524 457 531 q 383 503 402 517 l 383 221 q 462 214 426 214 z "},"q":{"ha":967,"x_min":42,"x_max":894,"o":"m 585 66 l 572 66 q 364 -15 495 -15 q 202 27 275 -15 q 85 154 128 69 q 42 361 42 239 q 165 670 42 563 q 533 776 288 776 q 723 764 625 776 q 894 728 820 751 l 894 -306 l 585 -306 l 585 66 m 482 231 q 585 253 541 231 l 585 541 q 506 549 546 549 q 388 509 428 549 q 348 383 348 469 q 382 266 348 301 q 482 231 416 231 z "},"r":{"ha":634,"x_min":74,"x_max":626,"o":"m 74 764 l 324 764 l 349 672 l 362 672 q 441 751 391 725 q 560 776 492 776 q 626 771 591 776 l 626 497 q 540 504 593 504 q 449 491 493 504 q 383 454 406 478 l 383 0 l 74 0 l 74 764 z "},"ŕ":{"ha":634,"x_min":74,"x_max":709,"o":"m 74 764 l 324 764 l 349 672 l 362 672 q 441 751 391 725 q 560 776 492 776 q 626 771 591 776 l 626 497 q 540 504 593 504 q 449 491 493 504 q 383 454 406 478 l 383 0 l 74 0 l 74 764 m 207 847 l 378 1122 l 709 1122 l 494 847 l 207 847 z "},"ř":{"ha":634,"x_min":48,"x_max":653,"o":"m 74 764 l 324 764 l 349 672 l 362 672 q 441 751 391 725 q 560 776 492 776 q 626 771 591 776 l 626 497 q 540 504 593 504 q 449 491 493 504 q 383 454 406 478 l 383 0 l 74 0 l 74 764 m 435 1122 l 653 1122 l 472 847 l 230 847 l 48 1122 l 266 1122 l 351 987 l 435 1122 z "},"ŗ":{"ha":634,"x_min":63,"x_max":626,"o":"m 74 764 l 324 764 l 349 672 l 362 672 q 441 751 391 725 q 560 776 492 776 q 626 771 591 776 l 626 497 q 540 504 593 504 q 449 491 493 504 q 383 454 406 478 l 383 0 l 74 0 l 74 764 m 228 -72 q 394 -195 394 -72 q 375 -283 394 -237 q 328 -360 357 -329 l 140 -360 q 185 -257 175 -300 q 92 -228 121 -251 q 63 -166 63 -205 q 228 -72 63 -72 z "},"ȑ":{"ha":634,"x_min":-44,"x_max":626,"o":"m 74 764 l 324 764 l 349 672 l 362 672 q 441 751 391 725 q 560 776 492 776 q 626 771 591 776 l 626 497 q 540 504 593 504 q 449 491 493 504 q 383 454 406 478 l 383 0 l 74 0 l 74 764 m 81 847 l -44 1122 l 190 1122 l 300 847 l 81 847 m 401 847 l 276 1122 l 511 1122 l 621 847 l 401 847 z "},"ṛ":{"ha":634,"x_min":72,"x_max":626,"o":"m 74 764 l 324 764 l 349 672 l 362 672 q 441 751 391 725 q 560 776 492 776 q 626 771 591 776 l 626 497 q 540 504 593 504 q 449 491 493 504 q 383 454 406 478 l 383 0 l 74 0 l 74 764 m 228 -347 q 111 -311 151 -347 q 72 -210 72 -274 q 111 -109 72 -145 q 228 -72 151 -72 q 345 -109 306 -72 q 385 -210 385 -145 q 345 -311 385 -274 q 228 -347 306 -347 z "},"ȓ":{"ha":634,"x_min":50,"x_max":651,"o":"m 74 764 l 324 764 l 349 672 l 362 672 q 441 751 391 725 q 560 776 492 776 q 626 771 591 776 l 626 497 q 540 504 593 504 q 449 491 493 504 q 383 454 406 478 l 383 0 l 74 0 l 74 764 m 50 867 q 134 1057 58 991 q 351 1124 211 1124 q 566 1057 489 1124 q 651 867 644 990 l 471 867 q 436 950 465 922 q 351 977 407 977 q 265 950 294 977 q 231 867 236 923 l 50 867 z "},"ṟ":{"ha":634,"x_min":-50,"x_max":626,"o":"m 74 764 l 324 764 l 349 672 l 362 672 q 441 751 391 725 q 560 776 492 776 q 626 771 591 776 l 626 497 q 540 504 593 504 q 449 491 493 504 q 383 454 406 478 l 383 0 l 74 0 l 74 764 m -50 -292 l -50 -122 l 507 -122 l 507 -292 l -50 -292 z "},"s":{"ha":777,"x_min":37,"x_max":746,"o":"m 351 -15 q 196 -6 272 -15 q 59 21 120 3 l 59 233 q 195 205 120 215 q 345 195 271 195 q 433 205 408 195 q 458 234 458 215 q 450 253 458 247 q 419 263 442 259 l 269 285 q 92 359 147 302 q 37 514 37 415 q 143 707 37 638 q 463 776 249 776 q 591 768 526 776 q 703 748 656 760 l 703 537 q 592 558 656 550 q 469 566 528 566 q 354 555 384 566 q 324 524 324 543 q 333 508 324 514 q 365 499 342 502 l 515 476 q 688 407 631 460 q 746 246 746 355 q 699 106 746 165 q 564 16 653 47 q 351 -15 475 -15 z "},"ś":{"ha":777,"x_min":37,"x_max":753,"o":"m 351 -15 q 196 -6 272 -15 q 59 21 120 3 l 59 233 q 195 205 120 215 q 345 195 271 195 q 433 205 408 195 q 458 234 458 215 q 450 253 458 247 q 419 263 442 259 l 269 285 q 92 359 147 302 q 37 514 37 415 q 143 707 37 638 q 463 776 249 776 q 591 768 526 776 q 703 748 656 760 l 703 537 q 592 558 656 550 q 469 566 528 566 q 354 555 384 566 q 324 524 324 543 q 333 508 324 514 q 365 499 342 502 l 515 476 q 688 407 631 460 q 746 246 746 355 q 699 106 746 165 q 564 16 653 47 q 351 -15 475 -15 m 251 847 l 422 1122 l 753 1122 l 538 847 l 251 847 z "},"ṥ":{"ha":777,"x_min":37,"x_max":753,"o":"m 351 -15 q 196 -6 272 -15 q 59 21 120 3 l 59 233 q 195 205 120 215 q 345 195 271 195 q 433 205 408 195 q 458 234 458 215 q 450 253 458 247 q 419 263 442 259 l 269 285 q 92 359 147 302 q 37 514 37 415 q 143 707 37 638 q 463 776 249 776 q 591 768 526 776 q 703 748 656 760 l 703 537 q 592 558 656 550 q 469 566 528 566 q 354 555 384 566 q 324 524 324 543 q 333 508 324 514 q 365 499 342 502 l 515 476 q 688 407 631 460 q 746 246 746 355 q 699 106 746 165 q 564 16 653 47 q 351 -15 475 -15 m 235 1094 q 126 1121 162 1094 q 91 1194 91 1147 q 126 1268 91 1242 q 235 1294 162 1294 q 343 1268 308 1294 q 379 1194 379 1242 q 344 1121 379 1147 q 235 1094 308 1094 m 251 847 l 422 1122 l 753 1122 l 538 847 l 251 847 z "},"š":{"ha":777,"x_min":37,"x_max":746,"o":"m 351 -15 q 196 -6 272 -15 q 59 21 120 3 l 59 233 q 195 205 120 215 q 345 195 271 195 q 433 205 408 195 q 458 234 458 215 q 450 253 458 247 q 419 263 442 259 l 269 285 q 92 359 147 302 q 37 514 37 415 q 143 707 37 638 q 463 776 249 776 q 591 768 526 776 q 703 748 656 760 l 703 537 q 592 558 656 550 q 469 566 528 566 q 354 555 384 566 q 324 524 324 543 q 333 508 324 514 q 365 499 342 502 l 515 476 q 688 407 631 460 q 746 246 746 355 q 699 106 746 165 q 564 16 653 47 q 351 -15 475 -15 m 479 1122 l 697 1122 l 515 847 l 274 847 l 92 1122 l 310 1122 l 394 987 l 479 1122 z "},"ṧ":{"ha":777,"x_min":37,"x_max":746,"o":"m 351 -15 q 196 -6 272 -15 q 59 21 120 3 l 59 233 q 195 205 120 215 q 345 195 271 195 q 433 205 408 195 q 458 234 458 215 q 450 253 458 247 q 419 263 442 259 l 269 285 q 92 359 147 302 q 37 514 37 415 q 143 707 37 638 q 463 776 249 776 q 591 768 526 776 q 703 748 656 760 l 703 537 q 592 558 656 550 q 469 566 528 566 q 354 555 384 566 q 324 524 324 543 q 333 508 324 514 q 365 499 342 502 l 515 476 q 688 407 631 460 q 746 246 746 355 q 699 106 746 165 q 564 16 653 47 q 351 -15 475 -15 m 394 1150 q 286 1176 322 1150 q 251 1250 251 1203 q 286 1324 251 1297 q 394 1350 322 1350 q 503 1324 467 1350 q 538 1250 538 1297 q 503 1176 538 1203 q 394 1150 467 1150 m 479 1122 l 697 1122 l 515 847 l 274 847 l 92 1122 l 310 1122 l 394 987 l 479 1122 z "},"ş":{"ha":777,"x_min":37,"x_max":746,"o":"m 746 246 q 675 80 746 145 q 472 -6 603 14 l 472 -53 q 562 -98 532 -65 q 592 -184 592 -132 q 541 -284 592 -248 q 390 -319 489 -319 q 251 -298 316 -319 l 251 -192 q 312 -207 277 -202 q 374 -212 347 -212 q 424 -203 408 -212 q 440 -170 440 -193 q 424 -137 440 -147 q 374 -126 407 -126 l 335 -126 l 335 -15 q 189 -5 260 -14 q 59 21 117 4 l 59 233 q 195 205 120 215 q 345 195 271 195 q 433 205 408 195 q 458 234 458 215 q 450 253 458 247 q 419 263 442 259 l 269 285 q 92 359 147 302 q 37 514 37 415 q 143 707 37 638 q 463 776 249 776 q 591 768 526 776 q 703 748 656 760 l 703 537 q 592 558 656 550 q 469 566 528 566 q 354 555 384 566 q 324 524 324 543 q 333 508 324 514 q 365 499 342 502 l 515 476 q 688 407 631 460 q 746 246 746 355 z "},"ŝ":{"ha":777,"x_min":37,"x_max":746,"o":"m 351 -15 q 196 -6 272 -15 q 59 21 120 3 l 59 233 q 195 205 120 215 q 345 195 271 195 q 433 205 408 195 q 458 234 458 215 q 450 253 458 247 q 419 263 442 259 l 269 285 q 92 359 147 302 q 37 514 37 415 q 143 707 37 638 q 463 776 249 776 q 591 768 526 776 q 703 748 656 760 l 703 537 q 592 558 656 550 q 469 566 528 566 q 354 555 384 566 q 324 524 324 543 q 333 508 324 514 q 365 499 342 502 l 515 476 q 688 407 631 460 q 746 246 746 355 q 699 106 746 165 q 564 16 653 47 q 351 -15 475 -15 m 697 847 l 479 847 l 394 983 l 310 847 l 92 847 l 274 1122 l 515 1122 l 697 847 z "},"ș":{"ha":777,"x_min":37,"x_max":746,"o":"m 351 -15 q 196 -6 272 -15 q 59 21 120 3 l 59 233 q 195 205 120 215 q 345 195 271 195 q 433 205 408 195 q 458 234 458 215 q 450 253 458 247 q 419 263 442 259 l 269 285 q 92 359 147 302 q 37 514 37 415 q 143 707 37 638 q 463 776 249 776 q 591 768 526 776 q 703 748 656 760 l 703 537 q 592 558 656 550 q 469 566 528 566 q 354 555 384 566 q 324 524 324 543 q 333 508 324 514 q 365 499 342 502 l 515 476 q 688 407 631 460 q 746 246 746 355 q 699 106 746 165 q 564 16 653 47 q 351 -15 475 -15 m 394 -72 q 560 -195 560 -72 q 541 -283 560 -237 q 494 -360 523 -329 l 306 -360 q 351 -257 341 -300 q 258 -228 287 -251 q 229 -166 229 -205 q 394 -72 229 -72 z "},"ṡ":{"ha":777,"x_min":37,"x_max":746,"o":"m 351 -15 q 196 -6 272 -15 q 59 21 120 3 l 59 233 q 195 205 120 215 q 345 195 271 195 q 433 205 408 195 q 458 234 458 215 q 450 253 458 247 q 419 263 442 259 l 269 285 q 92 359 147 302 q 37 514 37 415 q 143 707 37 638 q 463 776 249 776 q 591 768 526 776 q 703 748 656 760 l 703 537 q 592 558 656 550 q 469 566 528 566 q 354 555 384 566 q 324 524 324 543 q 333 508 324 514 q 365 499 342 502 l 515 476 q 688 407 631 460 q 746 246 746 355 q 699 106 746 165 q 564 16 653 47 q 351 -15 475 -15 m 394 838 q 211 985 211 838 q 394 1131 211 1131 q 578 985 578 1131 q 394 838 578 838 z "}}}
